<svg width="77" height="78" viewBox="0 0 77 78" fill="none" xmlns="http://www.w3.org/2000/svg">
<path d="M46 50.4998C47.0861 50.4998 48.0291 50.1012 48.829 49.3038C49.6289 48.5065 50.0276 47.5635 50.025 46.4748C50.0224 45.3862 49.6238 44.4445 48.829 43.6497C48.0342 42.8549 47.0912 42.4549 46 42.4498C44.9088 42.4447 43.9671 42.8447 43.1748 43.6497C42.3826 44.4547 41.9827 45.3964 41.975 46.4748C41.9673 47.5533 42.3673 48.4963 43.1748 49.3038C43.9824 50.1114 44.9241 50.5101 46 50.4998ZM46 38.2332C46.7028 38.2332 47.3583 37.9776 47.9665 37.4665C48.5747 36.9554 48.9414 36.2846 49.0667 35.454C49.1944 34.6873 49.4653 33.9846 49.8793 33.3457C50.2933 32.7068 51.0447 31.8443 52.1333 30.7582C54.05 28.8415 55.3278 27.2916 55.9667 26.1083C56.6056 24.9251 56.925 23.5362 56.925 21.9415C56.925 19.0665 55.9181 16.7179 53.9043 14.8958C51.8906 13.0737 49.2558 12.1639 46 12.1665C43.8917 12.1665 41.975 12.6457 40.25 13.604C38.525 14.5623 37.1514 15.9359 36.1292 17.7248C35.7458 18.3637 35.7139 19.0346 36.0333 19.7373C36.3528 20.4401 36.8958 20.9512 37.6625 21.2707C38.3653 21.5901 39.0527 21.6221 39.7248 21.3665C40.3969 21.1109 40.9553 20.6637 41.4 20.0248C41.975 19.1943 42.6458 18.572 43.4125 18.158C44.1792 17.744 45.0417 17.5357 46 17.5332C47.5333 17.5332 48.7792 17.9651 49.7375 18.8288C50.6958 19.6926 51.175 20.8579 51.175 22.3248C51.175 23.2193 50.9194 24.0664 50.4083 24.8663C49.8972 25.6662 49.0028 26.6718 47.725 27.8832C45.8722 29.4804 44.6903 30.7109 44.1792 31.5747C43.6681 32.4384 43.3486 33.6996 43.2208 35.3582C43.1569 36.1248 43.3972 36.7957 43.9415 37.3707C44.4858 37.9457 45.172 38.2332 46 38.2332ZM23 61.9998C20.8917 61.9998 19.0874 61.2498 17.5873 59.7497C16.0872 58.2496 15.3359 56.4441 15.3333 54.3332V8.33317C15.3333 6.22484 16.0847 4.42062 17.5873 2.9205C19.09 1.42039 20.8942 0.669059 23 0.666504H69C71.1083 0.666504 72.9138 1.41784 74.4165 2.9205C75.9192 4.42317 76.6692 6.22739 76.6667 8.33317V54.3332C76.6667 56.4415 75.9166 58.247 74.4165 59.7497C72.9164 61.2523 71.1109 62.0024 69 61.9998H23ZM7.66667 77.3332C5.55833 77.3332 3.75411 76.5831 2.254 75.083C0.753889 73.5829 0.00255556 71.7774 0 69.6665V19.8332C0 18.7471 0.368 17.8373 1.104 17.1038C1.84 16.3704 2.74978 16.0024 3.83333 15.9998C4.91689 15.9973 5.82794 16.3653 6.5665 17.1038C7.30506 17.8424 7.67178 18.7522 7.66667 19.8332V69.6665H57.5C58.5861 69.6665 59.4972 70.0345 60.2332 70.7705C60.9692 71.5065 61.3359 72.4163 61.3333 73.4998C61.3308 74.5834 60.9628 75.4944 60.2293 76.233C59.4959 76.9716 58.5861 77.3383 57.5 77.3332H7.66667Z" fill="black"/>
</svg>
