<svg xmlns="http://www.w3.org/2000/svg" width="233" height="238" viewBox="0 0 233 238" fill="none">
  <path d="M55 233.5H97.5" stroke="#2C2B2B"/>
  <path d="M132 131.2L186.737 189.325" stroke="#2C2B2B" stroke-width="14"/>
  <path d="M106.993 140.787C117.052 157.204 128.714 192.472 94.8868 202.215" stroke="#2C2B2B" stroke-width="14"/>
  <path d="M202.613 202.886L197.113 207.386L183.613 191.886L190.113 185.886C199.613 194.886 207.613 185.386 215.113 182.886C221.113 180.886 225.613 184.886 222.113 190.386C220.113 192.72 214.713 197.686 209.113 198.886C203.513 200.086 200.113 199.386 199.113 198.886L202.613 202.886Z" fill="#2C2B2B" stroke="#2C2B2B"/>
  <path d="M76.8271 210.124L75.0684 203.239L94.8175 197.541L97.5141 205.966C85.3458 210.781 90.5827 222.042 89.6843 229.897C88.9655 236.18 83.4402 238.572 79.9308 233.078C78.6594 230.28 76.4354 223.289 77.7106 217.705C78.9858 212.122 81.0552 209.335 81.9305 208.639L76.8271 210.124Z" fill="#2C2B2B" stroke="#2C2B2B"/>
  <path d="M155 90.5C166.833 89.3333 191.2 80.2 194 53" stroke="#2C2B2B" stroke-width="12"/>
  <path d="M73 128C61.1667 129.167 36.8 138.3 34 165.5" stroke="#2C2B2B" stroke-width="12"/>
  <path d="M94.95 187.683L87.0807 150.394L44.8293 170.925L70.6159 127.56L29.5571 108.357L79.565 97.761L71.4832 62.0437L102.953 77.5862L119.252 20.7225L138.006 69.3629L164.301 53.1598L157.63 90.6618L206.727 92.255L167.635 111.251L191.754 134.77L149.077 139.357L144.645 188.497L123.805 151.637L94.95 187.683Z" fill="url(#paint0_linear_2819_9723)"/>
  <path d="M115.299 112.805C115.618 113.986 115.166 115.33 114.025 116.569C112.889 117.803 111.117 118.871 108.97 119.45C106.823 120.029 104.753 119.997 103.151 119.501C101.541 119.004 100.475 118.069 100.157 116.888C99.8388 115.708 100.29 114.363 101.431 113.124C102.567 111.89 104.34 110.822 106.487 110.243C108.634 109.664 110.703 109.696 112.305 110.192C113.915 110.69 114.981 111.624 115.299 112.805Z" fill="white" stroke="#2C2B2B"/>
  <mask id="mask0_2819_9723" style="mask-type:alpha" maskUnits="userSpaceOnUse" x="99" y="109" width="17" height="12">
    <path d="M115.299 112.805C115.618 113.986 115.166 115.33 114.025 116.569C112.889 117.803 111.117 118.871 108.97 119.45C106.823 120.029 104.753 119.997 103.151 119.501C101.541 119.004 100.475 118.069 100.157 116.888C99.8388 115.708 100.29 114.363 101.431 113.124C102.567 111.89 104.34 110.822 106.487 110.243C108.634 109.664 110.703 109.696 112.305 110.192C113.915 110.69 114.981 111.624 115.299 112.805Z" fill="#D9D9D9" stroke="black"/>
  </mask>
  <g mask="url(#mask0_2819_9723)">
    <path d="M110.213 114.177C110.889 116.684 109.24 119.377 106.426 120.136C103.612 120.895 100.833 119.395 100.157 116.888C99.4811 114.381 101.13 111.687 103.943 110.928C106.757 110.17 109.537 111.67 110.213 114.177Z" fill="#2C2B2B" stroke="#2C2B2B"/>
  </g>
  <path d="M141.19 107.642C141.508 108.822 141.057 110.167 139.916 111.406C138.78 112.64 137.007 113.708 134.86 114.287C132.713 114.866 130.644 114.834 129.041 114.338C127.432 113.84 126.366 112.906 126.048 111.725C125.729 110.544 126.181 109.2 127.322 107.961C128.458 106.727 130.23 105.659 132.377 105.08C134.524 104.501 136.594 104.533 138.196 105.029C139.805 105.526 140.871 106.461 141.19 107.642Z" fill="white" stroke="#2C2B2B"/>
  <mask id="mask1_2819_9723" style="mask-type:alpha" maskUnits="userSpaceOnUse" x="125" y="104" width="17" height="12">
    <path d="M141.19 107.642C141.508 108.822 141.057 110.167 139.916 111.406C138.78 112.64 137.007 113.708 134.86 114.287C132.713 114.866 130.644 114.834 129.041 114.338C127.432 113.84 126.366 112.906 126.048 111.725C125.729 110.544 126.181 109.2 127.322 107.961C128.458 106.727 130.23 105.659 132.377 105.08C134.524 104.501 136.594 104.533 138.196 105.029C139.805 105.526 140.871 106.461 141.19 107.642Z" fill="#D9D9D9" stroke="black"/>
  </mask>
  <g mask="url(#mask1_2819_9723)">
    <path d="M136.103 109.014C136.779 111.521 135.131 114.214 132.317 114.973C129.503 115.732 126.724 114.232 126.048 111.725C125.372 109.218 127.02 106.524 129.834 105.765C132.648 105.007 135.427 106.507 136.103 109.014Z" fill="#2C2B2B" stroke="#2C2B2B"/>
  </g>
  <path d="M95 107.852C96.6667 105.018 102 99.9515 110 102.352" stroke="#2C2B2B"/>
  <path d="M123.5 101.852C125.667 99.1854 131.7 94.7521 138.5 98.3521" stroke="#2C2B2B"/>
  <path d="M185.5 44L189 53L199 54L203 41L201 40.5L201.5 38L200 36.5L196.5 44L198.5 35.5L196 34.5L193 43.5L193.5 36H190.5L189.5 46.5L188 43L185.5 44Z" fill="#2C2B2B" stroke="#2C2B2B"/>
  <path d="M151.5 33.5L149 19.5M159 34.5L167 15" stroke="#2C2B2B"/>
  <path d="M166 39L178.5 28" stroke="#2C2B2B"/>
  <path d="M45 228H107" stroke="#2C2B2B"/>
  <defs>
    <linearGradient id="paint0_linear_2819_9723" x1="89.5" y1="63.4995" x2="159.5" y2="189" gradientUnits="userSpaceOnUse">
      <stop offset="0.01" stop-color="#FEFFC3"/>
      <stop offset="0.395" stop-color="#B1E8F4"/>
      <stop offset="1" stop-color="#6091F1"/>
    </linearGradient>
  </defs>
</svg>