<svg width="38" height="61" viewBox="0 0 38 61" fill="none" xmlns="http://www.w3.org/2000/svg">
<path fill-rule="evenodd" clip-rule="evenodd" d="M8.26189 7.68127C5.77235 9.97412 4 13.5834 4 18.956C4 25.0552 4.84211 26.4222 5.25617 26.9797C5.50462 27.3142 5.68801 27.4955 6.01804 27.8217C6.24599 28.047 6.54388 28.3415 6.98147 28.8033C7.91592 29.7896 8.93808 31.0472 9.89638 32.9638C11.4064 35.984 12.2823 38.407 12.7892 40.2307H25.1228C25.6297 38.407 26.5056 35.984 28.0156 32.9638C28.9739 31.0472 29.9961 29.7896 30.9305 28.8033C31.3681 28.3415 31.666 28.047 31.894 27.8217C32.224 27.4955 32.4074 27.3142 32.6558 26.9797C33.0699 26.4222 33.912 25.0552 33.912 18.956C33.912 13.5834 32.1397 9.97412 29.6501 7.68127C27.1067 5.33882 23.4085 4 18.956 4C14.5036 4 10.8053 5.33882 8.26189 7.68127ZM0 18.956C0 6.31867 8.48689 0 18.956 0C29.4251 0 37.912 6.31867 37.912 18.956C37.912 27.466 36.3941 28.9831 34.4953 30.8811C33.5744 31.8017 32.5638 32.8118 31.5933 34.7527C29.4558 39.0278 28.7645 41.8567 28.5409 43.2393C28.4527 43.7845 27.9863 44.2307 27.434 44.2307H10.478C9.92572 44.2307 9.45929 43.7845 9.37113 43.2393C9.14754 41.8567 8.45623 39.0278 6.31867 34.7527C5.34821 32.8118 4.33765 31.8016 3.4167 30.8811C1.51788 28.9831 0 27.466 0 18.956ZM9.47656 47.8906C9.47656 47.6145 9.70042 47.3906 9.97656 47.3906H27.9326C28.2087 47.3906 28.4326 47.6145 28.4326 47.8906V56.6096C28.4326 56.7721 28.3557 56.9229 28.2213 57.014C27.4155 57.5603 24.4653 59.4858 22.1668 60.016C22.1313 60.0242 22.0948 60.028 22.0583 60.028H15.8501C15.8136 60.028 15.7779 60.0242 15.7423 60.016C13.4438 59.4858 10.4937 57.5603 9.68787 57.014C9.55344 56.9229 9.47656 56.7721 9.47656 56.6096V47.8906ZM14.6367 17.3776C14.6367 17.1143 14.8283 16.3588 15.3832 15.6652C15.8874 15.0349 16.5395 14.6387 17.3757 14.6387C18.4803 14.6387 19.3757 13.7432 19.3757 12.6387C19.3757 11.5341 18.4803 10.6387 17.3757 10.6387C15.0526 10.6387 13.3352 11.8221 12.2597 13.1664C11.2349 14.4474 10.6367 16.0613 10.6367 17.3776C10.6367 18.4822 11.5321 19.3776 12.6367 19.3776C13.7413 19.3776 14.6367 18.4822 14.6367 17.3776Z" fill="#222222"/>
</svg> 