<svg width="24" height="24" viewBox="0 0 24 24" fill="none" xmlns="http://www.w3.org/2000/svg">
<circle cx="12" cy="12" r="12" fill="#F5FF82"/>
<path d="M15.0587 7.46067L15.0973 7.49067L15.1493 7.54L15.1973 7.596L15.206 7.608C15.3077 7.74772 15.3512 7.92149 15.3273 8.09267L15.3127 8.16667L15.2927 8.228C14.6327 10.0447 14.8487 11.6667 15.7453 13.3653C16.2434 13.4432 16.7092 13.6607 17.0887 13.9926C17.4682 14.3244 17.7459 14.7571 17.8895 15.2403C18.0331 15.7236 18.0368 16.2377 17.9001 16.7229C17.7635 17.2082 17.492 17.6448 17.1173 17.982C16.7426 18.3193 16.2799 18.5434 15.783 18.6285C15.2861 18.7135 14.7753 18.6559 14.3097 18.4624C13.8442 18.2689 13.4431 17.9473 13.1529 17.5351C12.8626 17.1229 12.6952 16.6368 12.67 16.1333L12.6667 16L12.67 15.8667C12.6953 15.3581 12.8658 14.8674 13.1611 14.4527C13.4565 14.0379 13.8644 13.7163 14.3367 13.526C13.7053 12.1727 13.442 10.816 13.6353 9.388C13.5247 9.43956 13.4138 9.488 13.3027 9.53333L13.3653 9.49067C11.87 10.4707 10.9973 11.4933 10.712 12.5373C11.1307 12.8285 11.4683 13.2215 11.6928 13.6794C11.9174 14.1372 12.0215 14.6448 11.9954 15.1541C11.9693 15.6634 11.8138 16.1576 11.5436 16.5901C11.2733 17.0226 10.8973 17.379 10.451 17.6258C10.0048 17.8726 9.50294 18.0015 8.99297 18.0004C8.48301 17.9993 7.98174 17.8683 7.53651 17.6196C7.09128 17.3709 6.71679 17.0129 6.44841 16.5793C6.18003 16.1456 6.02662 15.6507 6.00267 15.1413L6 15L6.00333 14.8587C6.02315 14.4373 6.13161 14.0249 6.32163 13.6482C6.51164 13.2716 6.77895 12.9393 7.10609 12.673C7.43323 12.4067 7.81285 12.2124 8.22018 12.1028C8.62751 11.9931 9.05338 11.9706 9.47 12.0367C9.69133 11.3213 10.1 10.6393 10.69 9.99067C9.494 9.92667 8.29933 9.48467 7.12 8.66667L6.94133 8.54L6.90733 8.51333L6.87667 8.48667L6.84733 8.45733L6.82067 8.42667L6.794 8.39333L6.77267 8.362L6.74933 8.322L6.714 8.24867L6.68867 8.17133L6.67333 8.09333L6.67 8.06533L6.66667 7.98667L6.67333 7.908L6.68867 7.83L6.714 7.75333L6.734 7.70933L6.74933 7.67933L6.77267 7.63933L6.794 7.60867L6.82067 7.57467L6.84733 7.544L6.87667 7.51467L6.90733 7.488L6.94067 7.46133C9.61933 5.51333 12.3807 5.51267 15.0587 7.46067Z" fill="#2C2B2B"/>
</svg>
