<svg width="238" height="254" viewBox="0 0 238 254" fill="none" xmlns="http://www.w3.org/2000/svg">
<path d="M0.676483 126.867C0.676489 56.8006 53.6552 0.0004024 119.008 0.000408526C184.36 0.000414651 237.339 56.8006 237.339 126.867L165.567 126.867C165.567 99.2982 144.722 76.949 119.008 76.949C93.2936 76.949 72.4481 99.2981 72.4481 126.867L0.676483 126.867Z" fill="#F5FF82"/>
<path d="M0.676483 253.734C0.676489 183.667 53.6552 126.867 119.008 126.867C184.36 126.867 237.339 183.667 237.339 253.734L165.567 253.734C165.567 226.165 144.722 203.816 119.008 203.816C93.2936 203.816 72.4481 226.165 72.4481 253.734L0.676483 253.734Z" fill="#F5FF82"/>
</svg>
