<svg width="44" height="44" viewBox="0 0 44 44" fill="none" xmlns="http://www.w3.org/2000/svg">
<circle cx="22" cy="22" r="21.5" fill="#F5FF82" stroke="#2C2B2B"/>
<path d="M16.1221 28.9999V26.9539C17.0607 26.1766 17.9701 25.4066 18.8501 24.6439C19.7447 23.8813 20.5367 23.1259 21.2261 22.3779C21.9301 21.6299 22.4874 20.9039 22.8981 20.1999C23.3234 19.4813 23.5361 18.7846 23.5361 18.1099C23.5361 17.4793 23.3601 16.9219 23.0081 16.4379C22.6707 15.9539 22.1061 15.7119 21.3141 15.7119C20.5074 15.7119 19.8987 15.9759 19.4881 16.5039C19.0774 17.0319 18.8721 17.6699 18.8721 18.4179H16.1441C16.1734 17.2886 16.4227 16.3499 16.8921 15.6019C17.3614 14.8393 17.9847 14.2746 18.7621 13.9079C19.5394 13.5266 20.4121 13.3359 21.3801 13.3359C22.9494 13.3359 24.1667 13.7686 25.0321 14.6339C25.9121 15.4846 26.3521 16.5919 26.3521 17.9559C26.3521 18.8066 26.1541 19.6353 25.7581 20.4419C25.3767 21.2486 24.8707 22.0259 24.2401 22.7739C23.6094 23.5219 22.9274 24.2259 22.1941 24.8859C21.4607 25.5313 20.7494 26.1326 20.0601 26.6899H26.7261V28.9999H16.1221Z" fill="black"/>
</svg>
