<svg width="283" height="27" viewBox="0 0 283 27" fill="none" xmlns="http://www.w3.org/2000/svg">
<g clip-path="url(#clip0_4713_8724)">
<path d="M13.5 26.5996C20.6797 26.5996 26.5 20.7793 26.5 13.5996C26.5 6.41991 20.6797 0.599609 13.5 0.599609C6.3203 0.599609 0.5 6.41991 0.5 13.5996C0.5 20.7793 6.3203 26.5996 13.5 26.5996Z" fill="black"/>
<path d="M264.5 13.5996H26.5V14.5996H264.5V13.5996Z" fill="#7A7A7A"/>
<path d="M282 13.5996C282 20.4855 276.198 26.0996 269 26.0996C261.802 26.0996 256 20.4855 256 13.5996C256 6.71367 261.802 1.09961 269 1.09961C276.198 1.09961 282 6.71367 282 13.5996Z" fill="white" stroke="#7A7A7A"/>
<path d="M268.983 20.8394C268.063 20.8394 267.23 20.6794 266.483 20.3594C265.736 20.0261 265.136 19.5194 264.683 18.8394C264.23 18.1594 263.99 17.3061 263.963 16.2794H266.483C266.496 16.9594 266.716 17.5327 267.143 17.9994C267.583 18.4527 268.196 18.6794 268.983 18.6794C269.73 18.6794 270.303 18.4727 270.703 18.0594C271.103 17.6461 271.303 17.1261 271.303 16.4994C271.303 15.7661 271.036 15.2127 270.503 14.8394C269.983 14.4527 269.31 14.2594 268.483 14.2594H267.443V12.1594H268.503C269.183 12.1594 269.75 11.9994 270.203 11.6794C270.656 11.3594 270.883 10.8861 270.883 10.2594C270.883 9.73937 270.71 9.32604 270.363 9.01938C270.03 8.69938 269.563 8.53937 268.963 8.53937C268.31 8.53937 267.796 8.7327 267.423 9.11937C267.063 9.50604 266.863 9.97938 266.823 10.5394H264.323C264.376 9.24605 264.823 8.22604 265.663 7.47937C266.516 6.7327 267.616 6.35938 268.963 6.35938C269.923 6.35938 270.73 6.5327 271.383 6.87937C272.05 7.2127 272.55 7.65938 272.883 8.21938C273.23 8.77938 273.403 9.39938 273.403 10.0794C273.403 10.8661 273.183 11.5327 272.743 12.0794C272.316 12.6127 271.783 12.9727 271.143 13.1594C271.93 13.3194 272.57 13.7061 273.063 14.3194C273.556 14.9194 273.803 15.6794 273.803 16.5994C273.803 17.3727 273.616 18.0794 273.243 18.7194C272.87 19.3594 272.323 19.8727 271.603 20.2594C270.896 20.6461 270.023 20.8394 268.983 20.8394Z" fill="#7A7A7A"/>
<path d="M158 13.5996C158 20.4855 152.198 26.0996 145 26.0996C137.802 26.0996 132 20.4855 132 13.5996C132 6.71367 137.802 1.09961 145 1.09961C152.198 1.09961 158 6.71367 158 13.5996Z" fill="white" stroke="#7A7A7A"/>
<path d="M140.307 20.5994V18.7394C141.16 18.0327 141.987 17.3327 142.787 16.6394C143.6 15.9461 144.32 15.2594 144.947 14.5794C145.587 13.8994 146.094 13.2394 146.467 12.5994C146.854 11.9461 147.047 11.3127 147.047 10.6994C147.047 10.1261 146.887 9.61938 146.567 9.17938C146.26 8.73938 145.747 8.51938 145.027 8.51938C144.294 8.51938 143.74 8.75937 143.367 9.23937C142.994 9.71937 142.807 10.2994 142.807 10.9794H140.327C140.354 9.9527 140.58 9.09937 141.007 8.41937C141.434 7.72604 142 7.2127 142.707 6.87937C143.414 6.5327 144.207 6.35938 145.087 6.35938C146.514 6.35938 147.62 6.7527 148.407 7.53937C149.207 8.3127 149.607 9.31937 149.607 10.5594C149.607 11.3327 149.427 12.0861 149.067 12.8194C148.72 13.5527 148.26 14.2594 147.687 14.9394C147.114 15.6194 146.494 16.2594 145.827 16.8594C145.16 17.4461 144.514 17.9927 143.887 18.4994H149.947V20.5994H140.307Z" fill="#7A7A7A"/>
<path d="M5.5 13.3291L10.5903 17.3916L20.7708 9.2666" stroke="white" stroke-width="2"/>
</g>
<defs>
<clipPath id="clip0_4713_8724">
<rect width="282" height="27" fill="white" transform="translate(0.5)"/>
</clipPath>
</defs>
</svg>
