<svg width="46" height="46" viewBox="0 0 46 46" fill="none" xmlns="http://www.w3.org/2000/svg">
<path d="M45 23C45 35.1503 35.1503 45 23 45C10.8497 45 1 35.1503 1 23C1 10.8497 10.8497 1 23 1C35.1503 1 45 10.8497 45 23Z" fill="#F5FF82"/>
<path d="M22.534 30.264C21.522 30.264 20.6053 30.088 19.784 29.736C18.9627 29.3693 18.3027 28.812 17.804 28.064C17.3053 27.316 17.0413 26.3773 17.012 25.248H19.784C19.7987 25.996 20.0407 26.6267 20.51 27.14C20.994 27.6387 21.6687 27.888 22.534 27.888C23.3553 27.888 23.986 27.6607 24.426 27.206C24.866 26.7513 25.086 26.1793 25.086 25.49C25.086 24.6833 24.7927 24.0747 24.206 23.664C23.634 23.2387 22.8933 23.026 21.984 23.026H20.84V20.716H22.006C22.754 20.716 23.3773 20.54 23.876 20.188C24.3747 19.836 24.624 19.3153 24.624 18.626C24.624 18.054 24.4333 17.5993 24.052 17.262C23.6853 16.91 23.172 16.734 22.512 16.734C21.7933 16.734 21.2287 16.9467 20.818 17.372C20.422 17.7973 20.202 18.318 20.158 18.934H17.408C17.4667 17.5113 17.958 16.3893 18.882 15.568C19.8207 14.7467 21.0307 14.336 22.512 14.336C23.568 14.336 24.4553 14.5267 25.174 14.908C25.9073 15.2747 26.4573 15.766 26.824 16.382C27.2053 16.998 27.396 17.68 27.396 18.428C27.396 19.2933 27.154 20.0267 26.67 20.628C26.2007 21.2147 25.614 21.6107 24.91 21.816C25.7753 21.992 26.4793 22.4173 27.022 23.092C27.5647 23.752 27.836 24.588 27.836 25.6C27.836 26.4507 27.6307 27.228 27.22 27.932C26.8093 28.636 26.208 29.2007 25.416 29.626C24.6387 30.0513 23.678 30.264 22.534 30.264Z" fill="#2C2B2B"/>
<path d="M23 45.5C35.4264 45.5 45.5 35.4264 45.5 23C45.5 10.5736 35.4264 0.5 23 0.5C10.5736 0.5 0.5 10.5736 0.5 23C0.5 35.4264 10.5736 45.5 23 45.5Z" stroke="#2C2B2B"/>
</svg>
