<svg width="24" height="24" viewBox="0 0 24 24" fill="none" xmlns="http://www.w3.org/2000/svg">
<circle cx="12" cy="12" r="12" fill="#F5FF82"/>
<path d="M9.09864 8.00044C9.0985 8.26565 8.98781 8.51993 8.79093 8.70737C8.59404 8.8948 8.32709 9.00002 8.04879 8.99989C7.7705 8.99976 7.50365 8.89428 7.30697 8.70666C7.11028 8.51904 6.99986 8.26465 7 7.99944C7.00014 7.73424 7.11083 7.47996 7.30771 7.29252C7.50459 7.10509 7.77155 6.99987 8.04984 7C8.32814 7.00013 8.59498 7.10561 8.79167 7.29323C8.98836 7.48085 9.09878 7.73524 9.09864 8.00044ZM9.13012 9.74035H7.03148V16H9.13012V9.74035ZM12.446 9.74035H10.3578V16H12.425V12.7152C12.425 10.8853 14.9276 10.7153 14.9276 12.7152V16H17V12.0352C17 8.95039 13.2959 9.06539 12.425 10.5803L12.446 9.74035Z" fill="#2C2B2B"/>
</svg>
