<svg width="24" height="24" viewBox="0 0 24 24" fill="none" xmlns="http://www.w3.org/2000/svg">
<circle cx="12" cy="12" r="12" fill="#F5FF82"/>
<path d="M7.24162 7.3764C7.66324 7.71872 7.82085 7.69261 8.6129 7.63941L16.0746 7.19169C16.2332 7.19169 16.1017 7.03408 16.0485 7.00798L14.8087 6.11153C14.5718 5.92682 14.2556 5.71601 13.6493 5.76922L6.42347 6.29624C6.16046 6.32234 6.10726 6.45385 6.21266 6.55926L7.24162 7.3764ZM7.68934 9.11509V16.9663C7.68934 17.3879 7.90015 17.5465 8.37498 17.5204L16.5765 17.0456C17.0503 17.0195 17.1036 16.7294 17.1036 16.3871V8.58806C17.1036 8.24675 16.972 8.06103 16.6819 8.08713L8.11097 8.58806C7.79475 8.61416 7.68934 8.77277 7.68934 9.11509ZM15.7855 9.53671C15.8377 9.77362 15.7855 10.0105 15.5476 10.0376L15.152 10.1159V15.9132C14.8097 16.0969 14.4925 16.2023 14.2285 16.2023C13.8069 16.2023 13.7015 16.0708 13.3853 15.6753L10.8003 11.6177V15.5438L11.6185 15.7285C11.6185 15.7285 11.6185 16.2023 10.9589 16.2023L9.13992 16.3077C9.08672 16.2023 9.13992 15.9393 9.32463 15.8861L9.79846 15.7556V10.5637L9.14093 10.5115C9.08772 10.2745 9.21923 9.93223 9.58865 9.90512L11.5402 9.77462L14.2305 13.8844V10.2484L13.5449 10.1691C13.4917 9.87902 13.7025 9.66821 13.9665 9.64211L15.7855 9.53671ZM5.81714 5.58451L13.3331 5.03138C14.2556 4.95107 14.4935 5.00528 15.0727 5.4269L17.472 7.11339C17.8685 7.4025 18 7.4818 18 7.79802V17.0456C18 17.6258 17.7892 17.9691 17.0503 18.0203L8.32278 18.5474C7.76865 18.5745 7.50463 18.4952 7.21452 18.1257L5.44772 15.8339C5.13151 15.4123 5 15.0961 5 14.7267V6.50605C5 6.03223 5.21081 5.63671 5.81714 5.58451Z" fill="#2C2B2B"/>
</svg>
