<svg width="630" height="68" viewBox="0 0 630 68" fill="none" xmlns="http://www.w3.org/2000/svg">
<path d="M52.5 16H575" stroke="#2C2B2B" stroke-width="2"/>
<path d="M56 16L575.5 16" stroke="#7A7A7A" stroke-width="2"/>
<circle cx="45" cy="16.5" r="16.5" fill="#2C2B2B"/>
<circle cx="320" cy="16.5" r="16.5" fill="black"/>
<circle cx="585" cy="16.5" r="16" fill="white" stroke="#7A7A7A"/>
<path d="M44.376 24V11.812L41.846 12.406V10.25L45.564 8.6H47.302V24H44.376Z" fill="white"/>
<path d="M314.838 24V21.954C315.776 21.1767 316.686 20.4067 317.566 19.644C318.46 18.8813 319.252 18.126 319.942 17.378C320.646 16.63 321.203 15.904 321.614 15.2C322.039 14.4813 322.252 13.7847 322.252 13.11C322.252 12.4793 322.076 11.922 321.724 11.438C321.386 10.954 320.822 10.712 320.03 10.712C319.223 10.712 318.614 10.976 318.204 11.504C317.793 12.032 317.588 12.67 317.588 13.418H314.86C314.889 12.2887 315.138 11.35 315.608 10.602C316.077 9.83933 316.7 9.27467 317.478 8.908C318.255 8.52667 319.128 8.336 320.096 8.336C321.665 8.336 322.882 8.76867 323.748 9.634C324.628 10.4847 325.068 11.592 325.068 12.956C325.068 13.8067 324.87 14.6353 324.474 15.442C324.092 16.2487 323.586 17.026 322.956 17.774C322.325 18.522 321.643 19.226 320.91 19.886C320.176 20.5313 319.465 21.1327 318.776 21.69H325.442V24H314.838Z" fill="white"/>
<path d="M584.981 24.264C583.969 24.264 583.053 24.088 582.231 23.736C581.41 23.3693 580.75 22.812 580.251 22.064C579.753 21.316 579.489 20.3773 579.459 19.248H582.231C582.246 19.996 582.488 20.6267 582.957 21.14C583.441 21.6387 584.116 21.888 584.981 21.888C585.803 21.888 586.433 21.6607 586.873 21.206C587.313 20.7513 587.533 20.1793 587.533 19.49C587.533 18.6833 587.24 18.0747 586.653 17.664C586.081 17.2387 585.341 17.026 584.431 17.026H583.287V14.716H584.453C585.201 14.716 585.825 14.54 586.323 14.188C586.822 13.836 587.071 13.3153 587.071 12.626C587.071 12.054 586.881 11.5993 586.499 11.262C586.133 10.91 585.619 10.734 584.959 10.734C584.241 10.734 583.676 10.9467 583.265 11.372C582.869 11.7973 582.649 12.318 582.605 12.934H579.855C579.914 11.5113 580.405 10.3893 581.329 9.568C582.268 8.74667 583.478 8.336 584.959 8.336C586.015 8.336 586.903 8.52667 587.621 8.908C588.355 9.27467 588.905 9.766 589.271 10.382C589.653 10.998 589.843 11.68 589.843 12.428C589.843 13.2933 589.601 14.0267 589.117 14.628C588.648 15.2147 588.061 15.6107 587.357 15.816C588.223 15.992 588.927 16.4173 589.469 17.092C590.012 17.752 590.283 18.588 590.283 19.6C590.283 20.4507 590.078 21.228 589.667 21.932C589.257 22.636 588.655 23.2007 587.863 23.626C587.086 24.0513 586.125 24.264 584.981 24.264Z" fill="#7A7A7A"/>
<path d="M6.42 58L10.032 48.2H11.278L14.876 58H13.63L12.734 55.48H8.562L7.652 58H6.42ZM8.912 54.528H12.384L10.648 49.684L8.912 54.528ZM16.3329 58V48.2H19.4969C20.2622 48.2 20.8875 48.326 21.3729 48.578C21.8582 48.83 22.2175 49.1753 22.4509 49.614C22.6842 50.0527 22.8009 50.538 22.8009 51.07C22.8009 51.686 22.6329 52.2413 22.2969 52.736C21.9702 53.2307 21.4569 53.5807 20.7569 53.786L22.8989 58H21.5129L19.5249 53.954H19.4409H17.5089V58H16.3329ZM17.5089 53.03H19.4129C20.1689 53.03 20.7195 52.848 21.0649 52.484C21.4102 52.12 21.5829 51.6533 21.5829 51.084C21.5829 50.5053 21.4102 50.048 21.0649 49.712C20.7289 49.3667 20.1735 49.194 19.3989 49.194H17.5089V53.03ZM28.9297 58.168C27.9684 58.168 27.1377 57.958 26.4377 57.538C25.747 57.1087 25.2104 56.516 24.8277 55.76C24.445 54.9947 24.2537 54.108 24.2537 53.1C24.2537 52.1013 24.445 51.224 24.8277 50.468C25.2104 49.7027 25.747 49.1053 26.4377 48.676C27.1377 48.2467 27.9684 48.032 28.9297 48.032C30.0497 48.032 30.9597 48.3027 31.6597 48.844C32.369 49.376 32.8217 50.1227 33.0177 51.084H31.7157C31.5664 50.4773 31.2584 49.992 30.7917 49.628C30.3344 49.2547 29.7137 49.068 28.9297 49.068C28.2297 49.068 27.6184 49.2313 27.0957 49.558C26.573 49.8753 26.167 50.3373 25.8777 50.944C25.5977 51.5413 25.4577 52.26 25.4577 53.1C25.4577 53.94 25.5977 54.6633 25.8777 55.27C26.167 55.8673 26.573 56.3293 27.0957 56.656C27.6184 56.9733 28.2297 57.132 28.9297 57.132C29.7137 57.132 30.3344 56.9547 30.7917 56.6C31.2584 56.236 31.5664 55.7553 31.7157 55.158H33.0177C32.8217 56.1007 32.369 56.838 31.6597 57.37C30.9597 57.902 30.0497 58.168 28.9297 58.168ZM34.7079 58V48.2H35.8839V52.526H40.9659V48.2H42.1419V58H40.9659V53.492H35.8839V58H34.7079ZM44.2098 58V48.2H50.2718V49.166H45.3858V52.582H49.8518V53.534H45.3858V57.034H50.2718V58H44.2098ZM54.4082 58V49.166H51.4822V48.2H58.5102V49.166H55.5842V58H54.4082ZM62.3822 58V54.276L59.1902 48.2H60.5202L62.9702 53.156L65.4202 48.2H66.7362L63.5582 54.276V58H62.3822ZM68.0536 58V48.2H71.2736C72.0389 48.2 72.6689 48.326 73.1636 48.578C73.6582 48.83 74.0222 49.1707 74.2556 49.6C74.4982 50.0293 74.6196 50.5147 74.6196 51.056C74.6196 51.588 74.5029 52.0687 74.2696 52.498C74.0362 52.9273 73.6722 53.2727 73.1776 53.534C72.6829 53.786 72.0482 53.912 71.2736 53.912H69.2296V58H68.0536ZM69.2296 52.918H71.2456C72.0296 52.918 72.5849 52.7547 72.9116 52.428C73.2476 52.092 73.4156 51.6347 73.4156 51.056C73.4156 50.468 73.2476 50.0107 72.9116 49.684C72.5849 49.348 72.0296 49.18 71.2456 49.18H69.2296V52.918ZM76.161 58V48.2H82.223V49.166H77.337V52.582H81.803V53.534H77.337V57.034H82.223V58H76.161Z" fill="black"/>
<path d="M287.488 58.168C286.527 58.168 285.682 57.958 284.954 57.538C284.235 57.1087 283.671 56.5113 283.26 55.746C282.859 54.9807 282.658 54.0987 282.658 53.1C282.658 52.1013 282.859 51.224 283.26 50.468C283.671 49.7027 284.235 49.1053 284.954 48.676C285.682 48.2467 286.527 48.032 287.488 48.032C288.459 48.032 289.303 48.2467 290.022 48.676C290.75 49.1053 291.315 49.7027 291.716 50.468C292.117 51.224 292.318 52.1013 292.318 53.1C292.318 54.0987 292.117 54.9807 291.716 55.746C291.315 56.502 290.764 57.09 290.064 57.51L292.542 59.89H291.016L289.028 57.958C288.552 58.098 288.039 58.168 287.488 58.168ZM287.488 57.132C288.207 57.132 288.837 56.9733 289.378 56.656C289.929 56.3293 290.353 55.8673 290.652 55.27C290.96 54.6633 291.114 53.94 291.114 53.1C291.114 52.26 290.96 51.5413 290.652 50.944C290.353 50.3467 289.929 49.8893 289.378 49.572C288.837 49.2453 288.207 49.082 287.488 49.082C286.769 49.082 286.135 49.2453 285.584 49.572C285.043 49.8893 284.618 50.3467 284.31 50.944C284.011 51.5413 283.862 52.26 283.862 53.1C283.862 53.94 284.011 54.6633 284.31 55.27C284.618 55.8673 285.043 56.3293 285.584 56.656C286.135 56.9733 286.769 57.132 287.488 57.132ZM297.625 58.168C296.953 58.168 296.342 58.0373 295.791 57.776C295.25 57.5053 294.816 57.09 294.489 56.53C294.162 55.97 293.999 55.256 293.999 54.388V48.2H295.175V54.402C295.175 55.354 295.404 56.0447 295.861 56.474C296.318 56.9033 296.916 57.118 297.653 57.118C298.39 57.118 298.983 56.9033 299.431 56.474C299.879 56.0447 300.103 55.354 300.103 54.402V48.2H301.279V54.388C301.279 55.256 301.116 55.97 300.789 56.53C300.462 57.09 300.024 57.5053 299.473 57.776C298.922 58.0373 298.306 58.168 297.625 58.168ZM303.27 58V48.2H309.332V49.166H304.446V52.582H308.912V53.534H304.446V57.034H309.332V58H303.27ZM314.295 58.168C313.576 58.168 312.951 58.0373 312.419 57.776C311.887 57.5147 311.476 57.1507 311.187 56.684C310.897 56.2173 310.753 55.676 310.753 55.06H311.985C311.985 55.4427 312.073 55.7973 312.251 56.124C312.428 56.4413 312.685 56.698 313.021 56.894C313.366 57.0807 313.791 57.174 314.295 57.174C314.957 57.174 315.471 57.0153 315.835 56.698C316.199 56.3807 316.381 55.984 316.381 55.508C316.381 55.116 316.297 54.8033 316.129 54.57C315.961 54.3273 315.732 54.1313 315.443 53.982C315.163 53.8327 314.836 53.702 314.463 53.59C314.099 53.478 313.716 53.352 313.315 53.212C312.559 52.9507 311.999 52.6287 311.635 52.246C311.271 51.854 311.089 51.3453 311.089 50.72C311.079 50.1973 311.201 49.7353 311.453 49.334C311.705 48.9233 312.059 48.606 312.517 48.382C312.983 48.1487 313.534 48.032 314.169 48.032C314.794 48.032 315.335 48.1487 315.793 48.382C316.259 48.6153 316.619 48.9373 316.871 49.348C317.132 49.7587 317.267 50.2253 317.277 50.748H316.045C316.045 50.4773 315.975 50.2113 315.835 49.95C315.695 49.6793 315.48 49.46 315.191 49.292C314.911 49.124 314.556 49.04 314.127 49.04C313.595 49.0307 313.156 49.166 312.811 49.446C312.475 49.726 312.307 50.1133 312.307 50.608C312.307 51.028 312.423 51.35 312.657 51.574C312.899 51.798 313.235 51.9847 313.665 52.134C314.094 52.274 314.589 52.4373 315.149 52.624C315.615 52.792 316.035 52.988 316.409 53.212C316.782 53.436 317.071 53.7253 317.277 54.08C317.491 54.4347 317.599 54.8873 317.599 55.438C317.599 55.9047 317.477 56.348 317.235 56.768C316.992 57.1787 316.623 57.5147 316.129 57.776C315.643 58.0373 315.032 58.168 314.295 58.168ZM321.33 58V49.166H318.404V48.2H325.432V49.166H322.506V58H321.33ZM326.868 58V48.2H328.044V58H326.868ZM334.574 58.168C333.613 58.168 332.768 57.958 332.04 57.538C331.321 57.1087 330.757 56.5113 330.346 55.746C329.945 54.9807 329.744 54.0987 329.744 53.1C329.744 52.1013 329.945 51.224 330.346 50.468C330.757 49.7027 331.321 49.1053 332.04 48.676C332.768 48.2467 333.613 48.032 334.574 48.032C335.545 48.032 336.389 48.2467 337.108 48.676C337.836 49.1053 338.401 49.7027 338.802 50.468C339.203 51.224 339.404 52.1013 339.404 53.1C339.404 54.0987 339.203 54.9807 338.802 55.746C338.401 56.5113 337.836 57.1087 337.108 57.538C336.389 57.958 335.545 58.168 334.574 58.168ZM334.574 57.132C335.293 57.132 335.923 56.9733 336.464 56.656C337.015 56.3293 337.439 55.8673 337.738 55.27C338.046 54.6633 338.2 53.94 338.2 53.1C338.2 52.26 338.046 51.5413 337.738 50.944C337.439 50.3467 337.015 49.8893 336.464 49.572C335.923 49.2453 335.293 49.082 334.574 49.082C333.855 49.082 333.221 49.2453 332.67 49.572C332.129 49.8893 331.704 50.3467 331.396 50.944C331.097 51.5413 330.948 52.26 330.948 53.1C330.948 53.94 331.097 54.6633 331.396 55.27C331.704 55.8673 332.129 56.3293 332.67 56.656C333.221 56.9733 333.855 57.132 334.574 57.132ZM341.1 58V48.2H342.276L347.498 56.054V48.2H348.674V58H347.498L342.276 50.146V58H341.1ZM353.875 58.168C353.156 58.168 352.531 58.0373 351.999 57.776C351.467 57.5147 351.056 57.1507 350.767 56.684C350.477 56.2173 350.333 55.676 350.333 55.06H351.565C351.565 55.4427 351.653 55.7973 351.831 56.124C352.008 56.4413 352.265 56.698 352.601 56.894C352.946 57.0807 353.371 57.174 353.875 57.174C354.537 57.174 355.051 57.0153 355.415 56.698C355.779 56.3807 355.961 55.984 355.961 55.508C355.961 55.116 355.877 54.8033 355.709 54.57C355.541 54.3273 355.312 54.1313 355.023 53.982C354.743 53.8327 354.416 53.702 354.043 53.59C353.679 53.478 353.296 53.352 352.895 53.212C352.139 52.9507 351.579 52.6287 351.215 52.246C350.851 51.854 350.669 51.3453 350.669 50.72C350.659 50.1973 350.781 49.7353 351.033 49.334C351.285 48.9233 351.639 48.606 352.097 48.382C352.563 48.1487 353.114 48.032 353.749 48.032C354.374 48.032 354.915 48.1487 355.373 48.382C355.839 48.6153 356.199 48.9373 356.451 49.348C356.712 49.7587 356.847 50.2253 356.857 50.748H355.625C355.625 50.4773 355.555 50.2113 355.415 49.95C355.275 49.6793 355.06 49.46 354.771 49.292C354.491 49.124 354.136 49.04 353.707 49.04C353.175 49.0307 352.736 49.166 352.391 49.446C352.055 49.726 351.887 50.1133 351.887 50.608C351.887 51.028 352.003 51.35 352.237 51.574C352.479 51.798 352.815 51.9847 353.245 52.134C353.674 52.274 354.169 52.4373 354.729 52.624C355.195 52.792 355.615 52.988 355.989 53.212C356.362 53.436 356.651 53.7253 356.857 54.08C357.071 54.4347 357.179 54.8873 357.179 55.438C357.179 55.9047 357.057 56.348 356.815 56.768C356.572 57.1787 356.203 57.5147 355.709 57.776C355.223 58.0373 354.612 58.168 353.875 58.168Z" fill="black"/>
<path d="M559.036 58V48.2H562.2C562.965 48.2 563.591 48.326 564.076 48.578C564.561 48.83 564.921 49.1753 565.154 49.614C565.387 50.0527 565.504 50.538 565.504 51.07C565.504 51.686 565.336 52.2413 565 52.736C564.673 53.2307 564.16 53.5807 563.46 53.786L565.602 58H564.216L562.228 53.954H562.144H560.212V58H559.036ZM560.212 53.03H562.116C562.872 53.03 563.423 52.848 563.768 52.484C564.113 52.12 564.286 51.6533 564.286 51.084C564.286 50.5053 564.113 50.048 563.768 49.712C563.432 49.3667 562.877 49.194 562.102 49.194H560.212V53.03ZM567.335 58V48.2H573.397V49.166H568.511V52.582H572.977V53.534H568.511V57.034H573.397V58H567.335ZM578.359 58.168C577.641 58.168 577.015 58.0373 576.483 57.776C575.951 57.5147 575.541 57.1507 575.251 56.684C574.962 56.2173 574.817 55.676 574.817 55.06H576.049C576.049 55.4427 576.138 55.7973 576.315 56.124C576.493 56.4413 576.749 56.698 577.085 56.894C577.431 57.0807 577.855 57.174 578.359 57.174C579.022 57.174 579.535 57.0153 579.899 56.698C580.263 56.3807 580.445 55.984 580.445 55.508C580.445 55.116 580.361 54.8033 580.193 54.57C580.025 54.3273 579.797 54.1313 579.507 53.982C579.227 53.8327 578.901 53.702 578.527 53.59C578.163 53.478 577.781 53.352 577.379 53.212C576.623 52.9507 576.063 52.6287 575.699 52.246C575.335 51.854 575.153 51.3453 575.153 50.72C575.144 50.1973 575.265 49.7353 575.517 49.334C575.769 48.9233 576.124 48.606 576.581 48.382C577.048 48.1487 577.599 48.032 578.233 48.032C578.859 48.032 579.4 48.1487 579.857 48.382C580.324 48.6153 580.683 48.9373 580.935 49.348C581.197 49.7587 581.332 50.2253 581.341 50.748H580.109C580.109 50.4773 580.039 50.2113 579.899 49.95C579.759 49.6793 579.545 49.46 579.255 49.292C578.975 49.124 578.621 49.04 578.191 49.04C577.659 49.0307 577.221 49.166 576.875 49.446C576.539 49.726 576.371 50.1133 576.371 50.608C576.371 51.028 576.488 51.35 576.721 51.574C576.964 51.798 577.3 51.9847 577.729 52.134C578.159 52.274 578.653 52.4373 579.213 52.624C579.68 52.792 580.1 52.988 580.473 53.212C580.847 53.436 581.136 53.7253 581.341 54.08C581.556 54.4347 581.663 54.8873 581.663 55.438C581.663 55.9047 581.542 56.348 581.299 56.768C581.057 57.1787 580.688 57.5147 580.193 57.776C579.708 58.0373 579.097 58.168 578.359 58.168ZM586.873 58.168C586.201 58.168 585.59 58.0373 585.039 57.776C584.498 57.5053 584.064 57.09 583.737 56.53C583.41 55.97 583.247 55.256 583.247 54.388V48.2H584.423V54.402C584.423 55.354 584.652 56.0447 585.109 56.474C585.566 56.9033 586.164 57.118 586.901 57.118C587.638 57.118 588.231 56.9033 588.679 56.474C589.127 56.0447 589.351 55.354 589.351 54.402V48.2H590.527V54.388C590.527 55.256 590.364 55.97 590.037 56.53C589.71 57.09 589.272 57.5053 588.721 57.776C588.17 58.0373 587.554 58.168 586.873 58.168ZM592.518 58V48.2H593.694V57.062H598.258V58H592.518ZM600.611 58V49.166H597.685V48.2H604.713V49.166H601.787V58H600.611ZM609.039 58.168C608.32 58.168 607.695 58.0373 607.163 57.776C606.631 57.5147 606.22 57.1507 605.931 56.684C605.642 56.2173 605.497 55.676 605.497 55.06H606.729C606.729 55.4427 606.818 55.7973 606.995 56.124C607.172 56.4413 607.429 56.698 607.765 56.894C608.11 57.0807 608.535 57.174 609.039 57.174C609.702 57.174 610.215 57.0153 610.579 56.698C610.943 56.3807 611.125 55.984 611.125 55.508C611.125 55.116 611.041 54.8033 610.873 54.57C610.705 54.3273 610.476 54.1313 610.187 53.982C609.907 53.8327 609.58 53.702 609.207 53.59C608.843 53.478 608.46 53.352 608.059 53.212C607.303 52.9507 606.743 52.6287 606.379 52.246C606.015 51.854 605.833 51.3453 605.833 50.72C605.824 50.1973 605.945 49.7353 606.197 49.334C606.449 48.9233 606.804 48.606 607.261 48.382C607.728 48.1487 608.278 48.032 608.913 48.032C609.538 48.032 610.08 48.1487 610.537 48.382C611.004 48.6153 611.363 48.9373 611.615 49.348C611.876 49.7587 612.012 50.2253 612.021 50.748H610.789C610.789 50.4773 610.719 50.2113 610.579 49.95C610.439 49.6793 610.224 49.46 609.935 49.292C609.655 49.124 609.3 49.04 608.871 49.04C608.339 49.0307 607.9 49.166 607.555 49.446C607.219 49.726 607.051 50.1133 607.051 50.608C607.051 51.028 607.168 51.35 607.401 51.574C607.644 51.798 607.98 51.9847 608.409 52.134C608.838 52.274 609.333 52.4373 609.893 52.624C610.36 52.792 610.78 52.988 611.153 53.212C611.526 53.436 611.816 53.7253 612.021 54.08C612.236 54.4347 612.343 54.8873 612.343 55.438C612.343 55.9047 612.222 56.348 611.979 56.768C611.736 57.1787 611.368 57.5147 610.873 57.776C610.388 58.0373 609.776 58.168 609.039 58.168Z" fill="#7A7A7A"/>
</svg>
