<svg width="212" height="227" viewBox="0 0 212 227" fill="none" xmlns="http://www.w3.org/2000/svg">
  <path d="M0.856555 146.32C3.48995 144.357 5.86797 142.171 6.97743 138.989C7.47564 137.562 7.54263 136.08 7.84825 134.61C8.12876 133.258 8.48881 131.918 8.92841 130.608C9.79086 128.037 10.9631 125.579 12.4201 123.293C13.9105 120.949 15.6898 118.793 17.6701 116.842C19.8053 114.732 22.1666 112.86 24.6535 111.182C25.3819 110.692 26.1271 110.214 26.8766 109.754C36.778 103.696 58.5737 98.8644 58.9923 98.7891L73.34 106.371C73.252 106.384 40.1566 113.342 31.888 118.47C23.7198 123.532 18.8801 130.172 17.4357 138.278C17.7455 142.372 19.529 146.048 21.3041 149.69C22.4848 152.114 18.5116 153.45 17.3478 151.064C16.7658 149.87 16.2006 148.677 15.6773 147.467C15.8573 150.168 16.008 152.872 16.1127 155.577C16.2174 158.269 12.0391 158.541 11.9344 155.849C11.9009 155.104 11.8507 152.91 11.8172 152.165C11.6162 152.91 11.4195 155.108 11.2018 155.857C10.4523 158.428 6.34525 157.599 7.09884 155.007C7.35842 154.132 7.6138 153.257 7.85244 152.374C7.44215 153.107 7.01511 153.831 6.57133 154.547C5.16461 156.82 1.40501 154.97 2.82846 152.671C3.78721 151.131 4.02166 150.276 4.83387 148.665C4.09702 149.322 3.98398 149.213 3.20108 149.799C1.02821 151.415 -1.29538 147.932 0.856555 146.328V146.32Z" fill="#2C2B2B"/>
  <path d="M210.376 42.5035C207.826 44.5801 205.544 46.8618 204.573 50.0897C204.138 51.5383 204.129 53.0204 203.887 54.5024C203.665 55.8673 203.363 57.2196 202.978 58.5467C202.229 61.1508 201.157 63.6586 199.8 66.0032C198.444 68.3477 196.723 70.6378 194.831 72.6767C192.788 74.8747 190.51 76.8466 188.094 78.6301C187.387 79.1534 186.667 79.66 185.934 80.1498C176.301 86.6224 166.374 88.8204 165.956 88.9167L163.82 79.0948C163.908 79.078 172.512 77.1313 180.554 71.6551C188.501 66.2502 193.047 59.405 194.144 51.2494C193.659 47.1716 191.72 43.5753 189.79 40.0125C188.509 37.6428 192.419 36.1356 193.684 38.4718C194.316 39.6398 194.931 40.8079 195.505 41.9927C195.208 39.3049 194.944 36.6087 194.722 33.9125C194.5 31.2289 198.666 30.7767 198.883 33.4645C198.946 34.2056 199.093 36.3952 199.16 37.1404C199.331 36.3868 199.432 34.1805 199.62 33.4269C200.261 30.8228 204.397 31.4801 203.753 34.1009C203.531 34.9885 203.313 35.8719 203.112 36.7678C203.493 36.0184 203.887 35.2774 204.297 34.5405C205.607 32.2086 209.438 33.8958 208.119 36.2528C207.227 37.8354 207.026 38.6937 206.285 40.3432C206.993 39.6524 207.11 39.7571 207.868 39.1416C209.97 37.4335 212.444 40.8163 210.359 42.5119L210.376 42.5035Z" fill="#2C2B2B"/>
  <path d="M130.705 126.753L121.117 129.758L145.298 206.919L154.886 203.914L130.705 126.753Z" fill="#2C2B2B"/>
  <path d="M183.074 222.34L163.246 224.575C162.262 217.194 156.51 219.221 156.51 219.221L158.812 225.329L151.486 226.74L141.798 195.599L151.285 192.598C156.979 213.983 168.718 209.386 178.033 211.839C181.295 213.347 184.192 220.146 183.074 222.344V222.34Z" fill="#2C2B2B"/>
  <path d="M91.2781 126.337L68.5166 203.924L78.1582 206.752L100.92 129.166L91.2781 126.337Z" fill="#2C2B2B"/>
  <path d="M147.188 105.745C148.762 107.83 150.34 109.965 151.923 112.142C160.836 124.405 160.38 141.113 150.872 152.92C145.513 159.572 140.167 166.367 134.795 172.802C128.863 158.12 123.023 144.735 117.233 132.158C116.734 134.331 116.232 136.5 115.734 138.656C112.15 154.121 98.2293 164.948 82.3577 164.642C75.6089 164.513 68.8558 164.312 62.0902 163.885C68.8014 152.97 75.454 141.139 82.0144 127.959C81.9181 128.018 81.8177 128.072 81.7214 128.131C65.8163 137.354 45.4608 131.915 36.0911 116.094C32.5576 110.128 29.0031 103.84 25.4277 97.2374C39.9093 101.01 54.0476 99.5987 68.0185 95.7386C66.7709 95.186 65.5232 94.6124 64.2756 94.0179C49.4382 86.9467 41.9566 70.1331 46.5536 54.3536C48.7097 46.9474 50.849 39.244 52.9717 31.3019C63.9951 42.0867 74.939 51.7077 85.774 59.6958C85.28 57.2508 84.786 54.789 84.292 52.3105C81.152 36.6106 89.5672 20.9274 104.338 14.7479C110.685 12.0894 117.048 9.62768 123.429 7.42969C122.893 20.0692 122.399 33.3911 121.942 47.2196C122.6 46.3529 123.257 45.4947 123.919 44.649C134.871 30.5316 154.954 27.5465 169.628 37.741C174.422 41.0736 179.249 44.8667 184.118 49.3087C172.366 53.4158 160.744 59.5157 149.294 68.1737C150.713 68.1737 152.132 68.2072 153.556 68.2658C169.704 68.9483 183.097 80.9891 185.416 96.9862C186.672 105.657 187.928 114.344 189.184 122.956C174.991 114.29 161.004 108.763 147.188 105.745Z" fill="url(#paint0_linear_4702_14451)"/>
  <path d="M40.6671 222.851L60.5327 224.722C61.3784 217.324 67.1728 219.246 67.1728 219.246L64.9832 225.396L72.3349 226.673L81.4534 195.361L71.912 192.535C66.6117 214.021 54.7887 209.642 45.5194 212.263C42.2832 213.828 39.5116 220.682 40.6713 222.859L40.6671 222.851Z" fill="#2C2B2B"/>
  <path d="M175.86 27.6725L171.539 20.5468L164.594 15.9499L171.719 11.6292L176.316 4.68359L180.637 11.8093L187.583 16.4062L180.457 20.7268L175.86 27.6725Z" fill="#9FD4F4"/>
  <path d="M150.826 12.8069L148.427 8.83382L144.559 6.27159L148.528 3.86846L151.094 0L153.497 3.96894L157.366 6.53535L153.392 8.93849L150.826 12.8069Z" fill="#9FD4F4"/>
  <path d="M50.194 188.965L45.8734 181.844L38.9277 177.243L46.0534 172.926L50.6503 165.977L54.971 173.102L61.9166 177.703L54.7909 182.02L50.194 188.965Z" fill="#9FD4F4"/>
  <path d="M25.1551 174.102L22.7562 170.133L18.8877 167.567L22.8566 165.163L25.423 161.295L27.8262 165.268L31.6946 167.834L27.7215 170.233L25.1551 174.102Z" fill="#9FD4F4"/>
  <path d="M82.4538 96.443C82.4077 98.0004 83.3372 99.4741 84.9448 100.596C86.5483 101.71 88.8049 102.455 91.3295 102.539C91.6602 102.547 91.9826 102.547 92.3008 102.535C94.4402 102.459 96.3702 101.902 97.823 101.019C99.4976 100.01 100.511 98.5949 100.557 97.0375C100.603 95.4801 99.6735 94.0064 98.0658 92.8843C96.7093 91.9382 94.8923 91.2599 92.8325 91.0255C92.4557 90.9794 92.0663 90.9501 91.677 90.9376C89.1524 90.8538 86.8581 91.4441 85.1877 92.4573C83.513 93.4705 82.4998 94.8814 82.4538 96.4388V96.443Z" fill="white"/>
  <path d="M99.792 86.0367C99.704 86.0367 99.6161 86.0116 99.5408 85.953C95.1029 82.6581 89.003 82.5158 84.3558 85.6097C84.1632 85.7353 83.9037 85.685 83.7739 85.4925C83.6441 85.2999 83.6985 85.0403 83.8911 84.9105C88.8313 81.624 95.3206 81.7705 100.039 85.2789C100.223 85.4171 100.265 85.6809 100.127 85.8651C100.043 85.9739 99.9176 86.0325 99.792 86.0325V86.0367Z" fill="#2C2B2B"/>
  <path d="M112.37 97.9606C112.324 99.518 113.253 100.992 114.861 102.114C116.464 103.227 118.721 103.973 121.245 104.056C121.576 104.065 121.899 104.065 122.217 104.052C124.356 103.977 126.286 103.42 127.739 102.537C129.414 101.528 130.427 100.113 130.473 98.5551C130.519 96.9976 129.589 95.5239 127.982 94.4019C126.625 93.4557 124.808 92.7775 122.748 92.5431C122.372 92.497 121.982 92.4677 121.593 92.4551C119.068 92.3714 116.774 92.9617 115.104 93.9749C113.429 94.9881 112.416 96.3989 112.37 97.9564V97.9606Z" fill="white"/>
  <path d="M129.708 87.5586C129.62 87.5586 129.532 87.5335 129.457 87.4749C125.019 84.1758 118.915 84.0377 114.272 87.1316C114.079 87.2572 113.82 87.207 113.69 87.0144C113.56 86.8218 113.615 86.5622 113.807 86.4324C118.747 83.1459 125.237 83.2966 129.955 86.8009C130.139 86.939 130.181 87.2028 130.043 87.387C129.959 87.4958 129.834 87.5545 129.708 87.5545V87.5586Z" fill="#2C2B2B"/>
  <path d="M92.3069 102.54C94.4463 102.465 96.3763 101.908 97.8291 101.025C99.5038 100.016 100.517 98.6007 100.563 97.0433C100.609 95.4858 99.6796 94.0121 98.0719 92.8901C96.7154 91.9439 94.8984 91.2657 92.8386 91.0312C90.2387 91.743 88.3254 93.9828 88.2459 96.6707C88.1663 99.2957 89.8535 101.603 92.3069 102.536V102.54Z" fill="#444444"/>
  <path d="M122.223 104.056C124.362 103.981 126.292 103.424 127.745 102.54C129.42 101.531 130.433 100.116 130.479 98.5589C130.525 97.0015 129.595 95.5278 127.988 94.4057C126.631 93.4596 124.814 92.7813 122.754 92.5469C120.154 93.2586 118.241 95.4985 118.162 98.1863C118.082 100.811 119.769 103.118 122.223 104.052V104.056Z" fill="#444444"/>
  <defs>
    <linearGradient id="paint0_linear_4702_14451" x1="180.898" y1="102.936" x2="35.9664" y2="111.95" gradientUnits="userSpaceOnUse">
      <stop stop-color="#F5FF82"/>
      <stop offset="0.5" stop-color="#B1E8F4"/>
      <stop offset="1" stop-color="#6091F1"/>
    </linearGradient>
  </defs>
</svg>