
 <svg width="50" height="50" viewBox="0 0 50 50" fill="none" xmlns="http://www.w3.org/2000/svg">
<path d="M24.9998 36.5081C18.6065 36.5081 13.4919 31.3934 13.4919 25.0001C13.4919 18.6068 18.6065 13.4922 24.9998 13.4922C31.3931 13.4922 36.5078 18.6068 36.5078 25.0001C36.5078 31.3934 31.3931 36.5081 24.9998 36.5081ZM24.9998 16.0495C20.013 16.0495 16.0492 20.0134 16.0492 25.0001C16.0492 29.9869 20.013 33.9507 24.9998 33.9507C29.9866 33.9507 33.9504 29.9869 33.9504 25.0001C33.9504 20.0134 29.9866 16.0495 24.9998 16.0495Z" fill="#2C2B2B"/>
<path d="M28.628 50H21.504L19.5251 43.9474C18.2058 43.5526 16.8865 43.0263 15.6992 42.3684L9.89446 45.2632L4.88127 40.2632L7.78364 34.4737C7.12401 33.2895 6.59631 31.9737 6.20053 30.6579L0 28.5526V21.4474L6.0686 19.4737C6.46438 18.1579 6.99208 16.8421 7.65172 15.6579L4.74934 9.86842L9.76253 4.86842L15.5673 7.76316C16.7546 7.10526 18.0739 6.57895 19.3931 6.18421L21.504 0H28.628L30.6069 6.05263C31.9261 6.44737 33.2454 6.97368 34.4327 7.63158L40.2375 4.73684L45.2507 9.73684L42.3483 15.5263C43.0079 16.7105 43.5356 18.0263 43.9314 19.3421L50 21.3158V28.4211L43.9314 30.3947C43.5356 31.7105 43.0079 33.0263 42.3483 34.2105L45.2507 40L40.2375 45L34.4327 42.1053C33.2454 42.7632 31.9261 43.2895 30.6069 43.6842L28.628 50ZM23.3509 47.3684H26.781L28.628 41.7105L29.2876 41.5789C30.8707 41.1842 32.3219 40.5263 33.7731 39.7368L34.4327 39.3421L39.7098 41.9737L42.0844 39.6053L39.4459 34.3421L39.8417 33.6842C40.6332 32.3684 41.2929 30.7895 41.6887 29.2105L41.8206 28.5526L47.4934 26.7105V23.2895L41.8206 21.4474L41.6887 20.7895C41.2929 19.2105 40.6332 17.7632 39.8417 16.3158L39.4459 15.6579L42.0844 10.3947L39.7098 8.02632L34.4327 10.6579L33.7731 10.2632C32.3219 9.47368 30.8707 8.81579 29.2876 8.42105L28.628 8.28947L26.781 2.63158H23.3509L21.504 8.28947L20.8443 8.42105C19.2612 8.81579 17.81 9.47368 16.3588 10.2632L15.6992 10.6579L10.4222 8.02632L8.04749 10.3947L10.686 15.6579L10.2902 16.3158C9.49868 17.6316 8.83905 19.2105 8.44327 20.7895L8.31135 21.4474L2.63852 23.2895V26.7105L8.31135 28.5526L8.44327 29.2105C8.83905 30.7895 9.49868 32.2368 10.2902 33.6842L10.686 34.3421L8.04749 39.6053L10.4222 41.9737L15.6992 39.3421L16.3588 39.7368C17.81 40.5263 19.2612 41.1842 20.8443 41.5789L21.504 41.7105L23.3509 47.3684Z" fill="#2C2B2B"/>
</svg> 



