<svg width="43" height="43" viewBox="0 0 43 43" fill="none" xmlns="http://www.w3.org/2000/svg">
  <path d="M37.6562 11.1205H33.977L24.95 20.1436C25.2609 20.936 25.2895 21.8112 25.031 22.6222C24.7724 23.4332 24.2425 24.1304 23.5304 24.5966C22.8183 25.0628 21.9673 25.2696 21.1206 25.1822C20.2739 25.0948 19.4832 24.7185 18.8813 24.1167C18.2794 23.5148 17.9031 22.724 17.8157 21.8773C17.7283 21.0307 17.9351 20.1797 18.4013 19.4676C18.8676 18.7554 19.5648 18.2255 20.3758 17.967C21.1867 17.7085 22.062 17.7371 22.8544 18.048L31.8794 9.02291V5.3437C31.8796 4.85138 32.0751 4.37925 32.4231 4.03096L35.8433 0.61073C35.9066 0.547026 35.9861 0.501772 36.0732 0.479827C36.1602 0.457883 36.2516 0.460079 36.3376 0.486178C36.5135 0.53758 36.644 0.683879 36.6796 0.863787L37.589 5.41289L42.1361 6.32232C42.3141 6.3579 42.4604 6.48838 42.5118 6.66434C42.5377 6.74981 42.5401 6.84072 42.5185 6.9274C42.4969 7.01408 42.4522 7.0933 42.3892 7.15661L38.967 10.5768C38.6192 10.9243 38.1479 11.1198 37.6562 11.1205Z" fill="white"/>
  <path d="M2.96552 21.5C2.96552 26.4157 4.91825 31.13 8.39414 34.6059C11.87 38.0818 16.5843 40.0345 21.5 40.0345C23.934 40.0345 26.3441 39.5551 28.5928 38.6236C30.8415 37.6922 32.8848 36.327 34.6059 34.6059C36.3269 32.8848 37.6922 30.8416 38.6236 28.5928C39.5551 26.3441 40.0345 23.934 40.0345 21.5C40.0345 19.7247 39.7854 18.0086 39.3208 16.3855C39.2284 16.0128 39.2842 15.6188 39.4765 15.2865C39.6687 14.9541 39.9824 14.7093 40.3515 14.6035C40.7206 14.4977 41.1163 14.5392 41.4554 14.7193C41.7945 14.8994 42.0506 15.204 42.1697 15.569C42.7114 17.455 43 19.4439 43 21.5C43 33.3739 33.3739 43 21.5 43C9.62607 43 0 33.3739 0 21.5C0 9.62608 9.62607 1.04423e-05 21.5 1.04423e-05C23.5067 -0.00196657 25.5015 0.276792 27.431 0.828378C27.6192 0.881153 27.795 0.970594 27.9485 1.09156C28.1019 1.21252 28.23 1.36262 28.3252 1.53324C28.4205 1.70385 28.4811 1.8916 28.5035 2.08571C28.5259 2.27982 28.5098 2.47644 28.456 2.66429C28.4022 2.85214 28.3118 3.0275 28.19 3.18029C28.0682 3.33308 27.9174 3.4603 27.7463 3.55461C27.5751 3.64893 27.3871 3.7085 27.1928 3.72988C26.9986 3.75127 26.8021 3.73405 26.6145 3.67923C24.9512 3.20446 23.2297 2.96424 21.5 2.96553C16.5843 2.96553 11.87 4.91826 8.39414 8.39415C4.91825 11.87 2.96552 16.5844 2.96552 21.5Z" fill="white"/>
  <path d="M11.862 21.4995C11.8675 22.8089 12.1399 24.1035 12.6624 25.3042C13.1849 26.5048 13.9467 27.5864 14.9012 28.4828C15.8556 29.3792 16.9828 30.0717 18.2138 30.518C19.4449 30.9642 20.754 31.1549 22.0612 31.0784C23.3684 31.0018 24.6462 30.6597 25.8168 30.0728C26.9873 29.4859 28.026 28.6666 28.8693 27.6649C29.7126 26.6632 30.3429 25.5001 30.7218 24.2466C31.1006 22.9932 31.22 21.6757 31.0726 20.3746C31.0311 20.1111 31.0616 19.8413 31.161 19.5937C31.2604 19.3461 31.4248 19.13 31.637 18.9683C31.8491 18.8066 32.1011 18.7053 32.3661 18.6751C32.6312 18.645 32.8995 18.6871 33.1426 18.7969C33.6388 19.0184 33.9729 19.4909 34.0164 20.0326C34.3234 22.6328 33.8126 25.2641 32.5552 27.5607C31.2977 29.8573 29.356 31.7051 26.9999 32.8473C24.6439 33.9894 21.9905 34.3692 19.4086 33.9338C16.8268 33.4984 14.4447 32.2695 12.5935 30.4178C10.7428 28.5682 9.51356 26.1885 9.07625 23.6087C8.63893 21.029 9.01522 18.3771 10.1529 16.0209C11.2906 13.6647 13.1334 11.7209 15.4255 10.4591C17.7177 9.19728 20.3457 8.68004 22.9451 8.97911C23.1416 8.99734 23.3325 9.05461 23.5066 9.14758C23.6807 9.24054 23.8345 9.36732 23.9589 9.52048C24.0834 9.67365 24.176 9.85011 24.2313 10.0395C24.2867 10.229 24.3037 10.4275 24.2813 10.6236C24.259 10.8197 24.1977 11.0093 24.1011 11.1814C24.0045 11.3535 23.8745 11.5046 23.7187 11.6257C23.563 11.7469 23.3846 11.8358 23.194 11.8872C23.0035 11.9385 22.8046 11.9514 22.609 11.9249C21.2588 11.7687 19.8908 11.8999 18.5948 12.3098C17.2989 12.7197 16.1043 13.3991 15.0894 14.3033C14.0745 15.2074 13.2623 16.316 12.7061 17.5562C12.1499 18.7965 11.8622 20.1403 11.862 21.4995Z" fill="white"/>
</svg>