<svg width="237" height="255" viewBox="0 0 237 255" fill="none" xmlns="http://www.w3.org/2000/svg">
<path d="M237.001 127.288C237.001 197.355 184.023 254.155 118.67 254.155C53.3177 254.155 0.338989 197.355 0.338989 127.288L72.1106 127.288C72.1106 154.857 92.956 177.206 118.67 177.206C144.384 177.206 165.23 154.857 165.23 127.288L237.001 127.288Z" fill="#E5F0F7"/>
<path d="M237.002 0.421143C237.002 70.4877 184.023 127.288 118.67 127.288C53.3178 127.288 0.33905 70.4877 0.33905 0.421143L72.1106 0.421143C72.1106 27.9902 92.9561 50.3393 118.67 50.3393C144.384 50.3393 165.23 27.9902 165.23 0.421143L237.002 0.421143Z" fill="#E5F0F7"/>
</svg>
