<svg width="56" height="57" viewBox="0 0 56 57" fill="none" xmlns="http://www.w3.org/2000/svg">
<path d="M49.0406 14.883H44.249L32.4929 26.634C32.8978 27.6659 32.935 28.8058 32.5983 29.8619C32.2616 30.9181 31.5715 31.8261 30.6441 32.4333C29.7167 33.0405 28.6084 33.3098 27.5058 33.1959C26.4031 33.0821 25.3733 32.5921 24.5895 31.8082C23.8056 31.0244 23.3156 29.9946 23.2018 28.8919C23.0879 27.7892 23.3572 26.681 23.9644 25.7536C24.5716 24.8261 25.4796 24.1361 26.5357 23.7994C27.5919 23.4627 28.7318 23.4999 29.7637 23.9048L41.5172 12.1513V7.35971C41.5175 6.71855 41.7721 6.10369 42.2253 5.6501L46.6795 1.19585C46.762 1.11289 46.8654 1.05395 46.9789 1.02537C47.0923 0.996794 47.2113 0.999654 47.3232 1.03364C47.5524 1.10059 47.7223 1.29111 47.7686 1.52541L48.953 7.44983L54.8749 8.63419C55.1066 8.68054 55.2971 8.85047 55.364 9.07962C55.3979 9.19093 55.4009 9.30933 55.3728 9.42221C55.3447 9.5351 55.2865 9.63826 55.2044 9.72072L50.7476 14.175C50.2946 14.6275 49.6808 14.8821 49.0406 14.883Z" fill="white"/>
<path d="M49.0406 14.883H44.249L32.4929 26.634C32.8978 27.6659 32.935 28.8058 32.5983 29.8619C32.2616 30.9181 31.5715 31.8261 30.6441 32.4333C29.7167 33.0405 28.6084 33.3098 27.5058 33.1959C26.4031 33.0821 25.3733 32.5921 24.5895 31.8082C23.8056 31.0244 23.3156 29.9946 23.2018 28.8919C23.0879 27.7892 23.3572 26.681 23.9644 25.7536C24.5716 24.8261 25.4796 24.1361 26.5357 23.7994C27.5919 23.4627 28.7318 23.4999 29.7637 23.9048L41.5172 12.1513V7.35971C41.5175 6.71855 41.7721 6.10369 42.2253 5.6501L46.6795 1.19585C46.762 1.11289 46.8654 1.05395 46.9789 1.02537C47.0923 0.996794 47.2113 0.999654 47.3232 1.03364C47.5524 1.10059 47.7223 1.29111 47.7686 1.52541L48.953 7.44983L54.8749 8.63419C55.1066 8.68054 55.2971 8.85047 55.364 9.07962C55.3979 9.19093 55.4009 9.30933 55.3728 9.42221C55.3447 9.5351 55.2865 9.63826 55.2044 9.72072L50.7476 14.175C50.2946 14.6275 49.6808 14.8821 49.0406 14.883Z" stroke="white"/>
<path d="M3.86207 28.4004C3.86207 34.8022 6.40517 40.9418 10.9319 45.4685C15.4586 49.9952 21.5982 52.5383 28 52.5383C31.1698 52.5383 34.3086 51.914 37.2372 50.701C40.1657 49.4879 42.8267 47.7099 45.0681 45.4685C47.3095 43.2271 49.0875 40.5661 50.3005 37.6376C51.5136 34.709 52.1379 31.5702 52.1379 28.4004C52.1379 26.0883 51.8135 23.8535 51.2085 21.7396C51.0882 21.2543 51.1609 20.7412 51.4112 20.3083C51.6616 19.8755 52.0701 19.5566 52.5508 19.4189C53.0315 19.2811 53.5468 19.3352 53.9885 19.5697C54.4301 19.8042 54.7635 20.2009 54.9186 20.6763C55.6241 23.1325 56 25.7227 56 28.4004C56 43.8641 43.4637 56.4004 28 56.4004C12.5363 56.4004 0 43.8641 0 28.4004C0 12.9367 12.5363 0.400404 28 0.400404C30.6133 0.39783 33.2112 0.760864 35.7241 1.47921C35.9692 1.54794 36.1982 1.66442 36.398 1.82195C36.5979 1.97949 36.7646 2.17497 36.8887 2.39716C37.0127 2.61935 37.0916 2.86387 37.1208 3.11666C37.1501 3.36945 37.1291 3.62553 37.059 3.87016C36.9889 4.1148 36.8712 4.34318 36.7126 4.54216C36.5539 4.74115 36.3576 4.90682 36.1347 5.02966C35.9118 5.15249 35.6669 5.23006 35.4139 5.25791C35.161 5.28576 34.905 5.26334 34.6608 5.19194C32.4946 4.57365 30.2527 4.2608 28 4.26247C21.5982 4.26247 15.4586 6.80557 10.9319 11.3323C6.40517 15.859 3.86207 21.9986 3.86207 28.4004Z" fill="white"/>
<path d="M3.86207 28.4004C3.86207 34.8022 6.40517 40.9418 10.9319 45.4685C15.4586 49.9952 21.5982 52.5383 28 52.5383C31.1698 52.5383 34.3086 51.914 37.2372 50.701C40.1657 49.4879 42.8267 47.7099 45.0681 45.4685C47.3095 43.2271 49.0875 40.5661 50.3005 37.6376C51.5136 34.709 52.1379 31.5702 52.1379 28.4004C52.1379 26.0883 51.8135 23.8535 51.2085 21.7396C51.0882 21.2543 51.1609 20.7412 51.4112 20.3083C51.6616 19.8755 52.0701 19.5566 52.5508 19.4189C53.0315 19.2811 53.5468 19.3352 53.9885 19.5697C54.4301 19.8042 54.7635 20.2009 54.9186 20.6763C55.6241 23.1325 56 25.7227 56 28.4004C56 43.8641 43.4637 56.4004 28 56.4004C12.5363 56.4004 0 43.8641 0 28.4004C0 12.9367 12.5363 0.400404 28 0.400404C30.6133 0.39783 33.2112 0.760864 35.7241 1.47921C35.9692 1.54794 36.1982 1.66442 36.398 1.82195C36.5979 1.97949 36.7646 2.17497 36.8887 2.39716C37.0127 2.61935 37.0916 2.86387 37.1208 3.11666C37.1501 3.36945 37.1291 3.62553 37.059 3.87016C36.9889 4.1148 36.8712 4.34318 36.7126 4.54216C36.5539 4.74115 36.3576 4.90682 36.1347 5.02966C35.9118 5.15249 35.6669 5.23006 35.4139 5.25791C35.161 5.28576 34.905 5.26334 34.6608 5.19194C32.4946 4.57365 30.2527 4.2608 28 4.26247C21.5982 4.26247 15.4586 6.80557 10.9319 11.3323C6.40517 15.859 3.86207 21.9986 3.86207 28.4004Z" stroke="white"/>
<path d="M15.4482 28.3996C15.4554 30.1049 15.8101 31.7908 16.4906 33.3545C17.1711 34.9181 18.1632 36.3266 19.4062 37.4941C20.6493 38.6615 22.1172 39.5634 23.7204 40.1446C25.3236 40.7257 27.0285 40.9741 28.7309 40.8744C30.4333 40.7747 32.0975 40.3291 33.6219 39.5648C35.1463 38.8004 36.499 37.7334 37.5973 36.4289C38.6955 35.1243 39.5164 33.6096 40.0098 31.9772C40.5031 30.3449 40.6586 28.629 40.4667 26.9346C40.4127 26.5914 40.4524 26.24 40.5818 25.9176C40.7112 25.5952 40.9254 25.3137 41.2017 25.1032C41.478 24.8926 41.8061 24.7606 42.1513 24.7213C42.4965 24.682 42.8459 24.7368 43.1624 24.88C43.8087 25.1683 44.2438 25.7837 44.3005 26.4891C44.7002 29.8755 44.0351 33.3023 42.3975 36.2932C40.7598 39.2842 38.2311 41.6906 35.1627 43.1781C32.0944 44.6655 28.6388 45.1601 25.2764 44.5931C21.914 44.026 18.8117 42.4256 16.4009 40.0141C13.9907 37.6053 12.3898 34.5061 11.8203 31.1465C11.2508 27.7868 11.7408 24.3332 13.2225 21.2646C14.7041 18.1961 17.104 15.6646 20.0891 14.0213C23.0743 12.3781 26.4968 11.7045 29.8821 12.0939C30.138 12.1177 30.3866 12.1923 30.6133 12.3133C30.84 12.4344 31.0403 12.5995 31.2024 12.799C31.3644 12.9984 31.4851 13.2283 31.5572 13.475C31.6293 13.7216 31.6514 13.9802 31.6223 14.2356C31.5931 14.491 31.5133 14.7379 31.3875 14.962C31.2617 15.1861 31.0924 15.3829 30.8895 15.5407C30.6867 15.6986 30.4544 15.8143 30.2062 15.8812C29.9581 15.9481 29.6991 15.9648 29.4444 15.9302C27.6859 15.7269 25.9044 15.8978 24.2166 16.4316C22.5288 16.9655 20.973 17.8502 19.6513 19.0277C18.3296 20.2052 17.2719 21.649 16.5475 23.2641C15.8231 24.8793 15.4485 26.6294 15.4482 28.3996Z" fill="white"/>
<path d="M15.4482 28.3996C15.4554 30.1049 15.8101 31.7908 16.4906 33.3545C17.1711 34.9181 18.1632 36.3266 19.4062 37.4941C20.6493 38.6615 22.1172 39.5634 23.7204 40.1446C25.3236 40.7257 27.0285 40.9741 28.7309 40.8744C30.4333 40.7747 32.0975 40.3291 33.6219 39.5648C35.1463 38.8004 36.499 37.7334 37.5973 36.4289C38.6955 35.1243 39.5164 33.6096 40.0098 31.9772C40.5031 30.3449 40.6586 28.629 40.4667 26.9346C40.4127 26.5914 40.4524 26.24 40.5818 25.9176C40.7112 25.5952 40.9254 25.3137 41.2017 25.1032C41.478 24.8926 41.8061 24.7606 42.1513 24.7213C42.4965 24.682 42.8459 24.7368 43.1624 24.88C43.8087 25.1683 44.2438 25.7837 44.3005 26.4891C44.7002 29.8755 44.0351 33.3023 42.3975 36.2932C40.7598 39.2842 38.2311 41.6906 35.1627 43.1781C32.0944 44.6655 28.6388 45.1601 25.2764 44.5931C21.914 44.026 18.8117 42.4256 16.4009 40.0141C13.9907 37.6053 12.3898 34.5061 11.8203 31.1465C11.2508 27.7868 11.7408 24.3332 13.2225 21.2646C14.7041 18.1961 17.104 15.6646 20.0891 14.0213C23.0743 12.3781 26.4968 11.7045 29.8821 12.0939C30.138 12.1177 30.3866 12.1923 30.6133 12.3133C30.84 12.4344 31.0403 12.5995 31.2024 12.799C31.3644 12.9984 31.4851 13.2283 31.5572 13.475C31.6293 13.7216 31.6514 13.9802 31.6223 14.2356C31.5931 14.491 31.5133 14.7379 31.3875 14.962C31.2617 15.1861 31.0924 15.3829 30.8895 15.5407C30.6867 15.6986 30.4544 15.8143 30.2062 15.8812C29.9581 15.9481 29.6991 15.9648 29.4444 15.9302C27.6859 15.7269 25.9044 15.8978 24.2166 16.4316C22.5288 16.9655 20.973 17.8502 19.6513 19.0277C18.3296 20.2052 17.2719 21.649 16.5475 23.2641C15.8231 24.8793 15.4485 26.6294 15.4482 28.3996Z" stroke="white"/>
</svg>
