<svg width="67" height="66" viewBox="0 0 67 66" fill="none" xmlns="http://www.w3.org/2000/svg">
<path d="M33.4994 47.862C25.1881 47.862 18.5391 41.213 18.5391 32.9017C18.5391 24.5904 25.1881 17.9414 33.4994 17.9414C41.8107 17.9414 48.4597 24.5904 48.4597 32.9017C48.4597 41.213 41.8107 47.862 33.4994 47.862ZM33.4994 21.2659C27.0166 21.2659 21.8636 26.4189 21.8636 32.9017C21.8636 39.3845 27.0166 44.5375 33.4994 44.5375C39.9822 44.5375 45.1352 39.3845 45.1352 32.9017C45.1352 26.4189 39.9822 21.2659 33.4994 21.2659Z" fill="white" stroke="white" stroke-width="0.35"/>
<path d="M38.2164 65.4004H28.9551L26.3826 57.532C24.6675 57.0188 22.9525 56.3346 21.409 55.4793L13.8628 59.2425L7.34565 52.7425L11.1187 45.2162C10.2612 43.6767 9.5752 41.9662 9.06069 40.2557L1 37.5188V28.282L8.88918 25.7162C9.40369 24.0057 10.0897 22.2951 10.9472 20.7557L7.17414 13.2293L13.6913 6.72934L21.2375 10.4925C22.781 9.63723 24.496 8.95302 26.2111 8.43986L28.9551 0.400391H38.2164L40.7889 8.26881C42.504 8.78197 44.219 9.46618 45.7625 10.3214L53.3087 6.55829L59.8259 13.0583L56.0528 20.5846C56.9103 22.1241 57.5963 23.8346 58.1108 25.5451L66 28.1109V37.3478L58.1108 39.9135C57.5963 41.6241 56.9103 43.3346 56.0528 44.8741L59.8259 52.4004L53.3087 58.9004L45.7625 55.1372C44.219 55.9925 42.504 56.6767 40.7889 57.1899L38.2164 65.4004ZM31.3562 61.9793H35.8153L38.2164 54.6241L39.0739 54.453C41.1319 53.9399 43.0185 53.0846 44.905 52.0583L45.7625 51.5451L52.6227 54.9662L55.7098 51.8872L52.2797 45.0451L52.7942 44.1899C53.8232 42.4793 54.6807 40.4267 55.1952 38.3741L55.3668 37.5188L62.7414 35.1241V30.6767L55.3668 28.282L55.1952 27.4267C54.6807 25.3741 53.8232 23.4925 52.7942 21.6109L52.2797 20.7557L55.7098 13.9135L52.6227 10.8346L45.7625 14.2557L44.905 13.7425C43.0185 12.7162 41.1319 11.8609 39.0739 11.3478L38.2164 11.1767L35.8153 3.82144H31.3562L28.9551 11.1767L28.0976 11.3478C26.0396 11.8609 24.153 12.7162 22.2665 13.7425L21.409 14.2557L14.5488 10.8346L11.4617 13.9135L14.8918 20.7557L14.3773 21.6109C13.3483 23.3214 12.4908 25.3741 11.9763 27.4267L11.8047 28.282L4.43008 30.6767V35.1241L11.8047 37.5188L11.9763 38.3741C12.4908 40.4267 13.3483 42.3083 14.3773 44.1899L14.8918 45.0451L11.4617 51.8872L14.5488 54.9662L21.409 51.5451L22.2665 52.0583C24.153 53.0846 26.0396 53.9399 28.0976 54.453L28.9551 54.6241L31.3562 61.9793Z" fill="white" stroke="white" stroke-width="0.35"/>
</svg>
