<svg width="42" height="66" viewBox="0 0 42 66" fill="none" xmlns="http://www.w3.org/2000/svg">
<path fill-rule="evenodd" clip-rule="evenodd" d="M8.74024 8.08957C5.95515 10.6546 4 14.6722 4 20.5892C4 27.2328 4.91421 28.8121 5.43236 29.5097C5.71613 29.8917 5.9356 30.109 6.31183 30.4815L6.31185 30.4815L6.31187 30.4816L6.31188 30.4816C6.56159 30.7288 6.88036 31.0444 7.3328 31.522C8.33029 32.5747 9.41847 33.9134 10.4408 35.958C12.1429 39.3622 13.0957 42.0575 13.628 44.0415H27.5504C28.0827 42.0575 29.0355 39.3622 30.7376 35.958C31.7599 33.9134 32.8481 32.5747 33.8456 31.522C34.2979 31.0446 34.6166 30.729 34.8663 30.4818L34.8665 30.4816L34.8665 30.4816C35.2428 30.109 35.4623 29.8917 35.746 29.5097C36.2642 28.8121 37.1784 27.2328 37.1784 20.5892C37.1784 14.6722 35.2232 10.6546 32.4382 8.08957C29.5992 5.47492 25.4926 4 20.5892 4C15.6858 4 11.5792 5.47492 8.74024 8.08957ZM0 20.5892C0 6.86307 9.2181 0 20.5892 0C31.9603 0 41.1784 6.86307 41.1784 20.5892C41.1784 29.8323 39.5297 31.4802 37.4673 33.5417C36.467 34.5416 35.3694 35.6387 34.3153 37.7469C31.9498 42.4779 31.215 45.5783 30.9867 47.048C30.9019 47.5937 30.4361 48.0415 29.8838 48.0415H11.2946C10.7423 48.0415 10.2765 47.5937 10.1917 47.048C9.96344 45.5783 9.22859 42.4779 6.86307 37.7469C5.80899 35.6387 4.71137 34.5416 3.71108 33.5417C1.64865 31.4802 0 29.8323 0 20.5892ZM10.2969 51.9727C10.2969 51.6965 10.5207 51.4727 10.7969 51.4727H30.3861C30.6622 51.4727 30.8861 51.6965 30.8861 51.9727V61.5083C30.8861 61.6707 30.8094 61.8214 30.675 61.9126C29.8269 62.4887 26.591 64.6084 24.0759 65.1868C24.0404 65.195 24.0039 65.1988 23.9674 65.1988H17.2148C17.1783 65.1988 17.1426 65.195 17.107 65.1868C14.5919 64.6084 11.3561 62.4887 10.5079 61.9126C10.3736 61.8214 10.2969 61.6707 10.2969 61.5083V51.9727ZM15.7188 18.8738C15.7188 18.5424 15.9444 17.6848 16.5673 16.9062C17.1396 16.1909 17.8938 15.7266 18.866 15.7266C19.9706 15.7266 20.866 14.8311 20.866 13.7266C20.866 12.622 19.9706 11.7266 18.866 11.7266C16.4068 11.7266 14.5874 12.978 13.4438 14.4074C12.351 15.7734 11.7188 17.4895 11.7188 18.8738C11.7188 19.9784 12.6142 20.8738 13.7188 20.8738C14.8233 20.8738 15.7188 19.9784 15.7188 18.8738Z" fill="white"/>
</svg>
