<svg width="67" height="67" viewBox="0 0 67 67" fill="none" xmlns="http://www.w3.org/2000/svg">
<path d="M33.4994 48.4617C25.1881 48.4617 18.5391 41.8126 18.5391 33.5013C18.5391 25.19 25.1881 18.541 33.4994 18.541C41.8107 18.541 48.4597 25.19 48.4597 33.5013C48.4597 41.8126 41.8107 48.4617 33.4994 48.4617ZM33.4994 21.8655C27.0166 21.8655 21.8636 27.0185 21.8636 33.5013C21.8636 39.9841 27.0166 45.1371 33.4994 45.1371C39.9822 45.1371 45.1352 39.9841 45.1352 33.5013C45.1352 27.0185 39.9822 21.8655 33.4994 21.8655Z" fill="#2C2B2B" stroke="#2C2B2B" stroke-width="0.35"/>
<path d="M38.2164 66H28.9551L26.3826 58.1316C24.6675 57.6184 22.9525 56.9342 21.409 56.0789L13.8628 59.8421L7.34565 53.3421L11.1187 45.8158C10.2612 44.2763 9.5752 42.5658 9.06069 40.8553L1 38.1184V28.8816L8.88918 26.3158C9.40369 24.6053 10.0897 22.8947 10.9472 21.3553L7.17414 13.8289L13.6913 7.32895L21.2375 11.0921C22.781 10.2368 24.496 9.55263 26.2111 9.03947L28.9551 1H38.2164L40.7889 8.86842C42.504 9.38158 44.219 10.0658 45.7625 10.9211L53.3087 7.1579L59.8259 13.6579L56.0528 21.1842C56.9103 22.7237 57.5963 24.4342 58.1108 26.1447L66 28.7105V37.9474L58.1108 40.5132C57.5963 42.2237 56.9103 43.9342 56.0528 45.4737L59.8259 53L53.3087 59.5L45.7625 55.7368C44.219 56.5921 42.504 57.2763 40.7889 57.7895L38.2164 66ZM31.3562 62.5789H35.8153L38.2164 55.2237L39.0739 55.0526C41.1319 54.5395 43.0185 53.6842 44.905 52.6579L45.7625 52.1447L52.6227 55.5658L55.7098 52.4868L52.2797 45.6447L52.7942 44.7895C53.8232 43.0789 54.6807 41.0263 55.1952 38.9737L55.3668 38.1184L62.7414 35.7237V31.2763L55.3668 28.8816L55.1952 28.0263C54.6807 25.9737 53.8232 24.0921 52.7942 22.2105L52.2797 21.3553L55.7098 14.5132L52.6227 11.4342L45.7625 14.8553L44.905 14.3421C43.0185 13.3158 41.1319 12.4605 39.0739 11.9474L38.2164 11.7763L35.8153 4.42105H31.3562L28.9551 11.7763L28.0976 11.9474C26.0396 12.4605 24.153 13.3158 22.2665 14.3421L21.409 14.8553L14.5488 11.4342L11.4617 14.5132L14.8918 21.3553L14.3773 22.2105C13.3483 23.9211 12.4908 25.9737 11.9763 28.0263L11.8047 28.8816L4.43008 31.2763V35.7237L11.8047 38.1184L11.9763 38.9737C12.4908 41.0263 13.3483 42.9079 14.3773 44.7895L14.8918 45.6447L11.4617 52.4868L14.5488 55.5658L21.409 52.1447L22.2665 52.6579C24.153 53.6842 26.0396 54.5395 28.0976 55.0526L28.9551 55.2237L31.3562 62.5789Z" fill="#2C2B2B" stroke="#2C2B2B" stroke-width="0.35"/>
</svg>
