<svg width="167" height="27" viewBox="0 0 167 27" fill="none" xmlns="http://www.w3.org/2000/svg">
<path d="M7.56006 21.3081C5.41339 21.3081 3.70539 20.7294 2.43606 19.5721C1.18539 18.3961 0.560059 16.8187 0.560059 14.8401H4.76006C4.76006 15.6987 5.01206 16.3894 5.51606 16.9121C6.02006 17.4161 6.70139 17.6681 7.56006 17.6681C8.41873 17.6681 9.10006 17.4254 9.60406 16.9401C10.1081 16.4361 10.3601 15.7547 10.3601 14.8961V4.48006H5.74006V0.560059H14.5601V14.8961C14.5601 16.8747 13.9347 18.4427 12.6841 19.6001C11.4334 20.7387 9.72539 21.3081 7.56006 21.3081Z" fill="black"/>
<path d="M23.5091 21.2801C22.1465 21.2801 20.9611 21.0281 19.9531 20.5241C18.9451 20.0014 18.1611 19.2827 17.6011 18.3681C17.0598 17.4347 16.7891 16.3521 16.7891 15.1201V11.4801C16.7891 10.2481 17.0598 9.17473 17.6011 8.26006C18.1611 7.32673 18.9451 6.60806 19.9531 6.10406C20.9611 5.58139 22.1465 5.32006 23.5091 5.32006C24.8905 5.32006 26.0758 5.58139 27.0651 6.10406C28.0731 6.60806 28.8478 7.32673 29.3891 8.26006C29.9491 9.17473 30.2291 10.2481 30.2291 11.4801V15.1201C30.2291 16.3521 29.9491 17.4347 29.3891 18.3681C28.8478 19.2827 28.0731 20.0014 27.0651 20.5241C26.0758 21.0281 24.8905 21.2801 23.5091 21.2801ZM23.5091 17.6401C24.3305 17.6401 24.9558 17.4254 25.3851 16.9961C25.8145 16.5481 26.0291 15.9227 26.0291 15.1201V11.4801C26.0291 10.6587 25.8145 10.0334 25.3851 9.60406C24.9558 9.17473 24.3305 8.96006 23.5091 8.96006C22.7065 8.96006 22.0811 9.17473 21.6331 9.60406C21.2038 10.0334 20.9891 10.6587 20.9891 11.4801V15.1201C20.9891 15.9227 21.2038 16.5481 21.6331 16.9961C22.0811 17.4254 22.7065 17.6401 23.5091 17.6401Z" fill="black"/>
<path d="M38.6182 21.2801C36.5462 21.2801 34.9222 20.7201 33.7462 19.6001C32.5888 18.4801 32.0102 16.9494 32.0102 15.0081V5.60006H36.2102V14.9801C36.2102 15.8387 36.4155 16.5014 36.8262 16.9681C37.2368 17.4161 37.8342 17.6401 38.6182 17.6401C39.3835 17.6401 39.9715 17.4161 40.3822 16.9681C40.8115 16.5014 41.0262 15.8387 41.0262 14.9801V5.60006H45.2262V15.0081C45.2262 16.9681 44.6382 18.5081 43.4622 19.6281C42.2862 20.7294 40.6715 21.2801 38.6182 21.2801Z" fill="black"/>
<path d="M47.6232 21.0001V5.60006H51.5432V8.54006H52.6072L51.4032 10.3321C51.4032 8.67073 51.7859 7.42006 52.5512 6.58006C53.3166 5.74006 54.4366 5.32006 55.9112 5.32006C57.6099 5.32006 58.9259 5.83339 59.8592 6.86006C60.8112 7.88673 61.2872 9.33339 61.2872 11.2001V12.4601H56.8072V11.4801C56.8072 10.6401 56.5739 9.98673 56.1072 9.52006C55.6592 9.05339 55.0526 8.82006 54.2872 8.82006C53.4846 8.82006 52.8686 9.05339 52.4392 9.52006C52.0286 9.98673 51.8232 10.6401 51.8232 11.4801V21.0001H47.6232Z" fill="black"/>
<path d="M62.2843 21.0001V5.60006H66.3443V8.54006H67.5763L66.3443 9.52006C66.3443 8.21339 66.7176 7.18672 67.4643 6.44006C68.211 5.69339 69.219 5.32006 70.4883 5.32006C71.9816 5.32006 73.1763 5.84273 74.0723 6.88806C74.987 7.93339 75.4443 9.32406 75.4443 11.0601V21.0001H71.2443V11.4801C71.2443 10.6774 71.0296 10.0614 70.6003 9.63206C70.1896 9.18406 69.6016 8.96006 68.8363 8.96006C68.0896 8.96006 67.511 9.18406 67.1003 9.63206C66.6896 10.0614 66.4843 10.6774 66.4843 11.4801V21.0001H62.2843Z" fill="black"/>
<path d="M83.9734 21.2801C82.6107 21.2801 81.416 21.0281 80.3894 20.5241C79.3814 20.0014 78.5974 19.2827 78.0374 18.3681C77.496 17.4347 77.2254 16.3521 77.2254 15.1201V11.4801C77.2254 10.2481 77.496 9.17473 78.0374 8.26006C78.5974 7.32673 79.3814 6.60806 80.3894 6.10406C81.416 5.58139 82.6107 5.32006 83.9734 5.32006C85.336 5.32006 86.512 5.58139 87.5014 6.10406C88.5094 6.60806 89.284 7.32673 89.8254 8.26006C90.3854 9.17473 90.6654 10.2481 90.6654 11.4801V14.2801H81.2294V15.1201C81.2294 16.0907 81.4627 16.8281 81.9294 17.3321C82.396 17.8174 83.096 18.0601 84.0294 18.0601C84.6827 18.0601 85.2054 17.9481 85.5974 17.7241C86.008 17.5001 86.2787 17.1921 86.4094 16.8001H90.5254C90.1894 18.1441 89.424 19.2267 88.2294 20.0481C87.0534 20.8694 85.6347 21.2801 83.9734 21.2801ZM86.6614 12.1241V11.4241C86.6614 10.4721 86.4374 9.74406 85.9894 9.24006C85.56 8.73606 84.888 8.48406 83.9734 8.48406C83.0587 8.48406 82.368 8.74539 81.9014 9.26806C81.4534 9.79073 81.2294 10.5281 81.2294 11.4801V11.9001L86.9414 11.8441L86.6614 12.1241Z" fill="black"/>
<path d="M95.0504 26.0401L97.1504 20.2441L91.3824 5.60006H95.9464L98.2704 12.3201C98.4384 12.8241 98.6064 13.4401 98.7744 14.1681C98.9611 14.8774 99.1011 15.4561 99.1944 15.9041C99.2878 15.4561 99.4184 14.8774 99.5864 14.1681C99.7731 13.4401 99.9504 12.8241 100.118 12.3201L102.358 5.60006H106.726L99.4464 26.0401H95.0504Z" fill="black"/>
<path d="M113.323 21.3081L109.095 6.38406C108.815 5.39473 108.591 4.62006 108.423 4.06006C108.274 3.48139 108.171 2.98672 108.115 2.57606C107.854 2.59473 107.593 2.60406 107.331 2.60406C107.07 2.60406 106.809 2.61339 106.547 2.63206L106.603 1.40006H113.323L113.267 2.32406C112.185 2.38006 111.522 2.62272 111.279 3.05206C111.037 3.48139 111.037 4.25606 111.279 5.37606L113.071 11.9001C113.295 12.7401 113.519 13.5427 113.743 14.3081C113.967 15.0547 114.201 15.8667 114.443 16.7441H114.499C114.611 16.4267 114.733 16.0907 114.863 15.7361C115.013 15.3627 115.153 14.9987 115.283 14.6441C115.414 14.2894 115.535 13.9627 115.647 13.6641C115.759 13.3467 115.853 13.0947 115.927 12.9081L120.183 1.34406H120.939L123.851 11.9001C124.094 12.7401 124.327 13.5801 124.551 14.4201C124.794 15.2601 125.027 16.1187 125.251 16.9961H125.307C125.513 16.4547 125.737 15.8761 125.979 15.2601C126.241 14.6254 126.493 13.9814 126.735 13.3281C127.239 11.9281 127.669 10.7614 128.023 9.82806C128.378 8.89472 128.667 8.12006 128.891 7.50406C129.134 6.88806 129.339 6.35606 129.507 5.90806C129.694 5.46006 129.871 5.02139 130.039 4.59206C130.151 4.27472 130.291 3.93872 130.459 3.58406C130.627 3.21073 130.805 2.86539 130.992 2.54806C130.618 2.56672 130.245 2.58539 129.871 2.60406C129.498 2.60406 129.125 2.61339 128.751 2.63206L128.807 1.40006H134.492L134.436 2.32406C133.969 2.38006 133.567 2.47339 133.231 2.60406C132.914 2.71606 132.634 2.91206 132.391 3.19206C132.149 3.47206 131.897 3.87339 131.635 4.39606C131.393 4.91873 131.104 5.60939 130.768 6.46806L124.943 21.3081H124.215L121.023 10.2761C120.743 9.30539 120.519 8.51206 120.351 7.89606C120.202 7.28006 120.053 6.69206 119.903 6.13206H119.791C119.549 6.74806 119.315 7.36406 119.091 7.98006C118.867 8.59606 118.634 9.21206 118.391 9.82806L114.051 21.3081H113.323Z" fill="black"/>
<path d="M137.105 6.69206C137.889 6.69206 138.477 6.96272 138.869 7.50406C139.261 8.02672 139.457 8.72673 139.457 9.60406C139.457 10.1641 139.401 10.8081 139.289 11.5361C139.195 12.2454 139.074 13.0107 138.925 13.8321C138.775 14.6534 138.645 15.4841 138.533 16.3241C138.439 17.1454 138.393 17.9481 138.393 18.7321C138.393 19.1054 138.458 19.3947 138.589 19.6001C138.738 19.8054 138.962 19.9081 139.261 19.9081C139.578 19.9081 139.923 19.7027 140.297 19.2921C140.689 18.8814 141.025 18.1814 141.305 17.1921L142.089 17.3601C142.014 17.7521 141.883 18.1814 141.697 18.6481C141.529 19.0961 141.305 19.5254 141.025 19.9361C140.745 20.3281 140.399 20.6547 139.989 20.9161C139.597 21.1774 139.139 21.3081 138.617 21.3081C137.758 21.3081 137.123 21.0841 136.713 20.6361C136.302 20.1881 136.097 19.5347 136.097 18.6761C136.097 17.8547 136.153 17.0614 136.265 16.2961C136.377 15.5121 136.498 14.7467 136.629 14.0001C136.778 13.2347 136.909 12.4694 137.021 11.7041C137.133 10.9387 137.189 10.1547 137.189 9.35206C137.189 9.10939 137.133 8.83873 137.021 8.54006C136.927 8.24139 136.722 8.09206 136.405 8.09206C136.106 8.09206 135.761 8.29739 135.369 8.70806C134.977 9.11873 134.641 9.81873 134.361 10.8081L133.577 10.6401C133.633 10.3041 133.745 9.92139 133.913 9.49206C134.081 9.04406 134.305 8.60539 134.585 8.17606C134.883 7.74672 135.238 7.39206 135.649 7.11206C136.059 6.83206 136.545 6.69206 137.105 6.69206ZM138.701 0.644058C139.13 0.644058 139.485 0.793391 139.765 1.09206C140.045 1.37206 140.185 1.75472 140.185 2.24006C140.185 2.70672 140.035 3.08939 139.737 3.38806C139.438 3.66806 139.083 3.80806 138.673 3.80806C138.262 3.80806 137.907 3.66806 137.609 3.38806C137.329 3.08939 137.189 2.70672 137.189 2.24006C137.189 1.75472 137.338 1.37206 137.637 1.09206C137.935 0.793391 138.29 0.644058 138.701 0.644058Z" fill="black"/>
<path d="M147.779 21.3081C147.032 21.3081 146.313 21.1961 145.623 20.9721C144.932 20.7294 144.372 20.3841 143.943 19.9361C143.513 19.4881 143.299 18.9467 143.299 18.3121C143.299 17.9014 143.411 17.5747 143.635 17.3321C143.877 17.0707 144.167 16.9401 144.503 16.9401C144.876 16.9401 145.156 17.0614 145.343 17.3041C145.548 17.5467 145.651 17.8174 145.651 18.1161C145.651 18.2467 145.632 18.3867 145.595 18.5361C145.557 18.6854 145.492 18.8347 145.399 18.9841C145.548 19.3947 145.847 19.7121 146.295 19.9361C146.743 20.1601 147.219 20.2721 147.723 20.2721C148.731 20.2721 149.487 20.0387 149.991 19.5721C150.495 19.1054 150.747 18.4521 150.747 17.6121C150.747 17.1081 150.569 16.6601 150.215 16.2681C149.86 15.8761 149.412 15.5121 148.871 15.1761C148.329 14.8214 147.769 14.4761 147.191 14.1401C146.649 13.8041 146.127 13.4587 145.623 13.1041C145.137 12.7494 144.736 12.3574 144.419 11.9281C144.12 11.4987 143.971 11.0134 143.971 10.4721C143.971 9.78139 144.176 9.15606 144.587 8.59606C144.997 8.01739 145.567 7.56006 146.295 7.22406C147.023 6.86939 147.863 6.69206 148.815 6.69206C149.524 6.69206 150.187 6.80406 150.803 7.02806C151.437 7.25206 151.951 7.56939 152.343 7.98006C152.753 8.39073 152.959 8.87606 152.959 9.43606C152.959 9.82806 152.847 10.1454 152.623 10.3881C152.399 10.6121 152.119 10.7241 151.783 10.7241C151.447 10.7241 151.176 10.6121 150.971 10.3881C150.765 10.1641 150.663 9.90273 150.663 9.60406C150.663 9.45473 150.681 9.31472 150.719 9.18406C150.756 9.03473 150.821 8.88539 150.915 8.73606C150.821 8.41873 150.588 8.15739 150.215 7.95206C149.86 7.72806 149.365 7.61606 148.731 7.61606C148.32 7.61606 147.919 7.70939 147.527 7.89606C147.135 8.08273 146.808 8.34406 146.547 8.68006C146.285 8.99739 146.155 9.38006 146.155 9.82806C146.155 10.1827 146.257 10.5094 146.463 10.8081C146.687 11.1067 146.976 11.3867 147.331 11.6481C147.685 11.9094 148.068 12.1707 148.479 12.4321C149.151 12.8241 149.841 13.2441 150.551 13.6921C151.26 14.1214 151.848 14.6161 152.315 15.1761C152.8 15.7361 153.043 16.4174 153.043 17.2201C153.043 18.0041 152.819 18.7041 152.371 19.3201C151.941 19.9361 151.325 20.4214 150.523 20.7761C149.739 21.1307 148.824 21.3081 147.779 21.3081Z" fill="black"/>
<path d="M162.331 6.69206C163.003 6.69206 163.638 6.79473 164.235 7.00006C164.833 7.20539 165.318 7.54139 165.691 8.00806C166.065 8.47473 166.251 9.10939 166.251 9.91206C166.251 10.6774 165.99 11.3401 165.467 11.9001C164.945 12.4601 164.263 12.9267 163.423 13.3001C162.583 13.6547 161.687 13.9441 160.735 14.1681C159.783 14.3921 158.869 14.5507 157.991 14.6441C157.991 15.8014 158.103 16.7721 158.327 17.5561C158.57 18.3401 158.925 18.9281 159.391 19.3201C159.858 19.7121 160.455 19.9081 161.183 19.9081C161.725 19.9081 162.266 19.7867 162.807 19.5441C163.367 19.3014 163.899 18.9374 164.403 18.4521C164.907 17.9481 165.365 17.3041 165.775 16.5201L166.699 17.0521C166.177 18.0227 165.617 18.8254 165.019 19.4601C164.422 20.0947 163.769 20.5614 163.059 20.8601C162.35 21.1587 161.566 21.3081 160.707 21.3081C158.934 21.3081 157.627 20.7574 156.787 19.6561C155.947 18.5361 155.527 17.0707 155.527 15.2601C155.527 14.1774 155.667 13.1227 155.947 12.0961C156.227 11.0694 156.647 10.1547 157.207 9.35206C157.767 8.53073 158.477 7.88673 159.335 7.42006C160.194 6.93472 161.193 6.69206 162.331 6.69206ZM161.939 7.64406C161.081 7.64406 160.371 7.93339 159.811 8.51206C159.27 9.09073 158.85 9.83739 158.551 10.7521C158.271 11.6667 158.094 12.6281 158.019 13.6361C159.009 13.5054 159.951 13.2721 160.847 12.9361C161.743 12.6001 162.481 12.1707 163.059 11.6481C163.638 11.1067 163.927 10.4814 163.927 9.77206C163.927 9.17473 163.759 8.67073 163.423 8.26006C163.106 7.84939 162.611 7.64406 161.939 7.64406Z" fill="black"/>
</svg>
