<svg width="42" height="66" viewBox="0 0 42 66" fill="none" xmlns="http://www.w3.org/2000/svg">
<path fill-rule="evenodd" clip-rule="evenodd" d="M8.74024 8.68918C5.95515 11.2542 4 15.2718 4 21.1888C4 27.8324 4.91421 29.4117 5.43236 30.1093C5.71613 30.4913 5.9356 30.7086 6.31183 31.0811L6.31185 31.0812L6.31187 31.0812L6.31188 31.0812C6.56159 31.3284 6.88036 31.644 7.3328 32.1216C8.33029 33.1743 9.41847 34.513 10.4408 36.5576C12.1429 39.9618 13.0957 42.6571 13.628 44.6411H27.5504C28.0827 42.6571 29.0355 39.9618 30.7376 36.5576C31.7599 34.513 32.8481 33.1743 33.8456 32.1216C34.2979 31.6442 34.6166 31.3286 34.8663 31.0814L34.8665 31.0812L34.8665 31.0812C35.2428 30.7086 35.4623 30.4913 35.746 30.1093C36.2642 29.4117 37.1784 27.8324 37.1784 21.1888C37.1784 15.2718 35.2232 11.2542 32.4382 8.68918C29.5992 6.07452 25.4926 4.59961 20.5892 4.59961C15.6858 4.59961 11.5792 6.07452 8.74024 8.68918ZM0 21.1888C0 7.46268 9.2181 0.599609 20.5892 0.599609C31.9603 0.599609 41.1784 7.46268 41.1784 21.1888C41.1784 30.4319 39.5297 32.0799 37.4673 34.1414C36.467 35.1412 35.3694 36.2383 34.3153 38.3465C31.9498 43.0775 31.215 46.1779 30.9867 47.6476C30.9019 48.1933 30.4361 48.6411 29.8838 48.6411H11.2946C10.7423 48.6411 10.2765 48.1934 10.1917 47.6476C9.96344 46.1779 9.22859 43.0775 6.86307 38.3465C5.80899 36.2383 4.71137 35.1412 3.71108 34.1414C1.64865 32.0799 0 30.4319 0 21.1888ZM10.2969 52.5723C10.2969 52.2961 10.5207 52.0723 10.7969 52.0723H30.3861C30.6622 52.0723 30.8861 52.2961 30.8861 52.5723V62.1079C30.8861 62.2703 30.8094 62.421 30.675 62.5122C29.8269 63.0883 26.591 65.208 24.0759 65.7864C24.0404 65.7946 24.0039 65.7984 23.9674 65.7984H17.2148C17.1783 65.7984 17.1426 65.7946 17.107 65.7864C14.5919 65.208 11.3561 63.0883 10.5079 62.5122C10.3736 62.421 10.2969 62.2703 10.2969 62.1079V52.5723ZM15.7188 19.4734C15.7188 19.142 15.9444 18.2844 16.5673 17.5058C17.1396 16.7905 17.8938 16.3262 18.866 16.3262C19.9706 16.3262 20.866 15.4307 20.866 14.3262C20.866 13.2216 19.9706 12.3262 18.866 12.3262C16.4068 12.3262 14.5874 13.5776 13.4438 15.007C12.351 16.373 11.7188 18.0891 11.7188 19.4734C11.7188 20.578 12.6142 21.4734 13.7188 21.4734C14.8233 21.4734 15.7188 20.578 15.7188 19.4734Z" fill="#2C2B2B"/>
</svg>
