<svg width="56" height="56" viewBox="0 0 56 56" fill="none" xmlns="http://www.w3.org/2000/svg">
<path d="M49.0406 14.4826H44.249L32.4929 26.2336C32.8978 27.2655 32.935 28.4054 32.5983 29.4616C32.2616 30.5177 31.5715 31.4257 30.6441 32.0329C29.7167 32.6401 28.6084 32.9094 27.5058 32.7955C26.4031 32.6817 25.3733 32.1917 24.5895 31.4078C23.8056 30.624 23.3156 29.5942 23.2018 28.4915C23.0879 27.3889 23.3572 26.2806 23.9644 25.3532C24.5716 24.4258 25.4796 23.7357 26.5357 23.399C27.5919 23.0623 28.7318 23.0995 29.7637 23.5044L41.5172 11.7509V6.95932C41.5175 6.31816 41.7721 5.7033 42.2253 5.24971L46.6795 0.79546C46.762 0.712497 46.8654 0.653561 46.9789 0.624982C47.0923 0.596404 47.2113 0.599263 47.3232 0.633253C47.5524 0.700195 47.7223 0.890724 47.7686 1.12502L48.953 7.04944L54.8749 8.2338C55.1066 8.28015 55.2971 8.45008 55.364 8.67923C55.3979 8.79054 55.4009 8.90894 55.3728 9.02182C55.3447 9.13471 55.2865 9.23787 55.2044 9.32033L50.7476 13.7746C50.2946 14.2271 49.6808 14.4817 49.0406 14.4826Z" fill="#2C2B2B"/>
<path d="M49.0406 14.4826H44.249L32.4929 26.2336C32.8978 27.2655 32.935 28.4054 32.5983 29.4616C32.2616 30.5177 31.5715 31.4257 30.6441 32.0329C29.7167 32.6401 28.6084 32.9094 27.5058 32.7955C26.4031 32.6817 25.3733 32.1917 24.5895 31.4078C23.8056 30.624 23.3156 29.5942 23.2018 28.4915C23.0879 27.3889 23.3572 26.2806 23.9644 25.3532C24.5716 24.4258 25.4796 23.7357 26.5357 23.399C27.5919 23.0623 28.7318 23.0995 29.7637 23.5044L41.5172 11.7509V6.95932C41.5175 6.31816 41.7721 5.7033 42.2253 5.24971L46.6795 0.79546C46.762 0.712497 46.8654 0.653561 46.9789 0.624982C47.0923 0.596404 47.2113 0.599263 47.3232 0.633253C47.5524 0.700195 47.7223 0.890724 47.7686 1.12502L48.953 7.04944L54.8749 8.2338C55.1066 8.28015 55.2971 8.45008 55.364 8.67923C55.3979 8.79054 55.4009 8.90894 55.3728 9.02182C55.3447 9.13471 55.2865 9.23787 55.2044 9.32033L50.7476 13.7746C50.2946 14.2271 49.6808 14.4817 49.0406 14.4826Z" stroke="white"/>
<path d="M3.86207 28C3.86207 34.4018 6.40517 40.5414 10.9319 45.0681C15.4586 49.5948 21.5982 52.1379 28 52.1379C31.1698 52.1379 34.3086 51.5136 37.2372 50.3006C40.1657 49.0875 42.8267 47.3095 45.0681 45.0681C47.3095 42.8267 49.0875 40.1658 50.3005 37.2372C51.5136 34.3087 52.1379 31.1699 52.1379 28C52.1379 25.6879 51.8135 23.4531 51.2085 21.3392C51.0882 20.8539 51.1609 20.3408 51.4112 19.9079C51.6616 19.4751 52.0701 19.1562 52.5508 19.0185C53.0315 18.8807 53.5468 18.9348 53.9885 19.1693C54.4301 19.4038 54.7635 19.8005 54.9186 20.2759C55.6241 22.7322 56 25.3223 56 28C56 43.4637 43.4637 56 28 56C12.5363 56 0 43.4637 0 28C0 12.5363 12.5363 1.35993e-05 28 1.35993e-05C30.6133 -0.00256111 33.2112 0.360473 35.7241 1.07882C35.9692 1.14755 36.1982 1.26403 36.398 1.42156C36.5979 1.5791 36.7646 1.77458 36.8887 1.99677C37.0127 2.21896 37.0916 2.46348 37.1208 2.71627C37.1501 2.96906 37.1291 3.22514 37.059 3.46977C36.9889 3.71441 36.8712 3.94279 36.7126 4.14177C36.5539 4.34076 36.3576 4.50643 36.1347 4.62927C35.9118 4.7521 35.6669 4.82967 35.4139 4.85752C35.161 4.88537 34.905 4.86295 34.6608 4.79155C32.4946 4.17325 30.2527 3.86041 28 3.86208C21.5982 3.86208 15.4586 6.40518 10.9319 10.9319C6.40517 15.4587 3.86207 21.5982 3.86207 28Z" fill="#2C2B2B"/>
<path d="M3.86207 28C3.86207 34.4018 6.40517 40.5414 10.9319 45.0681C15.4586 49.5948 21.5982 52.1379 28 52.1379C31.1698 52.1379 34.3086 51.5136 37.2372 50.3006C40.1657 49.0875 42.8267 47.3095 45.0681 45.0681C47.3095 42.8267 49.0875 40.1658 50.3005 37.2372C51.5136 34.3087 52.1379 31.1699 52.1379 28C52.1379 25.6879 51.8135 23.4531 51.2085 21.3392C51.0882 20.8539 51.1609 20.3408 51.4112 19.9079C51.6616 19.4751 52.0701 19.1562 52.5508 19.0185C53.0315 18.8807 53.5468 18.9348 53.9885 19.1693C54.4301 19.4038 54.7635 19.8005 54.9186 20.2759C55.6241 22.7322 56 25.3223 56 28C56 43.4637 43.4637 56 28 56C12.5363 56 0 43.4637 0 28C0 12.5363 12.5363 1.35993e-05 28 1.35993e-05C30.6133 -0.00256111 33.2112 0.360473 35.7241 1.07882C35.9692 1.14755 36.1982 1.26403 36.398 1.42156C36.5979 1.5791 36.7646 1.77458 36.8887 1.99677C37.0127 2.21896 37.0916 2.46348 37.1208 2.71627C37.1501 2.96906 37.1291 3.22514 37.059 3.46977C36.9889 3.71441 36.8712 3.94279 36.7126 4.14177C36.5539 4.34076 36.3576 4.50643 36.1347 4.62927C35.9118 4.7521 35.6669 4.82967 35.4139 4.85752C35.161 4.88537 34.905 4.86295 34.6608 4.79155C32.4946 4.17325 30.2527 3.86041 28 3.86208C21.5982 3.86208 15.4586 6.40518 10.9319 10.9319C6.40517 15.4587 3.86207 21.5982 3.86207 28Z" stroke="white"/>
<path d="M15.4482 27.9992C15.4554 29.7045 15.8101 31.3904 16.4906 32.9541C17.1711 34.5177 18.1632 35.9263 19.4062 37.0937C20.6493 38.2611 22.1172 39.163 23.7204 39.7442C25.3236 40.3254 27.0285 40.5737 28.7309 40.474C30.4333 40.3743 32.0975 39.9287 33.6219 39.1644C35.1463 38.4 36.499 37.333 37.5973 36.0285C38.6955 34.7239 39.5164 33.2092 40.0098 31.5769C40.5031 29.9445 40.6586 28.2287 40.4667 26.5342C40.4127 26.191 40.4524 25.8396 40.5818 25.5172C40.7112 25.1948 40.9254 24.9134 41.2017 24.7028C41.478 24.4922 41.8061 24.3602 42.1513 24.3209C42.4965 24.2816 42.8459 24.3365 43.1624 24.4796C43.8087 24.7679 44.2438 25.3833 44.3005 26.0888C44.7002 29.4751 44.0351 32.9019 42.3975 35.8929C40.7598 38.8838 38.2311 41.2902 35.1627 42.7777C32.0944 44.2651 28.6388 44.7597 25.2764 44.1927C21.914 43.6257 18.8117 42.0252 16.4009 39.6137C13.9907 37.2049 12.3898 34.1057 11.8203 30.7461C11.2508 27.3864 11.7408 23.9328 13.2225 20.8643C14.7041 17.7957 17.104 15.2642 20.0891 13.6209C23.0743 11.9777 26.4968 11.3041 29.8821 11.6935C30.138 11.7173 30.3866 11.7919 30.6133 11.9129C30.84 12.034 31.0403 12.1991 31.2024 12.3986C31.3644 12.5981 31.4851 12.8279 31.5572 13.0746C31.6293 13.3213 31.6514 13.5799 31.6223 13.8352C31.5931 14.0906 31.5133 14.3375 31.3875 14.5616C31.2617 14.7858 31.0924 14.9825 30.8895 15.1403C30.6867 15.2982 30.4544 15.4139 30.2062 15.4808C29.9581 15.5477 29.6991 15.5644 29.4444 15.5299C27.6859 15.3266 25.9044 15.4974 24.2166 16.0312C22.5288 16.5651 20.973 17.4498 19.6513 18.6273C18.3296 19.8048 17.2719 21.2486 16.5475 22.8637C15.8231 24.4789 15.4485 26.229 15.4482 27.9992Z" fill="#2C2B2B"/>
<path d="M15.4482 27.9992C15.4554 29.7045 15.8101 31.3904 16.4906 32.9541C17.1711 34.5177 18.1632 35.9263 19.4062 37.0937C20.6493 38.2611 22.1172 39.163 23.7204 39.7442C25.3236 40.3254 27.0285 40.5737 28.7309 40.474C30.4333 40.3743 32.0975 39.9287 33.6219 39.1644C35.1463 38.4 36.499 37.333 37.5973 36.0285C38.6955 34.7239 39.5164 33.2092 40.0098 31.5769C40.5031 29.9445 40.6586 28.2287 40.4667 26.5342C40.4127 26.191 40.4524 25.8396 40.5818 25.5172C40.7112 25.1948 40.9254 24.9134 41.2017 24.7028C41.478 24.4922 41.8061 24.3602 42.1513 24.3209C42.4965 24.2816 42.8459 24.3365 43.1624 24.4796C43.8087 24.7679 44.2438 25.3833 44.3005 26.0888C44.7002 29.4751 44.0351 32.9019 42.3975 35.8929C40.7598 38.8838 38.2311 41.2902 35.1627 42.7777C32.0944 44.2651 28.6388 44.7597 25.2764 44.1927C21.914 43.6257 18.8117 42.0252 16.4009 39.6137C13.9907 37.2049 12.3898 34.1057 11.8203 30.7461C11.2508 27.3864 11.7408 23.9328 13.2225 20.8643C14.7041 17.7957 17.104 15.2642 20.0891 13.6209C23.0743 11.9777 26.4968 11.3041 29.8821 11.6935C30.138 11.7173 30.3866 11.7919 30.6133 11.9129C30.84 12.034 31.0403 12.1991 31.2024 12.3986C31.3644 12.5981 31.4851 12.8279 31.5572 13.0746C31.6293 13.3213 31.6514 13.5799 31.6223 13.8352C31.5931 14.0906 31.5133 14.3375 31.3875 14.5616C31.2617 14.7858 31.0924 14.9825 30.8895 15.1403C30.6867 15.2982 30.4544 15.4139 30.2062 15.4808C29.9581 15.5477 29.6991 15.5644 29.4444 15.5299C27.6859 15.3266 25.9044 15.4974 24.2166 16.0312C22.5288 16.5651 20.973 17.4498 19.6513 18.6273C18.3296 19.8048 17.2719 21.2486 16.5475 22.8637C15.8231 24.4789 15.4485 26.229 15.4482 27.9992Z" stroke="white"/>
</svg>
