<svg width="285" height="28" viewBox="0 0 285 28" fill="none" xmlns="http://www.w3.org/2000/svg">
<circle cx="13" cy="13" r="13" fill="black"/>
<rect x="26" y="15" width="241" height="1" fill="#7A7A7A"/>
<path d="M284.5 15C284.5 21.8859 278.698 27.5 271.5 27.5C264.302 27.5 258.5 21.8859 258.5 15C258.5 8.11406 264.302 2.5 271.5 2.5C278.698 2.5 284.5 8.11406 284.5 15Z" fill="white" stroke="#7A7A7A"/>
<path d="M271.483 22.24C270.563 22.24 269.73 22.08 268.983 21.76C268.236 21.4267 267.636 20.92 267.183 20.24C266.73 19.56 266.49 18.7067 266.463 17.68H268.983C268.996 18.36 269.216 18.9333 269.643 19.4C270.083 19.8533 270.696 20.08 271.483 20.08C272.23 20.08 272.803 19.8733 273.203 19.46C273.603 19.0467 273.803 18.5267 273.803 17.9C273.803 17.1667 273.536 16.6133 273.003 16.24C272.483 15.8533 271.81 15.66 270.983 15.66H269.943V13.56H271.003C271.683 13.56 272.25 13.4 272.703 13.08C273.156 12.76 273.383 12.2867 273.383 11.66C273.383 11.14 273.21 10.7267 272.863 10.42C272.53 10.1 272.063 9.94 271.463 9.94C270.81 9.94 270.296 10.1333 269.923 10.52C269.563 10.9067 269.363 11.38 269.323 11.94H266.823C266.876 10.6467 267.323 9.62667 268.163 8.88C269.016 8.13333 270.116 7.76 271.463 7.76C272.423 7.76 273.23 7.93333 273.883 8.28C274.55 8.61333 275.05 9.06 275.383 9.62C275.73 10.18 275.903 10.8 275.903 11.48C275.903 12.2667 275.683 12.9333 275.243 13.48C274.816 14.0133 274.283 14.3733 273.643 14.56C274.43 14.72 275.07 15.1067 275.563 15.72C276.056 16.32 276.303 17.08 276.303 18C276.303 18.7733 276.116 19.48 275.743 20.12C275.37 20.76 274.823 21.2733 274.103 21.66C273.396 22.0467 272.523 22.24 271.483 22.24Z" fill="#7A7A7A"/>
<path d="M161.5 13C161.5 19.8859 155.698 25.5 148.5 25.5C141.302 25.5 135.5 19.8859 135.5 13C135.5 6.11406 141.302 0.5 148.5 0.5C155.698 0.5 161.5 6.11406 161.5 13Z" fill="black" stroke="#2C2B2B"/>
<path d="M143.807 20V18.14C144.66 17.4333 145.487 16.7333 146.287 16.04C147.1 15.3467 147.82 14.66 148.447 13.98C149.087 13.3 149.594 12.64 149.967 12C150.354 11.3467 150.547 10.7133 150.547 10.1C150.547 9.52667 150.387 9.02 150.067 8.58C149.76 8.14 149.247 7.92 148.527 7.92C147.794 7.92 147.24 8.16 146.867 8.64C146.494 9.12 146.307 9.7 146.307 10.38H143.827C143.854 9.35333 144.08 8.5 144.507 7.82C144.934 7.12667 145.5 6.61333 146.207 6.28C146.914 5.93333 147.707 5.76 148.587 5.76C150.014 5.76 151.12 6.15333 151.907 6.94C152.707 7.71333 153.107 8.72 153.107 9.96C153.107 10.7333 152.927 11.4867 152.567 12.22C152.22 12.9533 151.76 13.66 151.187 14.34C150.614 15.02 149.994 15.66 149.327 16.26C148.66 16.8467 148.014 17.3933 147.387 17.9H153.447V20H143.807Z" fill="white"/>
<path d="M5.05273 13.708L10.1971 18.083L20.4859 9.33301" stroke="white" stroke-width="2"/>
</svg>
