<svg width="76" height="76" viewBox="0 0 76 76" fill="none" xmlns="http://www.w3.org/2000/svg">
<g id="mdi:email-plus">
<path id="Vector" d="M41.1663 60.1667C41.1663 49.685 49.6847 41.1667 60.1663 41.1667C63.6497 41.1667 66.8797 42.1167 69.6663 43.7317V19C69.6663 17.3203 68.9991 15.7094 67.8114 14.5217C66.6236 13.3339 65.0127 12.6667 63.333 12.6667H12.6663C9.15134 12.6667 6.33301 15.485 6.33301 19V57C6.33301 58.6797 7.00027 60.2906 8.188 61.4783C9.37573 62.6661 10.9866 63.3333 12.6663 63.3333H41.4513C41.293 62.2883 41.1663 61.2433 41.1663 60.1667ZM12.6663 25.3333V19L37.9997 34.8333L63.333 19V25.3333L37.9997 41.1667L12.6663 25.3333ZM63.333 47.5V57H72.833V63.3333H63.333V72.8333H56.9997V63.3333H47.4997V57H56.9997V47.5H63.333Z" fill="black"/>
</g>
</svg>
