<svg width="194" height="242" viewBox="0 0 194 242" fill="none" xmlns="http://www.w3.org/2000/svg">
  <path d="M138.704 106.885L135.327 98.0171L137.015 102.449L135.319 98.0171C135.418 97.9776 145.507 94.0519 155.624 85.5323C168.817 74.4192 175.897 61.0607 176.668 45.8203L186.144 46.3026C185.239 64.1246 176.716 80.2703 161.487 93.0002C150.164 102.465 139.166 106.711 138.704 106.885Z" fill="#2C2B2B"/>
  <path d="M56.4207 132.423C55.298 132.269 28.7746 128.446 14.5977 108.489C6.5604 97.1748 4.17254 83.1244 7.50131 66.7217L16.7997 68.6074C14.0205 82.3139 15.8707 93.8658 22.2989 102.947C34.0484 119.547 57.4763 122.994 57.7095 123.026L56.4207 132.427V132.423Z" fill="#2C2B2B"/>
  <path d="M131.223 200.441L126.269 192.349L139.28 184.386C143.178 181.999 145.787 178.211 146.63 173.72C147.472 169.229 146.408 164.754 143.641 161.117L105.886 111.569L113.433 105.816L151.188 155.364C155.541 161.077 157.28 168.403 155.956 175.464C154.635 182.524 150.362 188.723 144.234 192.475L131.223 200.437V200.441Z" fill="#2C2B2B"/>
  <path d="M63.5373 213.522L56.8916 206.75C66.8502 196.977 74.4803 184.722 80.2167 169.284C85.0636 156.237 88.5267 141.135 91.1162 121.756L100.521 123.013C97.837 143.112 94.2117 158.866 89.1119 172.589C82.8813 189.363 74.5159 202.753 63.5373 213.522Z" fill="#2C2B2B"/>
  <path d="M65.9726 242L52.4362 231.333C54.6698 225.917 52.1397 223.015 52.4362 221.999L48.0637 227.89L41.4615 222.687L57.6191 206.004L65.6998 210.894C57.2712 221.877 65.5773 225.984 69.2144 232.622C70.1039 235.342 67.8742 241.276 65.9647 242H65.9726Z" fill="#2C2B2B"/>
  <path d="M128.014 227.61L117.66 213.836C121.206 209.171 119.502 205.72 120.052 204.814L114.32 209.393L109.271 202.676L130.77 189.582L135.719 197.477C124.76 205.933 131.738 212.033 133.557 219.379C133.723 222.237 130.046 227.404 128.014 227.614V227.61Z" fill="#2C2B2B"/>
  <path d="M187.338 44.7799C185.781 45.0962 184.215 45.4125 182.626 45.4994C181.799 45.5469 180.965 45.5271 180.163 45.3334C179.36 45.1397 178.589 44.7562 178.024 44.1553" fill="#2C2B2B"/>
  <path d="M193.063 37.3294C192.489 36.4201 191.363 36.0722 190.418 36.6177C189.92 36.9063 189.422 37.2147 188.931 37.5389C189.655 36.6533 190.438 35.8192 191.264 35.0324C192.007 34.3248 192.015 32.9411 191.264 32.2374C190.469 31.4902 189.323 31.4823 188.528 32.2374C187.797 32.9332 187.105 33.6685 186.453 34.4394C186.682 33.9018 186.919 33.368 187.156 32.8343C187.575 31.8934 187.449 30.66 186.464 30.1263C185.618 29.6716 184.262 29.8337 183.82 30.8379C183.088 32.4785 182.349 34.1587 181.693 35.8666C181.74 35.582 181.795 35.2934 181.855 35.0087C182.116 33.7357 182.444 32.4785 182.831 31.2411C183.136 30.2528 182.468 29.0391 181.479 28.8098C180.424 28.5607 179.435 29.134 179.099 30.1895C178.119 33.3325 177.522 36.6098 177.34 39.9109C176.688 38.6458 175.948 37.4282 175.138 36.2619C174.553 35.4199 173.426 34.9375 172.493 35.5543C171.679 36.0919 171.169 37.357 171.801 38.2584C172.833 39.7449 173.75 41.3144 174.529 42.959C174.715 43.3504 174.889 43.7497 175.063 44.145C175.063 44.145 175.063 44.145 175.063 44.1529C175.063 44.1608 175.063 44.1608 175.063 44.1648C175.094 44.232 175.11 44.2755 175.118 44.2953C175.118 44.2992 175.118 44.3032 175.118 44.3032C175.138 44.3585 175.162 44.4178 175.185 44.4732C175.272 44.6906 175.351 44.9041 175.434 45.1215C175.755 45.9913 176.039 46.8729 176.284 47.7624C176.557 48.7587 177.66 49.4742 178.664 49.1461C179.064 49.0156 179.408 48.7666 179.657 48.4503C179.922 49.2331 180.566 49.8656 181.459 49.8261C182.009 49.8024 182.59 49.5256 182.966 49.0907C183.318 49.3872 183.76 49.5651 184.187 49.5454C185.314 49.494 186.03 48.6756 186.12 47.5687C186.12 47.5529 186.12 47.5212 186.132 47.4777C186.132 47.4777 186.172 47.201 186.176 47.1812C186.219 46.9559 186.271 46.7345 186.334 46.5131C186.397 46.2917 186.464 46.0743 186.543 45.8569C186.555 45.8292 186.615 45.6869 186.642 45.6196C186.642 45.6196 186.642 45.6236 186.634 45.6276C186.634 45.6236 186.634 45.6196 186.642 45.6157C186.642 45.6078 186.65 45.6038 186.65 45.5999V45.592V45.5841C186.65 45.5841 186.662 45.5564 186.666 45.5524C186.872 45.1097 187.109 44.6866 187.374 44.2794C187.445 44.1727 187.516 44.066 187.591 43.9632C187.591 43.9553 187.607 43.9395 187.619 43.9236C187.619 43.9236 187.627 43.9039 187.639 43.892C187.646 43.8841 187.654 43.8722 187.662 43.8604C187.662 43.8604 187.662 43.8577 187.662 43.8525C187.662 43.8525 187.69 43.8169 187.698 43.805C187.698 43.809 187.69 43.8169 187.69 43.8208C187.733 43.7655 187.777 43.7062 187.793 43.6904C187.876 43.5916 187.955 43.4967 188.042 43.3978C188.35 43.046 188.674 42.7099 189.018 42.3937C189.188 42.2355 189.362 42.0814 189.54 41.9311C189.639 41.8441 189.742 41.7651 189.841 41.6821C189.805 41.7058 189.785 41.7176 189.773 41.7255C189.793 41.7058 189.852 41.6662 189.868 41.6504C189.868 41.6583 189.856 41.6623 189.849 41.6742C189.856 41.6662 189.864 41.6623 189.872 41.6544C190.667 41.0653 191.489 40.5277 192.343 40.0335C193.221 39.5195 193.6 38.2189 193.035 37.3294H193.063ZM183.452 43.9592C183.452 43.9592 183.452 43.9829 183.452 43.9948V43.9829C183.452 43.9829 183.452 43.9671 183.452 43.9592ZM181.432 37.4914V37.4717C181.432 37.4717 181.432 37.4598 181.432 37.4559C181.432 37.4677 181.432 37.4796 181.432 37.4914ZM185.199 43.726C185.199 43.726 185.199 43.7457 185.199 43.7497C185.191 43.7655 185.184 43.7853 185.176 43.8011C185.176 43.805 185.176 43.809 185.176 43.809V43.8011C185.176 43.7971 185.184 43.7892 185.187 43.7734C185.187 43.7655 185.187 43.7576 185.195 43.7497C185.195 43.7418 185.195 43.7378 185.203 43.7339C185.203 43.7299 185.203 43.726 185.203 43.722C185.216 43.693 185.22 43.6864 185.215 43.7022C185.215 43.7022 185.207 43.722 185.203 43.7299L185.199 43.726ZM186.148 47.4026V47.375C186.148 47.3354 186.156 47.3078 186.156 47.2919C186.156 47.3196 186.156 47.3591 186.148 47.4026ZM188.39 38.2189C188.374 38.2426 188.358 38.2584 188.35 38.2742C188.334 38.29 188.323 38.3058 188.303 38.3296C188.228 38.4165 188.323 38.29 188.374 38.2347C188.374 38.2347 188.374 38.2321 188.374 38.2268C188.374 38.2268 188.39 38.207 188.39 38.211C188.39 38.2149 188.39 38.2149 188.39 38.2189Z" fill="#2C2B2B"/>
  <path d="M183.583 44.0559C183.583 44.0559 183.583 44.0235 183.591 43.9951C183.591 44.0032 183.591 44.0154 183.591 44.0276C183.591 44.0397 183.591 44.0478 183.591 44.0559H183.583Z" fill="#2C2B2B"/>
  <path d="M183.583 44.0559C183.583 44.0559 183.583 44.0235 183.591 43.9951C183.591 44.0032 183.591 44.0154 183.591 44.0276C183.591 44.0397 183.591 44.0478 183.591 44.0559H183.583Z" fill="#2C2B2B"/>
  <path d="M185.354 43.7456C185.354 43.7456 185.354 43.7335 185.362 43.7295C185.362 43.7375 185.362 43.7456 185.362 43.7496C185.354 43.7657 185.345 43.7858 185.337 43.8019C185.337 43.7979 185.345 43.7898 185.349 43.7737C185.349 43.7657 185.349 43.7576 185.358 43.7496L185.354 43.7456Z" fill="#2C2B2B"/>
  <path d="M185.366 43.7195C185.379 43.6896 185.383 43.6827 185.378 43.6991C185.378 43.6991 185.37 43.7195 185.366 43.7276C185.366 43.7276 185.366 43.7276 185.366 43.7195Z" fill="#2C2B2B"/>
  <path d="M188.596 38.2115C188.596 38.2115 188.596 38.2154 188.596 38.2194C188.58 38.2432 188.564 38.259 188.556 38.2749C188.54 38.2908 188.528 38.3066 188.508 38.3304C188.433 38.4177 188.528 38.2908 188.58 38.2353C188.58 38.2353 188.58 38.2326 188.58 38.2273C188.58 38.2273 188.596 38.2075 188.596 38.2115Z" fill="#2C2B2B"/>
  <path d="M183.583 44.0559C183.583 44.0559 183.583 44.0235 183.591 43.9951C183.591 44.0032 183.591 44.0154 183.591 44.0276C183.591 44.0397 183.591 44.0478 183.591 44.0559H183.583Z" fill="#2C2B2B"/>
  <path d="M185.354 43.7456C185.354 43.7456 185.354 43.7335 185.362 43.7295C185.362 43.7375 185.362 43.7456 185.362 43.7496C185.354 43.7657 185.345 43.7858 185.337 43.8019C185.337 43.7979 185.345 43.7898 185.349 43.7737C185.349 43.7657 185.349 43.7576 185.358 43.7496L185.354 43.7456Z" fill="#2C2B2B"/>
  <path d="M185.366 43.7195C185.379 43.6896 185.383 43.6827 185.378 43.6991C185.378 43.6991 185.37 43.7195 185.366 43.7276C185.366 43.7276 185.366 43.7276 185.366 43.7195Z" fill="#2C2B2B"/>
  <path d="M186.322 47.3768C186.322 47.3364 186.33 47.3081 186.33 47.292C186.33 47.3203 186.33 47.3606 186.322 47.4051V47.3768Z" fill="#2C2B2B"/>
  <path d="M186.828 45.6293C186.828 45.6293 186.828 45.6199 186.837 45.6152C186.837 45.6152 186.837 45.6246 186.828 45.6293Z" fill="#2C2B2B"/>
  <path d="M187.828 43.9203C187.828 43.9203 187.837 43.9039 187.849 43.8916C187.849 43.8916 187.841 43.9039 187.841 43.908L187.828 43.9203Z" fill="#2C2B2B"/>
  <path d="M187.876 43.8537C187.876 43.8537 187.905 43.8169 187.913 43.8047C187.913 43.8088 187.905 43.8169 187.905 43.821C187.897 43.8333 187.888 43.8455 187.876 43.8537Z" fill="#2C2B2B"/>
  <path d="M188.58 38.2273C188.58 38.2273 188.596 38.2075 188.596 38.2115C188.596 38.2154 188.596 38.2154 188.596 38.2194C188.58 38.2432 188.564 38.259 188.556 38.2749C188.54 38.2908 188.528 38.3066 188.508 38.3304C188.433 38.4177 188.528 38.2908 188.58 38.2353C188.58 38.2353 188.58 38.2326 188.58 38.2273Z" fill="#2C2B2B"/>
  <path d="M190.115 41.6504C190.115 41.6504 190.103 41.6625 190.095 41.6746C190.095 41.6746 190.087 41.6746 190.083 41.6827C190.047 41.7069 190.026 41.719 190.014 41.7271C190.034 41.7069 190.095 41.6665 190.115 41.6504Z" fill="#2C2B2B"/>
  <path d="M0.946993 60.8157C1.79302 61.3099 2.60347 61.8476 3.3902 62.4366C3.3981 62.4445 3.40601 62.4485 3.41392 62.4564C3.40601 62.4445 3.3981 62.4406 3.39415 62.4327C3.41392 62.4485 3.46926 62.488 3.48903 62.5078C3.47717 62.4999 3.4574 62.488 3.42578 62.4643C3.52461 62.5473 3.62345 62.6264 3.72228 62.7134C3.89623 62.8636 4.07018 63.0178 4.24018 63.1759C4.58017 63.4922 4.9004 63.8282 5.20876 64.1801C5.29178 64.2789 5.37481 64.3738 5.45387 64.4726C5.46969 64.4884 5.51318 64.5477 5.55666 64.6031C5.55666 64.5991 5.55666 64.5912 5.54876 64.5873C5.55666 64.5991 5.56852 64.6149 5.58434 64.6347C5.58434 64.6347 5.58434 64.6373 5.58434 64.6426C5.58434 64.6426 5.60015 64.6663 5.60806 64.6742C5.61992 64.6861 5.62782 64.698 5.62782 64.7019C5.62782 64.7019 5.65154 64.7375 5.6555 64.7454C5.72666 64.8482 5.80177 64.9549 5.86898 65.0617C6.13386 65.4689 6.36711 65.8919 6.56873 66.3347C6.56873 66.3347 6.57664 66.3505 6.58455 66.3623V66.3742V66.3821C6.58455 66.3821 6.58455 66.39 6.59245 66.3979C6.59245 66.4019 6.59245 66.4058 6.60036 66.4098C6.60036 66.4058 6.60036 66.4019 6.59245 66.4019C6.62408 66.4691 6.67943 66.6114 6.69129 66.6391C6.7664 66.8565 6.83757 67.074 6.89687 67.2953C6.95617 67.5167 7.01152 67.7381 7.055 67.9635C7.055 67.9832 7.09454 68.26 7.09849 68.26C7.1064 68.3035 7.11035 68.3351 7.11035 68.3509C7.20128 69.4579 7.90894 70.2762 9.01985 70.3276C9.44286 70.3474 9.88169 70.1695 10.2296 69.873C10.6052 70.3078 11.1784 70.5846 11.72 70.6083C12.6016 70.6478 13.2381 70.0153 13.503 69.2325C13.7521 69.5488 14.0921 69.7979 14.4874 69.9283C15.4758 70.2564 16.5669 69.5409 16.8397 68.5446C17.0848 67.6551 17.3615 66.7735 17.6818 65.9037C17.7608 65.6863 17.8438 65.4728 17.9269 65.2554C17.9506 65.2 17.9743 65.1407 17.9901 65.0854C17.9901 65.0854 17.9901 65.0814 17.9901 65.0775C17.998 65.0577 18.0138 65.0142 18.0455 64.947C18.0455 64.9431 18.0455 64.9391 18.0455 64.9352C18.0455 64.9312 18.0455 64.9312 18.0455 64.9273C18.2194 64.5319 18.3894 64.1326 18.5713 63.7412C19.3382 62.0966 20.2475 60.5271 21.2675 59.0406C21.8921 58.1393 21.39 56.8742 20.5836 56.3365C19.6624 55.7198 18.5476 56.2021 17.9704 57.0442C17.1718 58.2104 16.4404 59.4281 15.796 60.6932C15.6181 57.3921 15.029 54.1147 14.0565 50.9717C13.7284 49.9162 12.7479 49.3429 11.7042 49.592C10.7238 49.8213 10.0635 51.035 10.368 52.0233C10.7554 53.2608 11.0796 54.5179 11.3365 55.7909C11.3919 56.0756 11.4512 56.3642 11.4986 56.6488C10.8503 54.941 10.1189 53.2608 9.39542 51.6201C8.95659 50.6159 7.61639 50.4538 6.78222 50.9085C5.80573 51.4422 5.68713 52.6757 6.09828 53.6166C6.33153 54.1503 6.56873 54.684 6.79408 55.2216C6.14967 54.4507 5.46573 53.7154 4.74226 53.0196C3.95949 52.2645 2.82486 52.2724 2.03813 53.0196C1.29489 53.7233 1.3028 55.107 2.03813 55.8147C2.85253 56.6014 3.6274 57.4356 4.34297 58.3211C3.86065 57.9969 3.36648 57.6886 2.87625 57.4C1.94325 56.8544 0.82839 57.2023 0.263054 58.1116C-0.294377 59.0011 0.0811969 60.3018 0.946993 60.8157ZM9.76704 64.7652V64.777C9.76704 64.777 9.76704 64.7533 9.76704 64.7414C9.76704 64.7494 9.76704 64.7573 9.76704 64.7652ZM11.7556 58.2381C11.7556 58.2381 11.7556 58.25 11.7556 58.2539V58.2737C11.7556 58.2737 11.7556 58.25 11.7556 58.2381ZM8.02359 64.4805C8.01832 64.4647 8.02227 64.4713 8.03545 64.5003C8.03545 64.5003 8.03545 64.5082 8.03545 64.5121C8.03545 64.5161 8.03545 64.5201 8.04335 64.528C8.04335 64.5359 8.05126 64.5438 8.05126 64.5517C8.05126 64.5675 8.05917 64.5754 8.06312 64.5794V64.5833C8.06312 64.5833 8.06312 64.5833 8.06312 64.5794C8.05521 64.5635 8.04731 64.5438 8.0394 64.528C8.0394 64.524 8.0394 64.5161 8.0394 64.5082C8.0394 64.5082 8.03149 64.4845 8.02754 64.4766L8.02359 64.4805ZM7.09058 68.0742C7.09058 68.0742 7.09058 68.1177 7.09849 68.1572V68.1849C7.09849 68.1414 7.09058 68.1018 7.09058 68.0742ZM4.87668 58.9932C4.87668 58.9932 4.88458 58.9971 4.89249 59.009C4.89249 59.009 4.89249 59.0116 4.89249 59.0169C4.94388 59.0723 5.03481 59.1988 4.9597 59.1118C4.93993 59.0881 4.92807 59.0723 4.91226 59.0565C4.90435 59.0406 4.88854 59.0248 4.87272 59.0011C4.87272 59.0011 4.87272 58.9985 4.87272 58.9932H4.87668Z" fill="#2C2B2B"/>
  <path d="M9.77117 64.8382C9.77117 64.8382 9.77117 64.8057 9.76306 64.7773C9.76306 64.7855 9.76306 64.7976 9.76306 64.8098C9.76306 64.8219 9.76306 64.8301 9.76306 64.8382H9.77117Z" fill="#2C2B2B"/>
  <path d="M9.77117 64.8382C9.77117 64.8382 9.77117 64.8057 9.76306 64.7773C9.76306 64.7855 9.76306 64.7976 9.76306 64.8098C9.76306 64.8219 9.76306 64.8301 9.76306 64.8382H9.77117Z" fill="#2C2B2B"/>
  <path d="M8.04366 64.5278C8.04366 64.5278 8.04366 64.5157 8.03561 64.5117C8.03561 64.5198 8.03561 64.5278 8.03561 64.5318C8.04366 64.5479 8.0517 64.568 8.05974 64.5841C8.05974 64.5801 8.0517 64.572 8.04768 64.556C8.04768 64.5479 8.04768 64.5399 8.03964 64.5318L8.04366 64.5278Z" fill="#2C2B2B"/>
  <path d="M8.03191 64.5017C8.01831 64.4718 8.01422 64.465 8.01967 64.4813C8.01967 64.4813 8.02783 64.5017 8.03191 64.5099C8.03191 64.5099 8.03191 64.5099 8.03191 64.5017Z" fill="#2C2B2B"/>
  <path d="M4.87662 58.9937C4.87662 58.9937 4.87662 58.9977 4.87662 59.0016C4.89248 59.0254 4.90834 59.0413 4.91627 59.0571C4.93214 59.073 4.94403 59.0889 4.96386 59.1127C5.03524 59.1999 4.94403 59.073 4.89645 59.0175C4.89645 59.0175 4.89645 59.0148 4.89645 59.0095C4.89645 59.0095 4.88058 58.9897 4.88058 58.9937H4.87662Z" fill="#2C2B2B"/>
  <path d="M9.77117 64.8382C9.77117 64.8382 9.77117 64.8057 9.76306 64.7773C9.76306 64.7855 9.76306 64.7976 9.76306 64.8098C9.76306 64.8219 9.76306 64.8301 9.76306 64.8382H9.77117Z" fill="#2C2B2B"/>
  <path d="M8.04366 64.5278C8.04366 64.5278 8.04366 64.5157 8.03561 64.5117C8.03561 64.5198 8.03561 64.5278 8.03561 64.5318C8.04366 64.5479 8.0517 64.568 8.05974 64.5841C8.05974 64.5801 8.0517 64.572 8.04768 64.556C8.04768 64.5479 8.04768 64.5399 8.03964 64.5318L8.04366 64.5278Z" fill="#2C2B2B"/>
  <path d="M8.03191 64.5017C8.01831 64.4718 8.01422 64.465 8.01967 64.4813C8.01967 64.4813 8.02783 64.5017 8.03191 64.5099C8.03191 64.5099 8.03191 64.5099 8.03191 64.5017Z" fill="#2C2B2B"/>
  <path d="M7.0989 68.159C7.0989 68.1186 7.09082 68.0904 7.09082 68.0742C7.09082 68.1025 7.09082 68.1429 7.0989 68.1873V68.159Z" fill="#2C2B2B"/>
  <path d="M6.60606 66.4115C6.60606 66.4115 6.60606 66.4022 6.59668 66.3975C6.59668 66.3975 6.59668 66.4068 6.60606 66.4115Z" fill="#2C2B2B"/>
  <path d="M5.62551 64.7035C5.62551 64.7035 5.6173 64.6871 5.60498 64.6748C5.60498 64.6748 5.61319 64.6871 5.61319 64.6912L5.62551 64.7035Z" fill="#2C2B2B"/>
  <path d="M5.58157 64.636C5.58157 64.636 5.55297 64.5992 5.5448 64.5869C5.5448 64.591 5.55297 64.5992 5.55297 64.6033C5.56114 64.6155 5.56932 64.6278 5.58157 64.636Z" fill="#2C2B2B"/>
  <path d="M4.89248 59.0095C4.89248 59.0095 4.87662 58.9897 4.87662 58.9937C4.87662 58.9977 4.87662 58.9977 4.87662 59.0016C4.89248 59.0254 4.90834 59.0413 4.91627 59.0571C4.93214 59.073 4.94403 59.0889 4.96386 59.1127C5.03524 59.1999 4.94403 59.073 4.89645 59.0175C4.89645 59.0175 4.89645 59.0148 4.89645 59.0095H4.89248Z" fill="#2C2B2B"/>
  <path d="M3.39392 62.4326C3.39392 62.4326 3.40604 62.4447 3.41411 62.4568C3.41411 62.4568 3.42219 62.4568 3.42623 62.4649C3.46257 62.4892 3.48276 62.5013 3.49084 62.5093C3.47065 62.4892 3.41411 62.4488 3.39392 62.4326Z" fill="#2C2B2B"/>
  <path d="M124.796 168.209C121.981 167.327 118.933 168.49 117.415 171.02C108.187 186.422 85.6529 185.774 77.3271 169.866C75.9592 167.252 72.9823 165.916 70.12 166.636C52.7013 171 37.2277 154.609 42.5924 137.471C43.474 134.657 42.3117 131.608 39.7816 130.09C24.3791 120.863 25.0275 98.3287 40.936 90.0028C43.5492 88.635 44.8854 85.658 44.1659 82.7958C39.8013 65.3771 56.1922 49.9035 73.3302 55.2682C76.145 56.1498 79.1931 54.9875 80.7112 52.4573C89.9384 37.0549 112.473 37.7032 120.799 53.6117C122.167 56.2249 125.143 57.5612 128.006 56.8417C145.424 52.4771 160.898 68.8679 155.533 86.0059C154.652 88.8208 155.814 91.8688 158.344 93.387C173.747 102.614 173.098 125.149 157.19 133.474C154.577 134.842 153.24 137.819 153.96 140.682C158.324 158.1 141.934 173.574 124.796 168.209Z" fill="url(#paint0_linear_3728_19078)"/>
  <path d="M119.518 156.63C117.28 155.93 114.857 156.855 113.651 158.864C106.313 171.108 88.4004 170.594 81.7824 157.947C80.6952 155.871 78.3272 154.808 76.054 155.377C62.2091 158.848 49.9061 145.814 54.1679 132.19C54.8677 129.953 53.9426 127.529 51.9342 126.323C39.6905 118.986 40.2045 101.073 52.8514 94.4549C54.927 93.3678 55.9904 90.9997 55.4211 88.7265C51.95 74.8816 64.9844 62.5786 78.6078 66.8404C80.8455 67.5402 83.2689 66.6151 84.4747 64.6067C91.8122 52.363 109.725 52.877 116.343 65.5239C117.43 67.5995 119.798 68.6629 122.072 68.0936C135.916 64.6226 148.219 77.6569 143.958 91.2804C143.258 93.518 144.183 95.9414 146.191 97.1472C158.435 104.485 157.921 122.398 145.274 129.016C143.199 130.103 142.135 132.471 142.704 134.744C146.175 148.589 133.141 160.892 119.518 156.63Z" fill="#2C2B2B"/>
  <path d="M97.4576 21.467L87.6808 18.4545L77.5522 19.9054L80.5647 10.1286L79.1138 0L88.8906 3.01249L99.0192 1.56159L96.0067 11.3384L97.4576 21.467Z" fill="#7A7A7A"/>
  <path d="M34.2229 35.4181L33.365 27.5983L29.2495 20.8894L37.0693 20.0315L43.7743 15.9199L44.6322 23.7398L48.7477 30.4447L40.9279 31.3026L34.2229 35.4181Z" fill="#7A7A7A"/>
  <path d="M145.171 23.9623L137.589 21.871L129.84 23.2151L131.931 15.6325L130.587 7.87988L138.17 9.97123L145.918 8.62708L143.827 16.2097L145.171 23.9623Z" fill="#7A7A7A"/>
  <path d="M109.977 112.091C111.163 110.439 113.12 108.909 115.579 107.912C118.038 106.916 120.509 106.643 122.509 107.003C124.514 107.363 126.012 108.343 126.609 109.814C127.206 111.285 126.815 113.032 125.629 114.688C124.443 116.341 122.486 117.871 120.027 118.867C117.568 119.863 115.101 120.136 113.096 119.776C111.092 119.417 109.594 118.436 108.997 116.966C108.4 115.495 108.791 113.748 109.977 112.091Z" fill="white"/>
  <path d="M114.887 120.128C114.259 120.128 113.65 120.076 113.065 119.97C110.938 119.59 109.428 118.546 108.815 117.036C108.202 115.526 108.558 113.727 109.815 111.972C111.08 110.209 113.096 108.698 115.5 107.722C117.904 106.745 120.406 106.417 122.541 106.801C124.668 107.18 126.178 108.224 126.791 109.734C127.404 111.244 127.048 113.043 125.787 114.799C124.522 116.562 122.506 118.072 120.102 119.048C118.354 119.76 116.556 120.124 114.883 120.124L114.887 120.128ZM110.139 112.205C108.961 113.85 108.621 115.514 109.183 116.89C109.744 118.27 111.147 119.226 113.136 119.582C115.2 119.954 117.619 119.634 119.956 118.685C122.292 117.736 124.249 116.277 125.471 114.573C126.649 112.929 126.989 111.268 126.427 109.888C125.866 108.509 124.462 107.552 122.474 107.196C120.41 106.825 117.991 107.145 115.654 108.094C113.318 109.042 111.361 110.501 110.139 112.205Z" fill="#2C2B2B"/>
  <path d="M118.43 106.755C121.735 105.411 125.388 106.806 126.61 109.815C127.832 112.823 126.187 116.37 122.882 117.71C119.577 119.054 115.924 117.658 114.702 114.65C113.481 111.641 115.125 108.095 118.43 106.751V106.755Z" fill="#606060"/>
  <path d="M120.296 118.422C117.778 118.422 115.457 117.042 114.516 114.729C113.247 111.606 114.971 107.949 118.355 106.574C119.996 105.905 121.779 105.87 123.368 106.471C124.961 107.072 126.175 108.234 126.792 109.744C127.405 111.254 127.345 112.935 126.622 114.476C125.898 116.018 124.598 117.232 122.953 117.9C122.075 118.256 121.174 118.426 120.296 118.426V118.422ZM118.505 106.941C115.323 108.234 113.698 111.662 114.884 114.583C116.07 117.505 119.624 118.825 122.807 117.536C124.356 116.908 125.582 115.761 126.266 114.31C126.942 112.871 127.001 111.302 126.428 109.894C125.855 108.487 124.72 107.404 123.234 106.842C121.735 106.277 120.055 106.313 118.505 106.941Z" fill="#606060"/>
  <path d="M82.2526 121.626C83.4308 119.982 85.3798 118.46 87.823 117.467C90.2662 116.475 92.7252 116.206 94.7177 116.562C96.7142 116.922 98.2046 117.894 98.7976 119.357C99.3906 120.82 99.0032 122.559 97.8211 124.208C96.643 125.852 94.694 127.374 92.2508 128.367C89.8076 129.359 87.3486 129.628 85.3561 129.272C83.3596 128.912 81.8692 127.94 81.2761 126.477C80.6831 125.014 81.0706 123.275 82.2487 121.626H82.2526Z" fill="white"/>
  <path d="M87.135 129.62C86.5104 129.62 85.9016 129.568 85.3244 129.466C83.2053 129.086 81.707 128.05 81.0942 126.548C80.4854 125.046 80.8372 123.259 82.0905 121.507C83.3476 119.752 85.356 118.25 87.7478 117.281C90.1396 116.309 92.6263 115.985 94.7493 116.368C96.8643 116.748 98.3666 117.783 98.9755 119.286C99.5843 120.788 99.2324 122.575 97.9792 124.326C96.722 126.082 94.7137 127.58 92.3219 128.552C90.5824 129.26 88.7954 129.624 87.1311 129.624L87.135 129.62ZM82.4146 121.737C81.2444 123.369 80.9044 125.026 81.4619 126.398C82.0193 127.77 83.4149 128.718 85.3955 129.074C87.4473 129.442 89.855 129.126 92.1796 128.181C94.5042 127.236 96.4532 125.785 97.6669 124.089C98.8371 122.456 99.1771 120.8 98.6197 119.428C98.0622 118.056 96.6667 117.107 94.69 116.751C92.6382 116.384 90.2305 116.7 87.9059 117.645C85.5813 118.59 83.6362 120.041 82.4186 121.737H82.4146Z" fill="#2C2B2B"/>
  <path d="M90.6612 116.314C93.9504 114.978 97.5836 116.366 98.7973 119.358C100.015 122.351 98.3743 125.878 95.089 127.214C91.7998 128.55 88.1666 127.162 86.9529 124.17C85.7352 121.177 87.3759 117.65 90.6612 116.314Z" fill="#606060"/>
  <path d="M92.5152 127.918C90.0127 127.918 87.6999 126.546 86.7669 124.246C86.1581 122.743 86.2174 121.071 86.9369 119.537C87.6564 118.003 88.9531 116.793 90.5859 116.133C92.2187 115.469 93.9898 115.433 95.5751 116.03C97.1604 116.627 98.3701 117.786 98.979 119.288C99.5878 120.79 99.5285 122.463 98.809 123.996C98.0895 125.53 96.7927 126.74 95.16 127.4C94.2863 127.756 93.3889 127.922 92.5152 127.922V127.918ZM90.7322 116.497C89.1903 117.122 87.9687 118.26 87.2927 119.703C86.6206 121.134 86.5613 122.696 87.1306 124.095C88.3127 127.001 91.8431 128.318 95.0098 127.033C96.5516 126.408 97.7732 125.269 98.4492 123.826C99.1213 122.395 99.1806 120.834 98.6113 119.434C98.042 118.035 96.9153 116.955 95.4328 116.398C93.9423 115.837 92.27 115.872 90.7322 116.497Z" fill="#606060"/>
  <path d="M114.133 100.204C111.33 100.204 109.136 99.5008 107.547 98.7022C104.404 97.1208 102.925 94.8871 102.862 94.7923L103.522 94.3613C103.751 94.7132 109.298 102.901 121.929 97.7296L122.23 98.461C119.122 99.734 116.422 100.204 114.129 100.204H114.133Z" fill="white"/>
  <path d="M76.8522 114.105L76.6388 113.345C89.8036 109.629 89.0722 99.4532 89.0604 99.3504L89.8471 99.2832C89.855 99.3939 90.6378 110.214 76.8522 114.108V114.105Z" fill="white"/>
  <defs>
    <linearGradient id="paint0_linear_3728_19078" x1="162.388" y1="122.663" x2="37.6854" y2="130.495" gradientUnits="userSpaceOnUse">
      <stop stop-color="#F5FF82"/>
      <stop offset="0.5" stop-color="#B1E8F4"/>
      <stop offset="1" stop-color="#6091F1"/>
    </linearGradient>
  </defs>
</svg>