<svg width="213" height="214" viewBox="0 0 213 214" fill="none" xmlns="http://www.w3.org/2000/svg">
  <path d="M143.448 200.758L141.962 195.258H140.821C140.821 194.18 140.904 193.079 141.074 191.965L140.971 191.577L141.145 191.53C141.926 186.921 144.113 182.067 147.584 177.293C155.351 166.61 158.073 157.536 155.68 150.316C152.506 140.759 140.92 136.919 140.805 136.884L143.626 127.802C144.292 128.008 159.959 133.02 164.706 147.321C168.122 157.615 164.952 169.582 155.279 182.887C153.025 185.986 150.338 190.65 150.338 195.258V198.9L143.46 200.758H143.448Z" fill="#2C2B2B"/>
  <path d="M147.481 206.975C147.945 207.902 148.773 212.384 154.534 212.685C155.093 212.712 155.648 212.808 156.195 212.915C162.681 214.214 167.293 214.214 170.024 213.592C175.872 211.357 174.719 205.699 168.962 203.801C161.766 201.431 152.006 205.212 149.89 192.837L140.947 193.641L140.436 211.865L147.683 212.075L147.481 206.971V206.975Z" fill="#2C2B2B"/>
  <path d="M203.582 152.312L194.072 152.228C194.254 131.085 185.113 116.975 166.898 110.29C155.007 105.927 143.559 106.474 143.444 106.478L142.921 96.9842C143.464 96.9525 156.37 96.2987 170.175 101.363C185.569 107.009 203.863 120.434 203.586 152.312H203.582Z" fill="#2C2B2B"/>
  <path d="M211.408 157.264C210.461 156.943 209.546 156.57 208.638 156.146C208.63 156.138 208.623 156.138 208.611 156.13C208.623 156.142 208.63 156.142 208.634 156.15C208.611 156.138 208.547 156.111 208.523 156.095C208.535 156.099 208.559 156.107 208.599 156.126C208.484 156.063 208.369 156.008 208.25 155.94C208.044 155.825 207.842 155.71 207.644 155.588C207.24 155.342 206.855 155.076 206.479 154.787C206.376 154.708 206.277 154.629 206.178 154.545C206.158 154.534 206.102 154.482 206.047 154.438C206.047 154.438 206.055 154.45 206.059 154.454C206.047 154.442 206.035 154.43 206.015 154.415C206.015 154.415 206.014 154.412 206.011 154.407C206.011 154.407 205.991 154.387 205.984 154.379C205.972 154.371 205.96 154.359 205.96 154.355H205.956C205.94 154.343 205.928 154.327 205.92 154.32C205.829 154.232 205.734 154.141 205.643 154.05C205.298 153.701 204.985 153.329 204.696 152.933C204.692 152.933 204.684 152.917 204.676 152.909H204.672V152.897H204.664V152.889C204.664 152.889 204.656 152.881 204.652 152.873C204.648 152.873 204.648 152.865 204.64 152.861C204.644 152.861 204.644 152.869 204.648 152.869C204.605 152.81 204.521 152.679 204.502 152.655C204.383 152.457 204.272 152.255 204.169 152.049C204.066 151.843 203.971 151.637 203.883 151.423C203.876 151.403 203.788 151.138 203.784 151.138C203.769 151.098 203.757 151.066 203.757 151.051C203.452 149.981 202.584 149.311 201.454 149.477C201.023 149.541 200.618 149.802 200.325 150.159C199.866 149.802 199.236 149.644 198.685 149.727C197.789 149.862 197.27 150.607 197.151 151.427C196.842 151.165 196.45 150.987 196.03 150.936C194.972 150.805 194.009 151.724 193.926 152.754C193.851 153.678 193.736 154.601 193.581 155.516C193.541 155.746 193.502 155.972 193.458 156.202C193.446 156.261 193.435 156.325 193.427 156.38C193.427 156.38 193.427 156.38 193.427 156.388C193.427 156.408 193.415 156.455 193.399 156.527C193.399 156.527 193.399 156.535 193.399 156.538C193.399 156.542 193.399 156.542 193.399 156.546C193.3 156.97 193.205 157.394 193.094 157.818C192.634 159.586 192.02 161.309 191.275 162.97C190.819 163.98 191.564 165.125 192.48 165.498C193.526 165.926 194.556 165.232 194.98 164.289C195.562 162.985 196.066 161.646 196.474 160.275C197.282 163.489 198.502 166.599 200.08 169.5C200.61 170.474 201.708 170.847 202.711 170.399C203.654 169.983 204.086 168.66 203.594 167.744C202.968 166.603 202.401 165.43 201.902 164.226C201.791 163.956 201.676 163.683 201.577 163.413C202.556 164.967 203.614 166.476 204.652 167.95C205.286 168.854 206.665 168.751 207.422 168.14C208.302 167.423 208.191 166.187 207.596 165.343C207.259 164.864 206.919 164.384 206.59 163.901C207.386 164.535 208.218 165.125 209.078 165.668C210.013 166.258 211.155 166.029 211.8 165.141C212.415 164.305 212.141 162.942 211.269 162.391C210.299 161.777 209.36 161.107 208.468 160.374C209.015 160.6 209.57 160.806 210.12 160.992C211.162 161.349 212.22 160.786 212.617 159.784C213.009 158.801 212.383 157.593 211.412 157.256L211.408 157.264ZM201.771 155.1V155.088C201.771 155.088 201.779 155.112 201.779 155.124C201.779 155.116 201.771 155.108 201.771 155.1ZM201.015 161.912C201.015 161.912 201.007 161.9 201.007 161.896V161.876C201.007 161.876 201.007 161.9 201.015 161.912ZM203.582 155.041C203.59 155.057 203.585 155.051 203.566 155.025C203.566 155.025 203.562 155.017 203.559 155.013C203.555 155.013 203.555 155.005 203.547 154.997C203.543 154.989 203.535 154.981 203.535 154.973C203.527 154.957 203.523 154.95 203.519 154.95C203.531 154.965 203.543 154.981 203.551 154.997C203.551 154.997 203.559 155.009 203.559 155.017H203.562C203.562 155.017 203.574 155.037 203.578 155.045L203.582 155.041ZM203.836 151.324C203.836 151.324 203.824 151.28 203.812 151.245V151.217C203.82 151.261 203.832 151.296 203.836 151.324ZM207.798 159.827C207.798 159.827 207.79 159.827 207.779 159.815C207.779 159.815 207.777 159.813 207.775 159.808C207.715 159.764 207.596 159.657 207.687 159.728C207.711 159.748 207.727 159.76 207.743 159.772C207.755 159.788 207.771 159.8 207.79 159.819C207.79 159.819 207.792 159.822 207.794 159.827H207.798Z" fill="#2C2B2B"/>
  <path d="M201.015 161.913C201.015 161.913 201.007 161.888 201.003 161.876V161.896C201.003 161.896 201.011 161.909 201.015 161.913Z" fill="#2C2B2B"/>
  <path d="M201.007 161.896C201.007 161.896 201.007 161.909 201.015 161.913C201.007 161.901 201.007 161.888 201.003 161.876V161.896H201.007Z" fill="#2C2B2B"/>
  <path d="M201.752 155.033C201.752 155.033 201.76 155.065 201.772 155.089C201.772 155.081 201.772 155.069 201.764 155.057C201.756 155.045 201.756 155.037 201.756 155.029L201.752 155.033Z" fill="#2C2B2B"/>
  <path d="M201.784 155.126C201.784 155.126 201.776 155.101 201.772 155.089V155.101C201.772 155.101 201.78 155.118 201.784 155.126Z" fill="#2C2B2B"/>
  <path d="M201.752 155.033C201.752 155.033 201.76 155.065 201.772 155.089C201.772 155.081 201.772 155.069 201.764 155.057C201.756 155.045 201.756 155.037 201.756 155.029L201.752 155.033Z" fill="#2C2B2B"/>
  <path d="M201.776 155.101C201.776 155.101 201.784 155.118 201.784 155.126C201.784 155.113 201.776 155.101 201.772 155.089V155.101H201.776Z" fill="#2C2B2B"/>
  <path d="M203.519 154.948C203.519 154.948 203.519 154.948 203.524 154.948L203.519 154.938V154.948Z" fill="#2C2B2B"/>
  <path d="M203.551 154.997C203.551 154.997 203.559 155.01 203.563 155.014C203.563 155.006 203.555 154.997 203.555 154.993C203.543 154.977 203.531 154.961 203.523 154.945C203.527 154.945 203.535 154.957 203.539 154.969C203.539 154.977 203.547 154.985 203.551 154.993V154.997Z" fill="#2C2B2B"/>
  <path d="M203.566 155.024C203.586 155.052 203.591 155.057 203.583 155.041C203.583 155.041 203.571 155.02 203.566 155.016H203.562C203.562 155.016 203.566 155.016 203.571 155.024H203.566Z" fill="#2C2B2B"/>
  <path d="M207.799 159.829C207.799 159.829 207.799 159.829 207.795 159.821C207.775 159.801 207.755 159.789 207.747 159.773C207.727 159.761 207.715 159.745 207.691 159.729C207.6 159.657 207.719 159.765 207.779 159.809C207.779 159.809 207.78 159.811 207.783 159.817C207.783 159.817 207.803 159.833 207.803 159.829H207.799Z" fill="#2C2B2B"/>
  <path d="M201.752 155.033C201.752 155.033 201.76 155.065 201.772 155.089C201.772 155.081 201.772 155.069 201.764 155.057C201.756 155.045 201.756 155.037 201.756 155.029L201.752 155.033Z" fill="#2C2B2B"/>
  <path d="M201.776 155.101C201.776 155.101 201.784 155.118 201.784 155.126C201.784 155.113 201.776 155.101 201.772 155.089V155.101H201.776Z" fill="#2C2B2B"/>
  <path d="M203.519 154.948C203.519 154.948 203.519 154.948 203.524 154.948L203.519 154.938V154.948Z" fill="#2C2B2B"/>
  <path d="M203.551 154.997C203.551 154.997 203.559 155.01 203.563 155.014C203.563 155.006 203.555 154.997 203.555 154.993C203.543 154.977 203.531 154.961 203.523 154.945C203.527 154.945 203.535 154.957 203.539 154.969C203.539 154.977 203.547 154.985 203.551 154.993V154.997Z" fill="#2C2B2B"/>
  <path d="M203.566 155.024C203.586 155.052 203.591 155.057 203.583 155.041C203.583 155.041 203.571 155.02 203.566 155.016H203.562C203.562 155.016 203.566 155.016 203.571 155.024H203.566Z" fill="#2C2B2B"/>
  <path d="M203.816 151.241C203.828 151.281 203.836 151.305 203.84 151.321C203.836 151.293 203.824 151.257 203.812 151.213V151.241H203.816Z" fill="#2C2B2B"/>
  <path d="M204.644 152.865C204.644 152.865 204.649 152.874 204.658 152.879C204.658 152.879 204.654 152.87 204.649 152.865H204.644Z" fill="#2C2B2B"/>
  <path d="M204.673 152.906C204.673 152.906 204.668 152.906 204.668 152.896V152.906H204.673Z" fill="#2C2B2B"/>
  <path d="M205.956 154.354C205.956 154.354 205.968 154.371 205.981 154.38C205.981 154.38 205.973 154.367 205.968 154.363L205.956 154.354Z" fill="#2C2B2B"/>
  <path d="M206.015 154.411C206.015 154.411 206.053 154.445 206.061 154.453C206.057 154.453 206.049 154.441 206.049 154.436C206.036 154.424 206.028 154.416 206.015 154.407V154.411Z" fill="#2C2B2B"/>
  <path d="M207.779 159.812C207.779 159.812 207.799 159.828 207.799 159.824C207.799 159.82 207.799 159.824 207.795 159.816C207.775 159.796 207.755 159.784 207.747 159.768C207.727 159.756 207.715 159.74 207.691 159.724C207.6 159.653 207.719 159.76 207.779 159.804C207.779 159.804 207.78 159.806 207.783 159.812H207.779Z" fill="#2C2B2B"/>
  <path d="M208.639 156.15C208.639 156.15 208.627 156.142 208.615 156.131C208.615 156.131 208.607 156.131 208.603 156.127C208.563 156.111 208.543 156.103 208.527 156.095C208.551 156.111 208.615 156.139 208.639 156.15Z" fill="#2C2B2B"/>
  <path d="M9.14911 152.312C8.87174 120.434 27.1663 107.009 42.5603 101.363C56.3654 96.2987 69.2711 96.9525 69.8139 96.9842L69.2909 106.478C69.176 106.474 57.7285 105.927 45.8373 110.29C27.622 116.975 18.4767 131.085 18.6629 152.228L9.15307 152.312H9.14911Z" fill="#2C2B2B"/>
  <path d="M0.114714 159.79C0.510957 160.796 1.56893 161.355 2.61105 160.998C3.16182 160.812 3.71656 160.602 4.26338 160.38C3.37579 161.113 2.43274 161.783 1.46194 162.397C0.586243 162.952 0.316798 164.311 0.930974 165.147C1.57685 166.034 2.71803 166.264 3.65316 165.674C4.51301 165.131 5.34116 164.541 6.14157 163.907C5.81269 164.39 5.47192 164.87 5.13511 165.349C4.54075 166.193 4.4298 167.433 5.30946 168.146C6.06629 168.757 7.44521 168.86 8.0792 167.956C9.12132 166.482 10.1753 164.973 11.154 163.419C11.055 163.689 10.9401 163.962 10.8291 164.232C10.3299 165.436 9.76323 166.609 9.13717 167.75C8.64583 168.666 9.07773 169.989 10.0208 170.405C11.0233 170.853 12.1209 170.48 12.6518 169.506C14.2289 166.601 15.4454 163.491 16.2577 160.281C16.6658 161.652 17.169 162.991 17.7515 164.295C18.1715 165.238 19.2057 165.927 20.2518 165.504C21.1671 165.131 21.912 163.986 21.4564 162.975C20.7114 161.315 20.0973 159.592 19.6376 157.824C19.5267 157.404 19.4316 156.976 19.3325 156.552C19.3325 156.552 19.3325 156.548 19.3325 156.544C19.3325 156.54 19.3325 156.537 19.3325 156.533C19.3127 156.461 19.3087 156.414 19.3048 156.394C19.3048 156.39 19.3048 156.386 19.3048 156.386C19.2968 156.327 19.285 156.263 19.2731 156.208C19.2295 155.978 19.1899 155.752 19.1502 155.522C18.9957 154.603 18.8848 153.684 18.8055 152.76C18.7223 151.726 17.7594 150.811 16.7015 150.942C16.2814 150.993 15.8892 151.171 15.5801 151.433C15.4652 150.613 14.9461 149.864 14.0466 149.733C13.4958 149.65 12.8658 149.812 12.4062 150.165C12.113 149.804 11.7088 149.547 11.2769 149.483C10.1476 149.317 9.27982 149.983 8.97471 151.056C8.97471 151.072 8.96282 151.104 8.94697 151.144C8.94697 151.144 8.85584 151.409 8.84791 151.429C8.76074 151.643 8.66564 151.849 8.56262 152.055C8.45959 152.261 8.34865 152.463 8.22977 152.661C8.21392 152.685 8.12675 152.816 8.08316 152.875C8.08316 152.875 8.08713 152.875 8.09109 152.867C8.08713 152.867 8.08713 152.875 8.0792 152.879C8.07524 152.887 8.06731 152.891 8.06731 152.895V152.903H8.06335V152.911H8.05543C8.05543 152.911 8.03958 152.935 8.03561 152.939C7.74636 153.335 7.43332 153.707 7.08859 154.056C6.99746 154.147 6.90632 154.238 6.81122 154.326C6.80726 154.333 6.79141 154.345 6.77556 154.361H6.7716C6.7716 154.361 6.75971 154.377 6.74782 154.389C6.7399 154.397 6.72801 154.405 6.72009 154.417C6.72009 154.417 6.71877 154.419 6.71612 154.425C6.71612 154.425 6.68046 154.456 6.67254 154.464C6.6765 154.464 6.68442 154.452 6.68442 154.448C6.63291 154.496 6.57348 154.543 6.55366 154.555C6.4546 154.639 6.35554 154.714 6.25252 154.797C5.87609 155.082 5.49173 155.352 5.08756 155.597C4.88944 155.72 4.6834 155.839 4.48131 155.95C4.3664 156.017 4.24753 156.073 4.13262 156.136C4.17224 156.12 4.19206 156.113 4.20791 156.105C4.18413 156.12 4.12073 156.148 4.09696 156.16C4.10092 156.152 4.10884 156.152 4.12073 156.14C4.11281 156.148 4.10488 156.148 4.09299 156.156C3.1856 156.58 2.27028 156.953 1.32326 157.274C0.352459 157.61 -0.273605 158.815 0.118676 159.802L0.114714 159.79ZM10.948 155.118C10.948 155.118 10.9559 155.094 10.9599 155.082V155.094C10.9599 155.094 10.952 155.11 10.948 155.118ZM11.7246 161.87V161.89C11.7246 161.89 11.7167 161.902 11.7128 161.906C11.7207 161.894 11.7207 161.882 11.7246 161.87ZM9.16094 155.007H9.16491C9.16491 155.007 9.17283 154.987 9.17283 154.983C9.18472 154.967 9.19661 154.952 9.20453 154.936L9.20849 154.928C9.20849 154.928 9.20849 154.936 9.20453 154.936C9.20057 154.936 9.19264 154.948 9.18868 154.959C9.18868 154.967 9.18076 154.975 9.17679 154.983C9.17283 154.991 9.16887 154.995 9.16491 154.999C9.16491 154.999 9.16094 155.007 9.15698 155.011C9.13849 155.037 9.13321 155.043 9.14113 155.027C9.14113 155.027 9.15302 155.007 9.15698 155.003L9.16094 155.007ZM8.91924 151.207V151.235C8.90339 151.274 8.8915 151.298 8.8915 151.314C8.89546 151.286 8.90735 151.251 8.91924 151.207ZM4.93699 159.81C4.9568 159.79 4.97662 159.778 4.98454 159.762C5.00435 159.75 5.01624 159.734 5.04002 159.718C5.13115 159.647 5.01228 159.754 4.95284 159.798C4.95284 159.798 4.95152 159.8 4.94888 159.806C4.94888 159.806 4.92907 159.821 4.92907 159.817C4.92907 159.813 4.92907 159.817 4.93303 159.81H4.93699Z" fill="#2C2B2B"/>
  <path d="M11.7126 161.911C11.7126 161.911 11.7208 161.886 11.7249 161.874V161.894C11.7249 161.894 11.7167 161.907 11.7126 161.911Z" fill="#2C2B2B"/>
  <path d="M11.7208 161.894C11.7208 161.894 11.7208 161.907 11.7126 161.911C11.7208 161.899 11.7208 161.886 11.7249 161.874V161.894H11.7208Z" fill="#2C2B2B"/>
  <path d="M10.9759 155.031C10.9759 155.031 10.9679 155.063 10.9558 155.088C10.9558 155.08 10.9558 155.067 10.9638 155.055C10.9719 155.043 10.9719 155.035 10.9719 155.027L10.9759 155.031Z" fill="#2C2B2B"/>
  <path d="M10.9482 155.124C10.9482 155.124 10.9564 155.099 10.9605 155.087V155.099C10.9605 155.099 10.9523 155.116 10.9482 155.124Z" fill="#2C2B2B"/>
  <path d="M10.9759 155.031C10.9759 155.031 10.9679 155.063 10.9558 155.088C10.9558 155.08 10.9558 155.067 10.9638 155.055C10.9719 155.043 10.9719 155.035 10.9719 155.027L10.9759 155.031Z" fill="#2C2B2B"/>
  <path d="M10.9564 155.099C10.9564 155.099 10.9482 155.116 10.9482 155.124C10.9482 155.111 10.9564 155.099 10.9605 155.087V155.099H10.9564Z" fill="#2C2B2B"/>
  <path d="M9.21378 154.946C9.21378 154.946 9.21378 154.946 9.2085 154.946L9.21378 154.936V154.946Z" fill="#2C2B2B"/>
  <path d="M9.17732 154.997C9.17732 154.997 9.1693 155.009 9.16528 155.013C9.16528 155.005 9.17331 154.997 9.17331 154.992C9.18535 154.976 9.19739 154.96 9.20542 154.944C9.2014 154.944 9.19338 154.956 9.18936 154.968C9.18936 154.976 9.18134 154.984 9.17732 154.992V154.997Z" fill="#2C2B2B"/>
  <path d="M9.16171 155.023C9.14233 155.051 9.13679 155.056 9.1451 155.04C9.1451 155.04 9.15756 155.019 9.16171 155.015H9.16587C9.16587 155.015 9.16171 155.015 9.15756 155.023H9.16171Z" fill="#2C2B2B"/>
  <path d="M4.92927 159.827C4.92927 159.827 4.92927 159.827 4.93326 159.819C4.95316 159.799 4.97306 159.787 4.98103 159.771C5.00093 159.759 5.01287 159.743 5.03676 159.727C5.12832 159.655 5.00889 159.763 4.94918 159.807C4.94918 159.807 4.94785 159.809 4.9452 159.815C4.9452 159.815 4.92529 159.831 4.92529 159.827H4.92927Z" fill="#2C2B2B"/>
  <path d="M10.9759 155.031C10.9759 155.031 10.9679 155.063 10.9558 155.088C10.9558 155.08 10.9558 155.067 10.9638 155.055C10.9719 155.043 10.9719 155.035 10.9719 155.027L10.9759 155.031Z" fill="#2C2B2B"/>
  <path d="M10.9564 155.099C10.9564 155.099 10.9482 155.116 10.9482 155.124C10.9482 155.111 10.9564 155.099 10.9605 155.087V155.099H10.9564Z" fill="#2C2B2B"/>
  <path d="M9.21378 154.946C9.21378 154.946 9.21378 154.946 9.2085 154.946L9.21378 154.936V154.946Z" fill="#2C2B2B"/>
  <path d="M9.17732 154.997C9.17732 154.997 9.1693 155.009 9.16528 155.013C9.16528 155.005 9.17331 154.997 9.17331 154.992C9.18535 154.976 9.19739 154.96 9.20542 154.944C9.2014 154.944 9.19338 154.956 9.18936 154.968C9.18936 154.976 9.18134 154.984 9.17732 154.992V154.997Z" fill="#2C2B2B"/>
  <path d="M9.16171 155.023C9.14233 155.051 9.13679 155.056 9.1451 155.04C9.1451 155.04 9.15756 155.019 9.16171 155.015H9.16587C9.16587 155.015 9.16171 155.015 9.15756 155.023H9.16171Z" fill="#2C2B2B"/>
  <path d="M8.91532 151.239C8.90334 151.279 8.89535 151.303 8.89136 151.319C8.89535 151.291 8.90733 151.255 8.91931 151.211V151.239H8.91532Z" fill="#2C2B2B"/>
  <path d="M8.08487 152.863C8.08487 152.863 8.08026 152.872 8.07104 152.877C8.07104 152.877 8.07565 152.868 8.08026 152.863H8.08487Z" fill="#2C2B2B"/>
  <path d="M8.05518 152.906C8.05518 152.906 8.06046 152.906 8.06046 152.896V152.906H8.05518Z" fill="#2C2B2B"/>
  <path d="M6.77317 154.354C6.77317 154.354 6.76049 154.37 6.7478 154.379C6.7478 154.379 6.75626 154.366 6.76049 154.362L6.77317 154.354Z" fill="#2C2B2B"/>
  <path d="M6.71849 154.409C6.71849 154.409 6.68095 154.443 6.67261 154.451C6.67678 154.451 6.68512 154.439 6.68512 154.434C6.69763 154.422 6.70597 154.414 6.71849 154.405V154.409Z" fill="#2C2B2B"/>
  <path d="M4.9491 159.81C4.9491 159.81 4.9292 159.826 4.9292 159.822C4.9292 159.818 4.9292 159.822 4.93318 159.814C4.95308 159.794 4.97299 159.782 4.98095 159.766C5.00086 159.754 5.0128 159.738 5.03668 159.722C5.12825 159.651 5.00882 159.758 4.9491 159.802C4.9491 159.802 4.94778 159.805 4.94512 159.81H4.9491Z" fill="#2C2B2B"/>
  <path d="M4.09277 156.149C4.09277 156.149 4.10472 156.141 4.11666 156.129C4.11666 156.129 4.12462 156.129 4.1286 156.125C4.16841 156.109 4.18832 156.101 4.20424 156.093C4.18035 156.109 4.11666 156.137 4.09277 156.149Z" fill="#2C2B2B"/>
  <path d="M70.9114 200.758L64.0326 198.9V195.258C64.0326 190.65 61.346 185.986 59.0914 182.887C49.4191 169.586 46.2452 157.619 49.6648 147.321C54.4118 133.02 70.0792 128.008 70.7449 127.802L73.5662 136.884L72.1556 132.343L73.582 136.88C73.4632 136.915 61.8374 140.719 58.6754 150.372C56.3098 157.583 59.0399 166.638 66.7865 177.293C70.2575 182.067 72.4448 186.921 73.2254 191.53L73.3998 191.577L73.2967 191.965C73.4632 193.079 73.5503 194.18 73.5503 195.258H72.4092L70.9232 200.758H70.9114Z" fill="#2C2B2B"/>
  <path d="M66.6754 212.079L73.9227 211.869L73.4116 193.646L64.4684 192.842C62.3485 205.22 52.589 201.44 45.3972 203.806C39.6398 205.7 38.4867 211.362 44.3353 213.597C47.0693 214.219 51.6816 214.219 58.1641 212.919C58.711 212.808 59.2657 212.717 59.8244 212.69C65.5858 212.388 66.4139 207.903 66.8775 206.98L66.6754 212.083V212.079Z" fill="#2C2B2B"/>
  <path d="M106.363 0L127.376 34.3543L165.554 21.5437L159.563 61.3662L197.048 76.0906L166.862 102.75L186.107 138.122L145.849 139.141L137.857 178.611L106.363 153.513L74.8699 178.611L66.8777 139.141L26.6194 138.122L45.8689 102.75L15.6831 76.0906L53.1637 61.3662L47.1765 21.5437L85.3545 34.3543L106.363 0Z" fill="url(#paint0_linear_3728_21046)"/>
  <path d="M106.364 22.6924L122.035 48.3174L150.513 38.76L146.047 68.4664L174.002 79.4502L151.488 99.3298L165.844 125.716L135.816 126.476L129.857 155.913L106.364 137.195L82.8743 155.913L76.9108 126.476L46.8835 125.716L61.2394 99.3298L38.7249 79.4502L66.6838 68.4664L62.2181 38.76L90.6921 48.3174L106.364 22.6924Z" fill="#2C2B2B"/>
  <path d="M48.7138 178.702C36.6799 166.502 42.3858 150.561 42.4452 150.398L43.1901 150.672C43.1347 150.826 37.6031 166.308 49.2764 178.143L48.7138 178.698V178.702Z" fill="#2C2B2B"/>
  <path d="M39.6204 176.727C33.1378 167.051 35.123 156.594 35.1428 156.491L35.9195 156.646C35.8997 156.749 33.9818 166.893 40.2781 176.288L39.6204 176.727Z" fill="#2C2B2B"/>
  <path d="M173.008 180.087L172.338 179.667C181.186 165.576 172.429 151.668 172.338 151.53L173.004 151.102C173.095 151.244 182.117 165.576 173.004 180.091L173.008 180.087Z" fill="#2C2B2B"/>
  <path d="M181.459 176.196L180.722 175.907C184.835 165.375 180.77 155.881 180.73 155.786L181.455 155.465C181.499 155.564 185.699 165.343 181.463 176.192L181.459 176.196Z" fill="#2C2B2B"/>
  <path d="M98.597 101.225C98.5098 102.829 97.4003 104.264 95.5974 105.27C93.7984 106.277 91.3457 106.831 88.6631 106.689C85.9806 106.546 83.5991 105.726 81.9191 104.533C80.235 103.341 79.2841 101.795 79.3712 100.19C79.4584 98.5857 80.5679 97.1513 82.3708 96.1448C84.1697 95.1383 86.6225 94.5836 89.305 94.7263C91.9876 94.8689 94.369 95.6891 96.0491 96.8818C97.7331 98.0745 98.6841 99.6199 98.597 101.229V101.225Z" fill="white"/>
  <path d="M89.511 106.91C89.2257 106.91 88.9404 106.902 88.6551 106.886C86.032 106.744 83.5991 105.967 81.8081 104.695C80.021 103.427 79.0898 101.826 79.177 100.178C79.2642 98.5334 80.3657 97.0356 82.2756 95.9697C84.1934 94.8959 86.6937 94.3847 89.3169 94.5274C91.94 94.67 94.3729 95.4467 96.1639 96.7186C97.947 97.9866 98.8822 99.5914 98.795 101.236C98.7078 102.88 97.6063 104.378 95.6964 105.444C93.9886 106.399 91.8172 106.91 89.511 106.91ZM88.4649 94.9038C86.2222 94.9038 84.1181 95.3991 82.4698 96.3184C80.6827 97.3169 79.6525 98.6958 79.5732 100.202C79.49 101.707 80.3657 103.189 82.0379 104.374C83.7695 105.602 86.1271 106.355 88.6789 106.49C91.2307 106.629 93.6518 106.133 95.5062 105.099C97.2932 104.101 98.3235 102.722 98.4027 101.216C98.4859 99.7102 97.6102 98.2283 95.9381 97.0435C94.2065 95.8152 91.8489 95.0623 89.301 94.9276C89.0236 94.9117 88.7423 94.9038 88.4689 94.9038H88.4649Z" fill="#2C2B2B"/>
  <path d="M92.3759 100.891C92.1976 104.176 89.1624 106.716 85.5526 106.522C81.9428 106.328 79.1968 103.475 79.3752 100.19C79.5535 96.905 82.5887 94.3651 86.1985 94.5593C89.8082 94.7534 92.5542 97.6064 92.3759 100.891Z" fill="#606060"/>
  <path d="M128.28 101.178C128.193 102.775 127.087 104.202 125.296 105.204C123.509 106.203 121.064 106.757 118.397 106.615C115.727 106.472 113.361 105.656 111.689 104.471C110.013 103.282 109.07 101.745 109.153 100.148C109.24 98.5512 110.346 97.1247 112.137 96.1222C113.924 95.1237 116.369 94.569 119.035 94.7116C121.706 94.8543 124.072 95.6666 125.744 96.8553C127.416 98.044 128.363 99.5814 128.276 101.178H128.28Z" fill="white"/>
  <path d="M119.237 106.832C118.956 106.832 118.671 106.824 118.39 106.808C115.778 106.666 113.357 105.893 111.578 104.629C109.803 103.369 108.872 101.772 108.963 100.135C109.05 98.4989 110.148 97.0091 112.046 95.9471C113.952 94.8812 116.444 94.3701 119.051 94.5127C121.662 94.6514 124.08 95.4281 125.863 96.6921C127.638 97.9521 128.569 99.549 128.478 101.185C128.391 102.822 127.293 104.312 125.395 105.374C123.695 106.325 121.536 106.832 119.237 106.832ZM118.199 94.8852C115.968 94.8852 113.876 95.3765 112.236 96.2919C110.457 97.2864 109.434 98.6574 109.355 100.155C109.272 101.653 110.144 103.127 111.804 104.304C113.524 105.524 115.869 106.273 118.409 106.412C120.945 106.547 123.358 106.055 125.201 105.025C126.98 104.03 128.002 102.659 128.082 101.162C128.161 99.6639 127.293 98.1899 125.633 97.0091C123.909 95.7886 121.563 95.0397 119.027 94.901C118.75 94.8852 118.473 94.8773 118.199 94.8773V94.8852Z" fill="#2C2B2B"/>
  <path d="M122.09 100.844C121.912 104.113 118.892 106.637 115.302 106.447C111.712 106.253 108.982 103.416 109.157 100.15C109.331 96.8815 112.354 94.3534 115.944 94.5476C119.534 94.7417 122.264 97.5788 122.09 100.848V100.844Z" fill="#606060"/>
  <path d="M85.2636 91.1836C84.8198 91.1836 84.3641 91.1717 83.8926 91.144L83.9362 90.3515C95.9067 91.0331 98.1653 82.6525 98.2564 82.2959L99.0251 82.4901C99.0013 82.5812 96.715 91.1836 85.2636 91.1836Z" fill="white"/>
  <path d="M124.824 91.1836C113.373 91.1836 111.087 82.5812 111.063 82.4901L111.831 82.2959C111.923 82.6525 114.181 91.0212 126.152 90.3515L126.195 91.144C125.724 91.1717 125.268 91.1836 124.824 91.1836Z" fill="white"/>
  <path d="M119.721 111.146L116.179 117.28C114.606 120.006 116.571 123.414 119.721 123.414C122.871 123.414 124.837 120.006 123.264 117.28L119.721 111.146Z" fill="white"/>
  <defs>
    <linearGradient id="paint0_linear_3728_21046" x1="187.87" y1="103.152" x2="27.3868" y2="113.386" gradientUnits="userSpaceOnUse">
      <stop stop-color="#F5FF82"/>
      <stop offset="0.5" stop-color="#B1E8F4"/>
      <stop offset="1" stop-color="#6091F1"/>
    </linearGradient>
  </defs>
</svg>