<svg width="398" height="406" viewBox="0 0 398 406" fill="none" xmlns="http://www.w3.org/2000/svg">
<g clip-path="url(#clip0_4288_8249)">
<path d="M300.353 177.094L299.758 157.765L300.055 167.426L299.733 157.765C299.902 157.765 316.842 157.088 333.388 149.531C353.911 140.168 364.546 124.57 364.989 103.17L384.304 103.573C383.692 132.836 368.661 154.905 340.819 167.385C320.82 176.353 301.183 177.062 300.353 177.086V177.094Z" fill="#2C2B2B"/>
<path d="M392.074 95.9033C390.488 96.9346 390.278 96.709 388.797 97.8773C390.552 94.8801 391.116 93.2847 393.137 90.4325C396.148 86.2025 389.167 82.1739 386.188 86.3636C385.246 87.685 384.344 89.0225 383.459 90.3761C384.03 88.7163 384.626 87.0646 385.23 85.4129C387.001 80.5303 379.224 78.4273 377.469 83.2697C376.961 84.6797 376.309 88.8775 375.826 90.2875C375.85 88.8533 376.019 84.6314 376.06 83.1972C376.189 78.0084 368.137 78.0164 368.008 83.1972C367.88 88.4021 367.823 93.607 367.831 98.82C366.986 96.4351 366.044 94.0743 365.078 91.7136C363.137 86.984 355.344 89.0547 357.316 93.8568C360.271 101.068 363.234 108.36 363.323 116.264C363.379 121.444 371.43 121.461 371.374 116.264C371.366 115.394 371.317 114.523 371.253 113.669C373.298 114.024 375.585 113.009 375.947 110.608C376.003 110.608 376.068 110.583 376.124 110.575C376.253 110.688 376.39 110.801 376.527 110.898C375.947 111.953 375.52 113.041 375.327 114.153C374.458 119.221 382.219 121.404 383.088 116.296C383.564 113.516 386.776 110.712 388.732 108.787C391.003 106.547 393.475 104.597 396.148 102.865C400.479 100.053 396.446 93.0752 392.082 95.9114L392.074 95.9033Z" fill="#2C2B2B"/>
<path d="M97.6453 177.096C96.816 177.072 77.1788 176.363 57.1794 167.395C29.338 154.907 14.2982 132.846 13.6943 103.583L33.0094 103.18C33.4522 124.571 44.088 140.17 64.6108 149.541C81.1562 157.09 98.0881 157.767 98.2572 157.775L97.6372 177.104L97.6453 177.096Z" fill="#2C2B2B"/>
<path d="M5.91721 95.9033C7.50331 96.9346 7.71265 96.709 9.19409 97.8773C7.4389 94.8801 6.87531 93.2847 4.85443 90.4325C1.84325 86.2025 8.82373 82.1739 11.8027 86.3636C12.7447 87.685 13.6465 89.0225 14.5321 90.3761C13.9605 88.7163 13.3647 87.0646 12.7608 85.4129C10.9895 80.5303 18.7671 78.4273 20.5223 83.2697C21.0295 84.6797 21.6817 88.8775 22.1647 90.2875C22.1406 88.8533 21.9715 84.6314 21.9312 83.1972C21.8024 78.0084 29.8537 78.0164 29.9825 83.1972C30.1114 88.4021 30.1677 93.607 30.1597 98.82C31.0051 96.4351 31.9471 94.0743 32.9132 91.7136C34.8536 86.984 42.6472 89.0547 40.6747 93.8568C37.7198 101.068 34.757 108.36 34.6684 116.264C34.612 121.444 26.5607 121.461 26.6171 116.264C26.6252 115.394 26.6735 114.523 26.7379 113.669C24.6928 114.024 22.4063 113.009 22.044 110.608C21.9876 110.608 21.9232 110.583 21.8668 110.575C21.738 110.688 21.6011 110.801 21.4643 110.898C22.044 111.953 22.4707 113.041 22.6639 114.153C23.5335 119.221 15.772 121.404 14.9025 116.296C14.4274 113.516 11.215 110.712 9.2585 108.787C6.98803 106.547 4.51628 104.597 1.84325 102.865C-2.48835 100.053 1.54535 93.0752 5.90915 95.9114L5.91721 95.9033Z" fill="#2C2B2B"/>
<path d="M192.2 222.578H172.877V355.038H192.2V222.578Z" fill="#2C2B2B"/>
<path d="M218.616 222.578H199.293V355.038H218.616V222.578Z" fill="#2C2B2B"/>
<path d="M138.321 405.378C144.07 406.329 157.234 406.82 166.275 401.994C173.747 398.014 177.765 393.929 179.407 391.52L179.278 400.02L191.734 399.827L192.233 354.715L172.869 351.693L172.749 361.773C170.881 378.846 162.548 381.126 150.704 383.358C146.542 384.14 142.605 384.881 139.175 386.251C133.652 388.45 130.173 392.648 130.334 396.934C130.479 400.745 133.394 403.815 138.321 405.37V405.378Z" fill="#2C2B2B"/>
<path d="M253.197 405.378C247.448 406.329 234.284 406.82 225.243 401.994C217.771 398.014 213.753 393.929 212.111 391.52L212.24 400.02L199.784 399.827L199.285 354.715L218.649 351.693L218.769 361.773C220.637 378.846 228.97 381.126 240.814 383.358C244.976 384.14 248.913 384.881 252.343 386.251C257.866 388.45 261.345 392.648 261.184 396.934C261.039 400.745 258.124 403.815 253.197 405.37V405.378Z" fill="#2C2B2B"/>
<path d="M245.242 51.686L223.753 89.8447L234.429 47.3674C240.524 23.1234 222.022 -0.322908 197.039 -0.00062157C172.064 0.321665 154.166 24.2353 160.881 48.3101L172.644 90.4973L150.181 52.9107C137.363 31.4545 107.71 27.9738 90.2789 45.8768C72.8479 63.7798 77.0828 93.3496 98.8455 105.621L136.976 127.125L94.53 116.441C70.3036 110.342 46.8824 128.866 47.2045 153.859C47.5265 178.852 71.4228 196.763 95.4801 190.043L137.637 178.272L100.077 200.751C78.6367 213.578 75.1586 243.253 93.0486 260.697C110.939 278.14 140.487 273.902 152.749 252.124L174.238 213.965L163.562 256.442C157.467 280.686 175.977 304.125 200.952 303.802C225.927 303.48 243.825 279.567 237.111 255.492L225.348 213.304L247.811 250.891C260.628 272.347 290.281 275.828 307.712 257.925C325.143 240.022 320.908 210.452 299.146 198.181L261.015 176.677L303.461 187.36C327.688 193.46 351.109 174.936 350.787 149.943C350.465 124.95 326.569 107.039 302.511 113.758L260.355 125.53L297.914 103.05C319.355 90.2234 322.833 60.5489 304.943 43.1052C287.053 25.6614 257.504 29.8995 245.242 51.678V51.686Z" fill="url(#paint0_linear_4288_8249)"/>
<path d="M167.298 182.495C167.225 182.495 167.153 182.495 167.089 182.495C162.33 182.423 157.612 179.981 153.087 175.22C152.628 174.736 152.645 173.971 153.128 173.511C153.611 173.052 154.376 173.068 154.834 173.552C158.9 177.822 163.039 180.014 167.129 180.078C171.332 180.142 175.752 177.935 180.204 173.528C180.679 173.06 181.444 173.06 181.911 173.536C182.378 174.011 182.378 174.776 181.903 175.244C177.04 180.054 172.129 182.495 167.306 182.495H167.298Z" fill="#2C2B2B"/>
<path d="M167.499 189.239C166.83 189.239 166.291 188.699 166.291 188.031V181.73C166.291 181.061 166.83 180.521 167.499 180.521C168.167 180.521 168.706 181.061 168.706 181.73V188.031C168.706 188.699 168.167 189.239 167.499 189.239Z" fill="#2C2B2B"/>
<path d="M155.792 186.589C155.454 186.589 155.124 186.452 154.882 186.178C154.44 185.679 154.488 184.913 154.987 184.47L160.043 180.014C160.542 179.571 161.307 179.62 161.75 180.119C162.193 180.619 162.145 181.384 161.645 181.827L156.589 186.283C156.356 186.484 156.074 186.581 155.792 186.581V186.589Z" fill="#2C2B2B"/>
<path d="M179.213 185.79C178.932 185.79 178.642 185.693 178.416 185.492L173.36 181.036C172.861 180.593 172.813 179.828 173.255 179.328C173.698 178.829 174.455 178.78 174.962 179.223L180.018 183.679C180.518 184.122 180.566 184.888 180.123 185.387C179.882 185.661 179.552 185.798 179.213 185.798V185.79Z" fill="#2C2B2B"/>
<path d="M223.786 182.495C223.714 182.495 223.641 182.495 223.577 182.495C218.819 182.423 214.1 179.973 209.576 175.22C209.117 174.736 209.133 173.971 209.616 173.511C210.099 173.052 210.864 173.068 211.323 173.552C215.389 177.822 219.527 180.014 223.617 180.078C227.82 180.11 232.24 177.935 236.692 173.528C237.167 173.06 237.932 173.06 238.399 173.536C238.866 174.011 238.866 174.776 238.391 175.244C233.528 180.054 228.617 182.495 223.794 182.495H223.786Z" fill="#2C2B2B"/>
<path d="M223.987 189.239C223.319 189.239 222.779 188.699 222.779 188.031V181.73C222.779 181.061 223.319 180.521 223.987 180.521C224.655 180.521 225.195 181.061 225.195 181.73V188.031C225.195 188.699 224.655 189.239 223.987 189.239Z" fill="#2C2B2B"/>
<path d="M212.28 186.589C211.942 186.589 211.612 186.452 211.371 186.178C210.928 185.679 210.976 184.913 211.475 184.47L216.532 180.014C217.031 179.571 217.796 179.62 218.238 180.119C218.681 180.619 218.633 181.384 218.134 181.827L213.077 186.283C212.844 186.484 212.562 186.581 212.28 186.581V186.589Z" fill="#2C2B2B"/>
<path d="M235.702 185.79C235.42 185.79 235.13 185.693 234.905 185.492L229.848 181.036C229.349 180.593 229.301 179.828 229.744 179.328C230.186 178.829 230.951 178.78 231.451 179.223L236.507 183.679C237.006 184.122 237.054 184.888 236.611 185.387C236.37 185.661 236.04 185.798 235.702 185.798V185.79Z" fill="#2C2B2B"/>
<path d="M185.051 160.627C184.753 160.627 184.447 160.514 184.214 160.296C183.73 159.837 183.714 159.072 184.173 158.588L187.837 154.745C188.296 154.262 189.06 154.246 189.543 154.705C190.027 155.164 190.043 155.929 189.584 156.413L185.92 160.256C185.687 160.506 185.365 160.627 185.043 160.627H185.051Z" fill="#2C2B2B"/>
<path d="M207.369 160.627C207.047 160.627 206.733 160.498 206.492 160.256L202.829 156.413C202.37 155.929 202.386 155.164 202.869 154.705C203.352 154.246 204.117 154.262 204.576 154.745L208.239 158.588C208.698 159.072 208.682 159.837 208.199 160.296C207.965 160.522 207.667 160.627 207.361 160.627H207.369Z" fill="#2C2B2B"/>
<path d="M188.263 139.816C187.941 139.816 187.627 139.687 187.385 139.446L183.722 135.602C183.263 135.119 183.279 134.353 183.762 133.894C184.245 133.435 185.01 133.451 185.469 133.935L189.133 137.778C189.592 138.261 189.575 139.027 189.092 139.486C188.859 139.711 188.561 139.816 188.255 139.816H188.263Z" fill="#2C2B2B"/>
<path d="M203.706 139.816C203.408 139.816 203.102 139.703 202.869 139.486C202.386 139.027 202.37 138.261 202.829 137.778L206.492 133.935C206.951 133.451 207.716 133.435 208.199 133.894C208.682 134.353 208.698 135.119 208.239 135.602L204.576 139.446C204.342 139.695 204.02 139.816 203.698 139.816H203.706Z" fill="#2C2B2B"/>
<path d="M174.149 146.849C188.569 161.545 202.941 160.522 217.168 146.849C202.748 132.153 188.376 133.176 174.149 146.849Z" fill="white"/>
<path d="M195.984 163.028C195.316 163.028 194.776 162.488 194.776 161.819V156.38C194.776 155.712 195.316 155.172 195.984 155.172C196.652 155.172 197.192 155.712 197.192 156.38V161.819C197.192 162.488 196.652 163.028 195.984 163.028Z" fill="#2C2B2B"/>
<path d="M195.984 139.01C195.316 139.01 194.776 138.47 194.776 137.801V132.363C194.776 131.694 195.316 131.154 195.984 131.154C196.652 131.154 197.192 131.694 197.192 132.363V137.801C197.192 138.47 196.652 139.01 195.984 139.01Z" fill="#2C2B2B"/>
<path d="M195.984 157.494C201.858 157.494 206.62 152.729 206.62 146.851C206.62 140.972 201.858 136.207 195.984 136.207C190.11 136.207 185.349 140.972 185.349 146.851C185.349 152.729 190.11 157.494 195.984 157.494Z" fill="#2C2B2B"/>
<path d="M82.9841 324.751L73.9344 311.521L60.1104 303.416L73.3386 294.367L81.4302 280.533L90.4799 293.763L104.304 301.869L91.0837 310.917L82.9841 324.751Z" fill="#B1E8F4"/>
<path d="M117.041 349.389L112.009 342.016L104.304 337.504L111.671 332.461L116.179 324.75L121.219 332.122L128.925 336.642L121.558 341.678L117.041 349.389Z" fill="#B1E8F4"/>
<path d="M306.585 324.751L315.635 311.521L329.459 303.416L316.231 294.367L308.131 280.533L299.09 293.763L285.266 301.869L298.486 310.917L306.585 324.751Z" fill="#B1E8F4"/>
<path d="M272.52 349.389L277.56 342.016L285.265 337.504L277.898 332.461L273.39 324.75L268.35 332.122L260.645 336.642L268.011 341.678L272.52 349.389Z" fill="#B1E8F4"/>
</g>
<defs>
<linearGradient id="paint0_linear_4288_8249" x1="196.25" y1="20.6112" x2="200.158" y2="330.247" gradientUnits="userSpaceOnUse">
<stop stop-color="#F5FF82"/>
<stop offset="0.5" stop-color="#B1E8F4"/>
<stop offset="1" stop-color="#6091F1"/>
</linearGradient>
<clipPath id="clip0_4288_8249">
<rect width="398" height="406" fill="white"/>
</clipPath>
</defs>
</svg>
