<svg width="406" height="420" viewBox="0 0 406 420" fill="none" xmlns="http://www.w3.org/2000/svg">
<path d="M384.397 61.0012C382.952 61.9537 382.765 61.7507 381.414 62.8282C383.007 60.0799 383.507 58.6121 385.341 56.0044C388.066 52.1163 381.664 48.4858 378.963 52.3349C378.112 53.5451 377.292 54.7786 376.495 56.02C377.011 54.4976 377.542 52.9829 378.08 51.4761C379.665 47.0024 372.545 45.1286 370.968 49.571C370.507 50.8593 369.945 54.7006 369.508 55.9888C369.523 54.6772 369.648 50.8202 369.672 49.5086C369.758 44.7694 362.395 44.8241 362.309 49.5554C362.223 54.3102 362.208 59.0728 362.247 63.8275C361.458 61.6571 360.584 59.5022 359.686 57.3473C357.882 53.0376 350.77 54.9738 352.604 59.3538C355.353 65.92 358.101 72.5641 358.234 79.7861C358.32 84.5174 365.682 84.4784 365.596 79.7392C365.581 78.9429 365.534 78.1543 365.471 77.3657C367.337 77.678 369.43 76.7333 369.742 74.5394C369.797 74.5394 369.851 74.516 369.906 74.5082C370.023 74.6097 370.148 74.7112 370.273 74.7971C369.75 75.7652 369.359 76.7568 369.195 77.7795C368.43 82.4172 375.535 84.3613 376.308 79.6924C376.722 77.1549 379.65 74.5707 381.422 72.7984C383.483 70.7372 385.732 68.9415 388.16 67.3487C392.103 64.7566 388.378 58.4013 384.404 61.0168L384.397 61.0012Z" fill="#2C2B2B"/>
<path d="M4.52199 269.266C6.04446 268.657 6.18499 268.876 7.64499 268.126C5.64627 270.39 4.90456 271.655 2.70285 273.747C-0.568498 276.855 4.71718 281.446 7.95729 278.369C8.98008 277.401 9.97163 276.41 10.9476 275.403C10.1824 276.722 9.40168 278.034 8.61313 279.338C6.2943 283.202 12.5793 286.286 14.8747 282.453C15.5462 281.336 16.7954 277.87 17.4356 276.745C17.178 277.963 16.3269 281.531 16.0615 282.749C15.0934 287.145 21.9561 288.48 22.9243 284.085C23.9002 279.665 24.8059 275.239 25.6647 270.804C25.9926 272.974 26.3986 275.145 26.828 277.315C27.6947 281.672 34.6824 281.204 33.8079 276.785C32.4885 270.148 31.169 263.442 32.4104 256.696C33.2224 252.269 26.3596 250.918 25.5476 255.361C25.4071 256.11 25.3056 256.852 25.2197 257.594C23.5411 256.953 21.4174 257.438 20.7148 259.421C20.6601 259.421 20.6133 259.421 20.5586 259.421C20.4727 259.304 20.3712 259.186 20.2697 259.077C20.9334 258.273 21.4877 257.422 21.8312 256.501C23.4161 252.324 17.1623 249.177 15.5696 253.385C14.703 255.673 11.4941 257.523 9.51099 258.843C7.20777 260.373 4.77183 261.622 2.20317 262.653C-1.95823 264.332 0.321558 270.945 4.51419 269.258L4.52199 269.266Z" fill="#2C2B2B"/>
<path d="M362.551 388.898L354.392 395.449L325.707 359.323L346.108 354.795C362.855 374.767 388.526 357.504 403.368 360.229C414.322 363.165 385.427 383.667 371.404 384.378C359.389 383.933 356.687 381.965 355.024 380.669L362.551 388.89V388.898Z" fill="#2C2B2B"/>
<path d="M253.585 235.754L238.791 247.254L331.338 366.308L346.132 354.808L253.585 235.754Z" fill="#2C2B2B"/>
<path d="M179.128 368.913C172.859 371.263 165.902 372.84 158.259 373.644L156.291 355.007C173.858 353.157 185.85 346.568 192.955 334.872C205.01 315.017 200.817 281.711 191.308 257.507L208.75 250.652C211.958 258.827 217.549 275.488 218.876 295.257C220.203 314.986 216.869 331.585 208.968 344.592C202.09 355.921 192.088 364.056 179.12 368.905L179.128 368.913Z" fill="#2C2B2B"/>
<path d="M120.697 370.461L120.323 357.047L159.079 354.775L158.689 373.404C134.267 377.206 131.183 403.604 126.264 417.704C122.321 428.978 114.545 395.773 120.127 382.89C125.85 372.319 128.817 370.773 130.722 369.859L120.705 370.468L120.697 370.461Z" fill="#2C2B2B"/>
<path d="M292.408 141.417L291.854 122.686C312.598 122.07 353.822 109.429 361.348 65.9648L379.813 69.1659C370.217 124.56 318.446 140.651 292.408 141.424V141.417Z" fill="#2C2B2B"/>
<path d="M31.536 264.377L13.1025 261.028C23.2991 204.939 75.2424 189.082 101.288 188.527L101.686 207.258C80.9341 207.695 39.5622 220.195 31.536 264.377Z" fill="#2C2B2B"/>
<path d="M146.595 333.794L134.72 253.416L42.1309 291.595L102.67 202.675L17.7949 156.447L125.601 140.426L113.062 63.3657L178.005 100.553L220.54 0L253.675 87.6236L311.747 56.5732L292.658 135.507L396.935 145.305L311.263 180.627L359.521 233.827L268.103 238.019L255.026 323.847L212.725 260.849L146.619 333.786L146.595 333.794Z" fill="url(#paint0_linear_4288_8184)"/>
<path d="M163.374 196.798C163.866 199.663 166.115 202.013 169.472 203.465C172.821 204.91 177.217 205.425 181.862 204.644C182.471 204.543 183.057 204.418 183.635 204.277C187.515 203.34 190.841 201.607 193.16 199.452C195.846 196.985 197.173 194.026 196.673 191.161C196.181 188.295 193.933 185.945 190.576 184.501C187.741 183.275 184.173 182.713 180.324 183.056C179.622 183.111 178.896 183.205 178.177 183.322C173.532 184.11 169.558 186.047 166.88 188.514C164.194 190.981 162.867 193.94 163.366 196.805L163.374 196.798Z" fill="white"/>
<path d="M162.703 176.295C162.5 176.295 162.297 176.217 162.148 176.061C161.844 175.757 161.852 175.257 162.156 174.96C170.463 166.817 183.354 165.146 194.237 170.783C194.62 170.979 194.768 171.455 194.573 171.837C194.378 172.22 193.901 172.368 193.519 172.173C183.236 166.841 171.072 168.41 163.249 176.077C163.101 176.225 162.898 176.303 162.703 176.303V176.295Z" fill="#2C2B2B"/>
<path d="M218.606 188.45C219.098 191.315 221.346 193.665 224.703 195.118C228.053 196.562 232.448 197.077 237.094 196.297C237.703 196.195 238.288 196.07 238.866 195.93C242.746 194.993 246.072 193.259 248.391 191.105C251.077 188.637 252.404 185.678 251.905 182.813C251.413 179.948 249.164 177.598 245.807 176.153C242.973 174.927 239.405 174.365 235.556 174.709C234.853 174.763 234.127 174.857 233.409 174.974C228.763 175.763 224.789 177.699 222.111 180.166C219.425 182.633 218.098 185.592 218.598 188.458L218.606 188.45Z" fill="white"/>
<path d="M217.925 167.941C217.722 167.941 217.519 167.863 217.371 167.707C217.066 167.403 217.074 166.903 217.379 166.606C225.678 158.463 238.576 156.785 249.46 162.429C249.842 162.625 249.991 163.101 249.796 163.483C249.6 163.866 249.124 164.014 248.742 163.819C238.459 158.487 226.295 160.056 218.472 167.723C218.324 167.871 218.12 167.949 217.925 167.949V167.941Z" fill="#2C2B2B"/>
<path d="M264.972 367.748L258.086 353.82L245.914 344.162L259.843 337.275L269.501 325.111L276.387 339.04L288.559 348.69L274.63 355.576L264.972 367.748Z" fill="#B1E8F4"/>
<path d="M294.321 396.018L290.488 388.265L283.711 382.886L291.464 379.044L296.843 372.268L300.684 380.028L307.461 385.408L299.701 389.241L294.321 396.018Z" fill="#B1E8F4"/>
<path d="M59.7827 347.344L52.8965 333.415L40.7324 323.757L54.6532 316.871L64.3111 304.707L71.1973 318.628L83.3692 328.286L69.4406 335.172L59.7827 347.344Z" fill="#B1E8F4"/>
<path d="M89.1319 375.616L85.2984 367.855L78.5215 362.476L86.2821 358.642L91.6615 351.865L95.495 359.626L102.272 365.005L94.5113 368.839L89.1319 375.616Z" fill="#B1E8F4"/>
<path d="M238.871 195.924C242.751 194.987 246.077 193.254 248.396 191.099C251.082 188.632 252.409 185.673 251.909 182.807C251.418 179.942 249.169 177.592 245.812 176.147C242.978 174.922 239.41 174.359 235.561 174.703C231.071 176.975 228.409 181.777 229.268 186.711C230.103 191.536 234.038 195.127 238.871 195.924Z" fill="#444444"/>
<path d="M183.64 204.266C187.521 203.329 190.847 201.595 193.166 199.441C195.851 196.973 197.179 194.014 196.679 191.149C196.187 188.284 193.939 185.934 190.581 184.489C187.747 183.263 184.179 182.701 180.33 183.045C175.841 185.317 173.178 190.118 174.037 195.053C174.873 199.878 178.808 203.469 183.64 204.266Z" fill="#444444"/>
<defs>
<linearGradient id="paint0_linear_4288_8184" x1="209.86" y1="32.2354" x2="218.749" y2="368.117" gradientUnits="userSpaceOnUse">
<stop stop-color="#F5FF82"/>
<stop offset="0.5" stop-color="#B1E8F4"/>
<stop offset="1" stop-color="#6091F1"/>
</linearGradient>
</defs>
</svg>
