<svg width="630" height="68" viewBox="0 0 630 68" fill="none" xmlns="http://www.w3.org/2000/svg">
<path d="M52.5 16H575" stroke="#2C2B2B" stroke-width="2"/>
<path d="M56 16L575.5 16" stroke="#7A7A7A" stroke-width="2"/>
<circle cx="45" cy="16.5" r="16.5" fill="#2C2B2B"/>
<circle cx="320" cy="16.5" r="16" fill="white" stroke="#7A7A7A"/>
<circle cx="585" cy="16.5" r="16" fill="white" stroke="#7A7A7A"/>
<path d="M44.376 24V11.812L41.846 12.406V10.25L45.564 8.6H47.302V24H44.376Z" fill="white"/>
<path d="M314.838 24V21.954C315.776 21.1767 316.686 20.4067 317.566 19.644C318.46 18.8813 319.252 18.126 319.942 17.378C320.646 16.63 321.203 15.904 321.614 15.2C322.039 14.4813 322.252 13.7847 322.252 13.11C322.252 12.4793 322.076 11.922 321.724 11.438C321.386 10.954 320.822 10.712 320.03 10.712C319.223 10.712 318.614 10.976 318.204 11.504C317.793 12.032 317.588 12.67 317.588 13.418H314.86C314.889 12.2887 315.138 11.35 315.608 10.602C316.077 9.83933 316.7 9.27467 317.478 8.908C318.255 8.52667 319.128 8.336 320.096 8.336C321.665 8.336 322.882 8.76867 323.748 9.634C324.628 10.4847 325.068 11.592 325.068 12.956C325.068 13.8067 324.87 14.6353 324.474 15.442C324.092 16.2487 323.586 17.026 322.956 17.774C322.325 18.522 321.643 19.226 320.91 19.886C320.176 20.5313 319.465 21.1327 318.776 21.69H325.442V24H314.838Z" fill="#7A7A7A"/>
<path d="M584.981 24.264C583.969 24.264 583.053 24.088 582.231 23.736C581.41 23.3693 580.75 22.812 580.251 22.064C579.753 21.316 579.489 20.3773 579.459 19.248H582.231C582.246 19.996 582.488 20.6267 582.957 21.14C583.441 21.6387 584.116 21.888 584.981 21.888C585.803 21.888 586.433 21.6607 586.873 21.206C587.313 20.7513 587.533 20.1793 587.533 19.49C587.533 18.6833 587.24 18.0747 586.653 17.664C586.081 17.2387 585.341 17.026 584.431 17.026H583.287V14.716H584.453C585.201 14.716 585.825 14.54 586.323 14.188C586.822 13.836 587.071 13.3153 587.071 12.626C587.071 12.054 586.881 11.5993 586.499 11.262C586.133 10.91 585.619 10.734 584.959 10.734C584.241 10.734 583.676 10.9467 583.265 11.372C582.869 11.7973 582.649 12.318 582.605 12.934H579.855C579.914 11.5113 580.405 10.3893 581.329 9.568C582.268 8.74667 583.478 8.336 584.959 8.336C586.015 8.336 586.903 8.52667 587.621 8.908C588.355 9.27467 588.905 9.766 589.271 10.382C589.653 10.998 589.843 11.68 589.843 12.428C589.843 13.2933 589.601 14.0267 589.117 14.628C588.648 15.2147 588.061 15.6107 587.357 15.816C588.223 15.992 588.927 16.4173 589.469 17.092C590.012 17.752 590.283 18.588 590.283 19.6C590.283 20.4507 590.078 21.228 589.667 21.932C589.257 22.636 588.655 23.2007 587.863 23.626C587.086 24.0513 586.125 24.264 584.981 24.264Z" fill="#7A7A7A"/>
<path d="M6.42 58L10.032 48.2H11.278L14.876 58H13.63L12.734 55.48H8.562L7.652 58H6.42ZM8.912 54.528H12.384L10.648 49.684L8.912 54.528ZM16.3329 58V48.2H19.4969C20.2622 48.2 20.8875 48.326 21.3729 48.578C21.8582 48.83 22.2175 49.1753 22.4509 49.614C22.6842 50.0527 22.8009 50.538 22.8009 51.07C22.8009 51.686 22.6329 52.2413 22.2969 52.736C21.9702 53.2307 21.4569 53.5807 20.7569 53.786L22.8989 58H21.5129L19.5249 53.954H19.4409H17.5089V58H16.3329ZM17.5089 53.03H19.4129C20.1689 53.03 20.7195 52.848 21.0649 52.484C21.4102 52.12 21.5829 51.6533 21.5829 51.084C21.5829 50.5053 21.4102 50.048 21.0649 49.712C20.7289 49.3667 20.1735 49.194 19.3989 49.194H17.5089V53.03ZM28.9297 58.168C27.9684 58.168 27.1377 57.958 26.4377 57.538C25.747 57.1087 25.2104 56.516 24.8277 55.76C24.445 54.9947 24.2537 54.108 24.2537 53.1C24.2537 52.1013 24.445 51.224 24.8277 50.468C25.2104 49.7027 25.747 49.1053 26.4377 48.676C27.1377 48.2467 27.9684 48.032 28.9297 48.032C30.0497 48.032 30.9597 48.3027 31.6597 48.844C32.369 49.376 32.8217 50.1227 33.0177 51.084H31.7157C31.5664 50.4773 31.2584 49.992 30.7917 49.628C30.3344 49.2547 29.7137 49.068 28.9297 49.068C28.2297 49.068 27.6184 49.2313 27.0957 49.558C26.573 49.8753 26.167 50.3373 25.8777 50.944C25.5977 51.5413 25.4577 52.26 25.4577 53.1C25.4577 53.94 25.5977 54.6633 25.8777 55.27C26.167 55.8673 26.573 56.3293 27.0957 56.656C27.6184 56.9733 28.2297 57.132 28.9297 57.132C29.7137 57.132 30.3344 56.9547 30.7917 56.6C31.2584 56.236 31.5664 55.7553 31.7157 55.158H33.0177C32.8217 56.1007 32.369 56.838 31.6597 57.37C30.9597 57.902 30.0497 58.168 28.9297 58.168ZM34.7079 58V48.2H35.8839V52.526H40.9659V48.2H42.1419V58H40.9659V53.492H35.8839V58H34.7079ZM44.2098 58V48.2H50.2718V49.166H45.3858V52.582H49.8518V53.534H45.3858V57.034H50.2718V58H44.2098ZM54.4082 58V49.166H51.4822V48.2H58.5102V49.166H55.5842V58H54.4082ZM62.3822 58V54.276L59.1902 48.2H60.5202L62.9702 53.156L65.4202 48.2H66.7362L63.5582 54.276V58H62.3822ZM68.0536 58V48.2H71.2736C72.0389 48.2 72.6689 48.326 73.1636 48.578C73.6582 48.83 74.0222 49.1707 74.2556 49.6C74.4982 50.0293 74.6196 50.5147 74.6196 51.056C74.6196 51.588 74.5029 52.0687 74.2696 52.498C74.0362 52.9273 73.6722 53.2727 73.1776 53.534C72.6829 53.786 72.0482 53.912 71.2736 53.912H69.2296V58H68.0536ZM69.2296 52.918H71.2456C72.0296 52.918 72.5849 52.7547 72.9116 52.428C73.2476 52.092 73.4156 51.6347 73.4156 51.056C73.4156 50.468 73.2476 50.0107 72.9116 49.684C72.5849 49.348 72.0296 49.18 71.2456 49.18H69.2296V52.918ZM76.161 58V48.2H82.223V49.166H77.337V52.582H81.803V53.534H77.337V57.034H82.223V58H76.161Z" fill="black"/>
<path d="M293.488 58.168C292.527 58.168 291.682 57.958 290.954 57.538C290.235 57.1087 289.671 56.5113 289.26 55.746C288.859 54.9807 288.658 54.0987 288.658 53.1C288.658 52.1013 288.859 51.224 289.26 50.468C289.671 49.7027 290.235 49.1053 290.954 48.676C291.682 48.2467 292.527 48.032 293.488 48.032C294.459 48.032 295.303 48.2467 296.022 48.676C296.75 49.1053 297.315 49.7027 297.716 50.468C298.117 51.224 298.318 52.1013 298.318 53.1C298.318 54.0987 298.117 54.9807 297.716 55.746C297.315 56.502 296.764 57.09 296.064 57.51L298.542 59.89H297.016L295.028 57.958C294.552 58.098 294.039 58.168 293.488 58.168ZM293.488 57.132C294.207 57.132 294.837 56.9733 295.378 56.656C295.929 56.3293 296.353 55.8673 296.652 55.27C296.96 54.6633 297.114 53.94 297.114 53.1C297.114 52.26 296.96 51.5413 296.652 50.944C296.353 50.3467 295.929 49.8893 295.378 49.572C294.837 49.2453 294.207 49.082 293.488 49.082C292.769 49.082 292.135 49.2453 291.584 49.572C291.043 49.8893 290.618 50.3467 290.31 50.944C290.011 51.5413 289.862 52.26 289.862 53.1C289.862 53.94 290.011 54.6633 290.31 55.27C290.618 55.8673 291.043 56.3293 291.584 56.656C292.135 56.9733 292.769 57.132 293.488 57.132ZM303.625 58.168C302.953 58.168 302.342 58.0373 301.791 57.776C301.25 57.5053 300.816 57.09 300.489 56.53C300.162 55.97 299.999 55.256 299.999 54.388V48.2H301.175V54.402C301.175 55.354 301.404 56.0447 301.861 56.474C302.318 56.9033 302.916 57.118 303.653 57.118C304.39 57.118 304.983 56.9033 305.431 56.474C305.879 56.0447 306.103 55.354 306.103 54.402V48.2H307.279V54.388C307.279 55.256 307.116 55.97 306.789 56.53C306.462 57.09 306.024 57.5053 305.473 57.776C304.922 58.0373 304.306 58.168 303.625 58.168ZM309.27 58V48.2H315.332V49.166H310.446V52.582H314.912V53.534H310.446V57.034H315.332V58H309.27ZM320.295 58.168C319.576 58.168 318.951 58.0373 318.419 57.776C317.887 57.5147 317.476 57.1507 317.187 56.684C316.897 56.2173 316.753 55.676 316.753 55.06H317.985C317.985 55.4427 318.073 55.7973 318.251 56.124C318.428 56.4413 318.685 56.698 319.021 56.894C319.366 57.0807 319.791 57.174 320.295 57.174C320.957 57.174 321.471 57.0153 321.835 56.698C322.199 56.3807 322.381 55.984 322.381 55.508C322.381 55.116 322.297 54.8033 322.129 54.57C321.961 54.3273 321.732 54.1313 321.443 53.982C321.163 53.8327 320.836 53.702 320.463 53.59C320.099 53.478 319.716 53.352 319.315 53.212C318.559 52.9507 317.999 52.6287 317.635 52.246C317.271 51.854 317.089 51.3453 317.089 50.72C317.079 50.1973 317.201 49.7353 317.453 49.334C317.705 48.9233 318.059 48.606 318.517 48.382C318.983 48.1487 319.534 48.032 320.169 48.032C320.794 48.032 321.335 48.1487 321.793 48.382C322.259 48.6153 322.619 48.9373 322.871 49.348C323.132 49.7587 323.267 50.2253 323.277 50.748H322.045C322.045 50.4773 321.975 50.2113 321.835 49.95C321.695 49.6793 321.48 49.46 321.191 49.292C320.911 49.124 320.556 49.04 320.127 49.04C319.595 49.0307 319.156 49.166 318.811 49.446C318.475 49.726 318.307 50.1133 318.307 50.608C318.307 51.028 318.423 51.35 318.657 51.574C318.899 51.798 319.235 51.9847 319.665 52.134C320.094 52.274 320.589 52.4373 321.149 52.624C321.615 52.792 322.035 52.988 322.409 53.212C322.782 53.436 323.071 53.7253 323.277 54.08C323.491 54.4347 323.599 54.8873 323.599 55.438C323.599 55.9047 323.477 56.348 323.235 56.768C322.992 57.1787 322.623 57.5147 322.129 57.776C321.643 58.0373 321.032 58.168 320.295 58.168ZM327.33 58V49.166H324.404V48.2H331.432V49.166H328.506V58H327.33ZM332.868 58V48.2H334.044V58H332.868ZM340.574 58.168C339.613 58.168 338.768 57.958 338.04 57.538C337.321 57.1087 336.757 56.5113 336.346 55.746C335.945 54.9807 335.744 54.0987 335.744 53.1C335.744 52.1013 335.945 51.224 336.346 50.468C336.757 49.7027 337.321 49.1053 338.04 48.676C338.768 48.2467 339.613 48.032 340.574 48.032C341.545 48.032 342.389 48.2467 343.108 48.676C343.836 49.1053 344.401 49.7027 344.802 50.468C345.203 51.224 345.404 52.1013 345.404 53.1C345.404 54.0987 345.203 54.9807 344.802 55.746C344.401 56.5113 343.836 57.1087 343.108 57.538C342.389 57.958 341.545 58.168 340.574 58.168ZM340.574 57.132C341.293 57.132 341.923 56.9733 342.464 56.656C343.015 56.3293 343.439 55.8673 343.738 55.27C344.046 54.6633 344.2 53.94 344.2 53.1C344.2 52.26 344.046 51.5413 343.738 50.944C343.439 50.3467 343.015 49.8893 342.464 49.572C341.923 49.2453 341.293 49.082 340.574 49.082C339.855 49.082 339.221 49.2453 338.67 49.572C338.129 49.8893 337.704 50.3467 337.396 50.944C337.097 51.5413 336.948 52.26 336.948 53.1C336.948 53.94 337.097 54.6633 337.396 55.27C337.704 55.8673 338.129 56.3293 338.67 56.656C339.221 56.9733 339.855 57.132 340.574 57.132ZM347.1 58V48.2H348.276L353.498 56.054V48.2H354.674V58H353.498L348.276 50.146V58H347.1ZM359.875 58.168C359.156 58.168 358.531 58.0373 357.999 57.776C357.467 57.5147 357.056 57.1507 356.767 56.684C356.477 56.2173 356.333 55.676 356.333 55.06H357.565C357.565 55.4427 357.653 55.7973 357.831 56.124C358.008 56.4413 358.265 56.698 358.601 56.894C358.946 57.0807 359.371 57.174 359.875 57.174C360.537 57.174 361.051 57.0153 361.415 56.698C361.779 56.3807 361.961 55.984 361.961 55.508C361.961 55.116 361.877 54.8033 361.709 54.57C361.541 54.3273 361.312 54.1313 361.023 53.982C360.743 53.8327 360.416 53.702 360.043 53.59C359.679 53.478 359.296 53.352 358.895 53.212C358.139 52.9507 357.579 52.6287 357.215 52.246C356.851 51.854 356.669 51.3453 356.669 50.72C356.659 50.1973 356.781 49.7353 357.033 49.334C357.285 48.9233 357.639 48.606 358.097 48.382C358.563 48.1487 359.114 48.032 359.749 48.032C360.374 48.032 360.915 48.1487 361.373 48.382C361.839 48.6153 362.199 48.9373 362.451 49.348C362.712 49.7587 362.847 50.2253 362.857 50.748H361.625C361.625 50.4773 361.555 50.2113 361.415 49.95C361.275 49.6793 361.06 49.46 360.771 49.292C360.491 49.124 360.136 49.04 359.707 49.04C359.175 49.0307 358.736 49.166 358.391 49.446C358.055 49.726 357.887 50.1133 357.887 50.608C357.887 51.028 358.003 51.35 358.237 51.574C358.479 51.798 358.815 51.9847 359.245 52.134C359.674 52.274 360.169 52.4373 360.729 52.624C361.195 52.792 361.615 52.988 361.989 53.212C362.362 53.436 362.651 53.7253 362.857 54.08C363.071 54.4347 363.179 54.8873 363.179 55.438C363.179 55.9047 363.057 56.348 362.815 56.768C362.572 57.1787 362.203 57.5147 361.709 57.776C361.223 58.0373 360.612 58.168 359.875 58.168Z" fill="#7A7A7A"/>
<path d="M559.036 58V48.2H562.2C562.965 48.2 563.591 48.326 564.076 48.578C564.561 48.83 564.921 49.1753 565.154 49.614C565.387 50.0527 565.504 50.538 565.504 51.07C565.504 51.686 565.336 52.2413 565 52.736C564.673 53.2307 564.16 53.5807 563.46 53.786L565.602 58H564.216L562.228 53.954H562.144H560.212V58H559.036ZM560.212 53.03H562.116C562.872 53.03 563.423 52.848 563.768 52.484C564.113 52.12 564.286 51.6533 564.286 51.084C564.286 50.5053 564.113 50.048 563.768 49.712C563.432 49.3667 562.877 49.194 562.102 49.194H560.212V53.03ZM567.335 58V48.2H573.397V49.166H568.511V52.582H572.977V53.534H568.511V57.034H573.397V58H567.335ZM578.359 58.168C577.641 58.168 577.015 58.0373 576.483 57.776C575.951 57.5147 575.541 57.1507 575.251 56.684C574.962 56.2173 574.817 55.676 574.817 55.06H576.049C576.049 55.4427 576.138 55.7973 576.315 56.124C576.493 56.4413 576.749 56.698 577.085 56.894C577.431 57.0807 577.855 57.174 578.359 57.174C579.022 57.174 579.535 57.0153 579.899 56.698C580.263 56.3807 580.445 55.984 580.445 55.508C580.445 55.116 580.361 54.8033 580.193 54.57C580.025 54.3273 579.797 54.1313 579.507 53.982C579.227 53.8327 578.901 53.702 578.527 53.59C578.163 53.478 577.781 53.352 577.379 53.212C576.623 52.9507 576.063 52.6287 575.699 52.246C575.335 51.854 575.153 51.3453 575.153 50.72C575.144 50.1973 575.265 49.7353 575.517 49.334C575.769 48.9233 576.124 48.606 576.581 48.382C577.048 48.1487 577.599 48.032 578.233 48.032C578.859 48.032 579.4 48.1487 579.857 48.382C580.324 48.6153 580.683 48.9373 580.935 49.348C581.197 49.7587 581.332 50.2253 581.341 50.748H580.109C580.109 50.4773 580.039 50.2113 579.899 49.95C579.759 49.6793 579.545 49.46 579.255 49.292C578.975 49.124 578.621 49.04 578.191 49.04C577.659 49.0307 577.221 49.166 576.875 49.446C576.539 49.726 576.371 50.1133 576.371 50.608C576.371 51.028 576.488 51.35 576.721 51.574C576.964 51.798 577.3 51.9847 577.729 52.134C578.159 52.274 578.653 52.4373 579.213 52.624C579.68 52.792 580.1 52.988 580.473 53.212C580.847 53.436 581.136 53.7253 581.341 54.08C581.556 54.4347 581.663 54.8873 581.663 55.438C581.663 55.9047 581.542 56.348 581.299 56.768C581.057 57.1787 580.688 57.5147 580.193 57.776C579.708 58.0373 579.097 58.168 578.359 58.168ZM586.873 58.168C586.201 58.168 585.59 58.0373 585.039 57.776C584.498 57.5053 584.064 57.09 583.737 56.53C583.41 55.97 583.247 55.256 583.247 54.388V48.2H584.423V54.402C584.423 55.354 584.652 56.0447 585.109 56.474C585.566 56.9033 586.164 57.118 586.901 57.118C587.638 57.118 588.231 56.9033 588.679 56.474C589.127 56.0447 589.351 55.354 589.351 54.402V48.2H590.527V54.388C590.527 55.256 590.364 55.97 590.037 56.53C589.71 57.09 589.272 57.5053 588.721 57.776C588.17 58.0373 587.554 58.168 586.873 58.168ZM592.518 58V48.2H593.694V57.062H598.258V58H592.518ZM600.611 58V49.166H597.685V48.2H604.713V49.166H601.787V58H600.611ZM609.039 58.168C608.32 58.168 607.695 58.0373 607.163 57.776C606.631 57.5147 606.22 57.1507 605.931 56.684C605.642 56.2173 605.497 55.676 605.497 55.06H606.729C606.729 55.4427 606.818 55.7973 606.995 56.124C607.172 56.4413 607.429 56.698 607.765 56.894C608.11 57.0807 608.535 57.174 609.039 57.174C609.702 57.174 610.215 57.0153 610.579 56.698C610.943 56.3807 611.125 55.984 611.125 55.508C611.125 55.116 611.041 54.8033 610.873 54.57C610.705 54.3273 610.476 54.1313 610.187 53.982C609.907 53.8327 609.58 53.702 609.207 53.59C608.843 53.478 608.46 53.352 608.059 53.212C607.303 52.9507 606.743 52.6287 606.379 52.246C606.015 51.854 605.833 51.3453 605.833 50.72C605.824 50.1973 605.945 49.7353 606.197 49.334C606.449 48.9233 606.804 48.606 607.261 48.382C607.728 48.1487 608.278 48.032 608.913 48.032C609.538 48.032 610.08 48.1487 610.537 48.382C611.004 48.6153 611.363 48.9373 611.615 49.348C611.876 49.7587 612.012 50.2253 612.021 50.748H610.789C610.789 50.4773 610.719 50.2113 610.579 49.95C610.439 49.6793 610.224 49.46 609.935 49.292C609.655 49.124 609.3 49.04 608.871 49.04C608.339 49.0307 607.9 49.166 607.555 49.446C607.219 49.726 607.051 50.1133 607.051 50.608C607.051 51.028 607.168 51.35 607.401 51.574C607.644 51.798 607.98 51.9847 608.409 52.134C608.838 52.274 609.333 52.4373 609.893 52.624C610.36 52.792 610.78 52.988 611.153 53.212C611.526 53.436 611.816 53.7253 612.021 54.08C612.236 54.4347 612.343 54.8873 612.343 55.438C612.343 55.9047 612.222 56.348 611.979 56.768C611.736 57.1787 611.368 57.5147 610.873 57.776C610.388 58.0373 609.776 58.168 609.039 58.168Z" fill="#7A7A7A"/>
</svg>
