<svg width="51" height="68" viewBox="0 0 51 68" fill="none" xmlns="http://www.w3.org/2000/svg">
<path d="M0 10.1991V57.799C0 58.7008 0.358214 59.5656 0.995838 60.2032C1.63346 60.8408 2.49826 61.199 3.4 61.199H13.6V54.399H6.8V13.5991H13.6V6.79906H3.4C2.49826 6.79906 1.63346 7.15727 0.995838 7.79489C0.358214 8.43252 0 9.29732 0 10.1991ZM48.4228 6.90106L21.2228 0.101061C20.7217 -0.0239204 20.1987 -0.0331044 19.6935 0.0742066C19.1884 0.181517 18.7143 0.402503 18.3072 0.72039C17.9002 1.03828 17.5709 1.44471 17.3444 1.90884C17.1179 2.37297 17.0001 2.88261 17 3.39906V64.599C16.9988 65.1159 17.1157 65.6262 17.3418 66.091C17.5679 66.5559 17.8972 66.9629 18.3046 67.281C18.712 67.5992 19.1867 67.8201 19.6924 67.9268C20.1981 68.0336 20.7216 68.0234 21.2228 67.897L48.4228 61.097C49.1587 60.9135 49.812 60.4892 50.279 59.8916C50.746 59.294 50.9998 58.5574 51 57.799V10.1991C50.9998 9.44064 50.746 8.70407 50.279 8.10648C49.812 7.50889 49.1587 7.08459 48.4228 6.90106ZM34 34.6382C33.9608 35.5137 33.5855 36.3403 32.9522 36.9459C32.3188 37.5515 31.4763 37.8895 30.6 37.8895C29.7237 37.8895 28.8812 37.5515 28.2478 36.9459C27.6145 36.3403 27.2392 35.5137 27.2 34.6382V33.3564C27.2005 32.4547 27.5591 31.5901 28.197 30.9528C28.835 30.3155 29.7 29.9577 30.6017 29.9581C31.5034 29.9586 32.3681 30.3172 33.0054 30.9552C33.6427 31.5931 34.0005 32.4581 34 33.3598V34.6382Z" fill="black"/>
</svg>
