<svg width="24" height="24" viewBox="0 0 24 24" fill="none" xmlns="http://www.w3.org/2000/svg">
<circle cx="12" cy="12" r="12" fill="#F5FF82"/>
<path d="M11.6589 7C12.0061 7.00188 12.8745 7.01 13.7975 7.04563L14.1252 7.05938C15.0541 7.10126 15.9823 7.17376 16.4432 7.29689C17.0575 7.46315 17.5398 7.94693 17.7029 8.56072C17.9629 9.53578 17.9954 11.4372 17.9993 11.8978L18 11.9928V12.1016C17.9954 12.5622 17.9629 14.4642 17.7029 15.4387C17.5378 16.0543 17.0549 16.5387 16.4432 16.7025C15.9823 16.8256 15.0541 16.8981 14.1252 16.94L13.7975 16.9544C12.8745 16.9894 12.0061 16.9981 11.6589 16.9994L11.5062 17H11.3404C10.6059 16.9956 7.53383 16.9637 6.55618 16.7025C5.94255 16.5362 5.45957 16.0524 5.29641 15.4387C5.0364 14.4636 5.0039 12.5622 5 12.1016V11.8978C5.0039 11.4372 5.0364 9.53516 5.29641 8.56072C5.46152 7.94506 5.9445 7.46065 6.55683 7.29752C7.53383 7.03563 10.6065 7.00375 11.3411 7H11.6589ZM10.1996 9.81268V14.1879L14.0998 12.0003L10.1996 9.81268Z" fill="#2C2B2B"/>
</svg>
