<svg width="43" height="67" viewBox="0 0 43 67" fill="none" xmlns="http://www.w3.org/2000/svg">
<path fill-rule="evenodd" clip-rule="evenodd" d="M9.74024 8.68918C6.95515 11.2542 5 15.2718 5 21.1888C5 27.8324 5.91421 29.4117 6.43236 30.1093C6.71613 30.4913 6.9356 30.7086 7.31183 31.0811L7.31185 31.0812L7.31187 31.0812L7.31188 31.0812C7.56159 31.3284 7.88036 31.644 8.3328 32.1216C9.33029 33.1743 10.4185 34.513 11.4408 36.5576C13.1429 39.9618 14.0957 42.6571 14.628 44.6411H28.5504C29.0827 42.6571 30.0355 39.9618 31.7376 36.5576C32.7599 34.513 33.8481 33.1743 34.8456 32.1216C35.2979 31.6442 35.6166 31.3286 35.8663 31.0814L35.8665 31.0812L35.8665 31.0812C36.2428 30.7086 36.4623 30.4913 36.746 30.1093C37.2642 29.4117 38.1784 27.8324 38.1784 21.1888C38.1784 15.2718 36.2232 11.2542 33.4382 8.68918C30.5992 6.07452 26.4926 4.59961 21.5892 4.59961C16.6858 4.59961 12.5792 6.07452 9.74024 8.68918ZM1 21.1888C1 7.46268 10.2181 0.599609 21.5892 0.599609C32.9603 0.599609 42.1784 7.46268 42.1784 21.1888C42.1784 30.4319 40.5297 32.0799 38.4673 34.1414C37.467 35.1412 36.3694 36.2383 35.3153 38.3465C32.9498 43.0775 32.215 46.1779 31.9867 47.6476C31.9019 48.1933 31.4361 48.6411 30.8838 48.6411H12.2946C11.7423 48.6411 11.2765 48.1934 11.1917 47.6476C10.9634 46.1779 10.2286 43.0775 7.86307 38.3465C6.80899 36.2383 5.71137 35.1412 4.71108 34.1414C2.64865 32.0799 1 30.4319 1 21.1888ZM11.2969 52.5723C11.2969 52.2961 11.5207 52.0723 11.7969 52.0723H31.3861C31.6622 52.0723 31.8861 52.2961 31.8861 52.5723V62.1079C31.8861 62.2703 31.8094 62.421 31.675 62.5122C30.8269 63.0883 27.591 65.208 25.0759 65.7864C25.0404 65.7946 25.0039 65.7984 24.9674 65.7984H18.2148C18.1783 65.7984 18.1426 65.7946 18.107 65.7864C15.5919 65.208 12.3561 63.0883 11.5079 62.5122C11.3736 62.421 11.2969 62.2703 11.2969 62.1079V52.5723ZM16.7188 19.4734C16.7188 19.142 16.9444 18.2844 17.5673 17.5058C18.1396 16.7905 18.8938 16.3262 19.866 16.3262C20.9706 16.3262 21.866 15.4307 21.866 14.3262C21.866 13.2216 20.9706 12.3262 19.866 12.3262C17.4068 12.3262 15.5874 13.5776 14.4438 15.007C13.351 16.373 12.7188 18.0891 12.7188 19.4734C12.7188 20.578 13.6142 21.4734 14.7188 21.4734C15.8233 21.4734 16.7188 20.578 16.7188 19.4734Z" fill="#222222"/>
<path d="M9.74024 8.68918L9.40152 8.3214L9.74024 8.68918ZM6.43236 30.1093L6.83375 29.8111H6.83375L6.43236 30.1093ZM7.31183 31.0811L7.66539 30.7276L7.66363 30.7258L7.31183 31.0811ZM7.31187 31.0812L7.68045 30.7433L7.6731 30.7353L7.66542 30.7276L7.31187 31.0812ZM7.31188 31.0812L6.94331 31.419L6.95149 31.428L6.96009 31.4365L7.31188 31.0812ZM8.3328 32.1216L8.69576 31.7777H8.69576L8.3328 32.1216ZM14.628 44.6411L14.1451 44.7706L14.2444 45.1411H14.628V44.6411ZM28.5504 44.6411V45.1411H28.934L29.0333 44.7706L28.5504 44.6411ZM31.7376 36.5576L32.1848 36.7812L31.7376 36.5576ZM34.8456 32.1216L34.4826 31.7777H34.4826L34.8456 32.1216ZM35.8663 31.0814L35.5181 30.7226L35.5145 30.7261L35.8663 31.0814ZM35.8665 31.0812L36.2148 31.44L36.2201 31.4347L35.8665 31.0812ZM35.8665 31.0812L35.5147 30.7259L35.513 30.7276L35.8665 31.0812ZM36.746 30.1093L36.3446 29.8111L36.746 30.1093ZM33.4382 8.68918L33.0994 9.05696L33.4382 8.68918ZM38.4673 34.1414L38.8208 34.495L38.4673 34.1414ZM35.3153 38.3465L35.7625 38.5701L35.3153 38.3465ZM31.9867 47.6476L32.4807 47.7244V47.7243L31.9867 47.6476ZM11.1917 47.6476L10.6976 47.7244L11.1917 47.6476ZM4.71108 34.1414L5.06455 33.7877L4.71108 34.1414ZM31.675 62.5122L31.3941 62.0986L31.3941 62.0986L31.675 62.5122ZM25.0759 65.7864L24.9639 65.2991L24.9638 65.2992L25.0759 65.7864ZM18.107 65.7864L18.2191 65.2992L18.2191 65.2991L18.107 65.7864ZM11.5079 62.5122L11.7888 62.0986L11.7888 62.0986L11.5079 62.5122ZM17.5673 17.5058L17.1769 17.1934H17.1769L17.5673 17.5058ZM14.4438 15.007L14.0534 14.6946L14.4438 15.007ZM5.5 21.1888C5.5 15.3904 7.41125 11.5139 10.079 9.05696L9.40152 8.3214C6.49905 10.9945 4.5 15.1532 4.5 21.1888H5.5ZM6.83375 29.8111C6.41498 29.2473 5.5 27.8053 5.5 21.1888H4.5C4.5 27.8595 5.41344 29.576 6.03098 30.4074L6.83375 29.8111ZM7.66363 30.7258C7.28736 30.3533 7.09253 30.1595 6.83375 29.8111L6.03097 30.4074C6.33972 30.8231 6.58384 31.0639 6.96004 31.4364L7.66363 30.7258ZM7.6654 30.7276L7.66539 30.7276L6.95828 31.4347L6.9583 31.4347L7.6654 30.7276ZM7.66542 30.7276L7.6654 30.7276L6.9583 31.4347L6.95831 31.4347L7.66542 30.7276ZM7.68046 30.7433L7.68045 30.7433L6.94329 31.419L6.94331 31.419L7.68046 30.7433ZM8.69576 31.7777C8.23774 31.2943 7.91446 30.9742 7.66368 30.7259L6.96009 31.4365C7.20872 31.6827 7.52298 31.9938 7.96985 32.4655L8.69576 31.7777ZM11.888 36.334C10.8388 34.2355 9.71859 32.8572 8.69576 31.7777L7.96985 32.4655C8.94199 33.4915 9.99819 34.7905 10.9936 36.7812L11.888 36.334ZM15.1109 44.5115C14.5693 42.4927 13.604 39.7659 11.888 36.334L10.9936 36.7812C12.6818 40.1577 13.6222 42.8216 14.1451 44.7706L15.1109 44.5115ZM28.5504 44.1411H14.628V45.1411H28.5504V44.1411ZM31.2904 36.334C29.5744 39.7659 28.6091 42.4927 28.0675 44.5115L29.0333 44.7706C29.5562 42.8216 30.4966 40.1577 32.1848 36.7812L31.2904 36.334ZM34.4826 31.7777C33.4598 32.8572 32.3396 34.2355 31.2904 36.334L32.1848 36.7812C33.1802 34.7905 34.2364 33.4915 35.2085 32.4655L34.4826 31.7777ZM35.5145 30.7261C35.2638 30.9744 34.9405 31.2944 34.4826 31.7777L35.2085 32.4655C35.6553 31.994 35.9695 31.6828 36.2181 31.4367L35.5145 30.7261ZM35.5183 30.7224L35.5181 30.7226L36.2145 31.4402L36.2147 31.44L35.5183 30.7224ZM35.513 30.7276L35.513 30.7276L36.2201 31.4347L36.2201 31.4347L35.513 30.7276ZM36.3446 29.8111C36.0859 30.1595 35.891 30.3533 35.5147 30.7259L36.2183 31.4365C36.5945 31.064 36.8387 30.8231 37.1474 30.4074L36.3446 29.8111ZM37.6784 21.1888C37.6784 27.8053 36.7634 29.2473 36.3446 29.8111L37.1474 30.4074C37.765 29.576 38.6784 27.8595 38.6784 21.1888H37.6784ZM33.0994 9.05696C35.7672 11.5139 37.6784 15.3904 37.6784 21.1888H38.6784C38.6784 15.1532 36.6793 10.9945 33.7769 8.3214L33.0994 9.05696ZM21.5892 5.09961C26.3945 5.09961 30.3711 6.54423 33.0994 9.05696L33.7769 8.3214C30.8273 5.60482 26.5907 4.09961 21.5892 4.09961V5.09961ZM10.079 9.05696C12.8073 6.54423 16.7839 5.09961 21.5892 5.09961V4.09961C16.5877 4.09961 12.3511 5.60482 9.40152 8.3214L10.079 9.05696ZM21.5892 0.0996094C15.8059 0.0996094 10.5285 1.84548 6.69171 5.37913C2.8482 8.91897 0.5 14.2075 0.5 21.1888H1.5C1.5 14.444 3.76085 9.43791 7.36916 6.11469C10.9842 2.78527 16.0014 1.09961 21.5892 1.09961V0.0996094ZM42.6784 21.1888C42.6784 14.2075 40.3302 8.91897 36.4867 5.37913C32.6499 1.84548 27.3725 0.0996094 21.5892 0.0996094V1.09961C27.177 1.09961 32.1942 2.78527 35.8092 6.11469C39.4175 9.43791 41.6784 14.444 41.6784 21.1888H42.6784ZM38.8208 34.495C39.8591 33.4572 40.8556 32.4648 41.5656 30.5305C42.266 28.6225 42.6784 25.8298 42.6784 21.1888H41.6784C41.6784 25.791 41.2664 28.4437 40.6269 30.1859C39.997 31.9017 39.138 32.764 38.1138 33.7877L38.8208 34.495ZM35.7625 38.5701C36.7796 36.536 37.8304 35.485 38.8208 34.495L38.1138 33.7877C37.1037 34.7974 35.9592 35.9407 34.8681 38.1229L35.7625 38.5701ZM32.4807 47.7243C32.7003 46.3108 33.4177 43.2597 35.7625 38.5701L34.8681 38.1229C32.4819 42.8954 31.7296 46.045 31.4926 47.5709L32.4807 47.7243ZM30.8838 49.1411C31.7124 49.1411 32.3629 48.483 32.4807 47.7244L31.4926 47.5709C31.4409 47.9037 31.1597 48.1411 30.8838 48.1411V49.1411ZM12.2946 49.1411H30.8838V48.1411H12.2946V49.1411ZM10.6976 47.7244C10.8155 48.483 11.466 49.1411 12.2946 49.1411V48.1411C12.0187 48.1411 11.7375 47.9037 11.6858 47.5709L10.6976 47.7244ZM7.41585 38.5701C9.76066 43.2597 10.4781 46.3108 10.6976 47.7244L11.6858 47.5709C11.4488 46.045 10.6965 42.8954 8.31028 38.1229L7.41585 38.5701ZM4.3576 34.495C5.34804 35.485 6.39881 36.536 7.41585 38.5701L8.31028 38.1229C7.21918 35.9407 6.0747 34.7974 5.06455 33.7877L4.3576 34.495ZM0.5 21.1888C0.5 25.8298 0.912357 28.6225 1.61276 30.5305C2.32282 32.4648 3.31934 33.4572 4.3576 34.495L5.06455 33.7877C4.04039 32.764 3.18137 31.9017 2.5515 30.1859C1.91197 28.4437 1.5 25.791 1.5 21.1888H0.5ZM11.7969 51.5723C11.2446 51.5723 10.7969 52.02 10.7969 52.5723H11.7969V51.5723ZM31.3861 51.5723H11.7969V52.5723H31.3861V51.5723ZM32.3861 52.5723C32.3861 52.02 31.9384 51.5723 31.3861 51.5723V52.5723H32.3861ZM32.3861 62.1079V52.5723H31.3861V62.1079H32.3861ZM31.956 62.9258C32.2328 62.7378 32.3861 62.4292 32.3861 62.1079H31.3861C31.3861 62.1102 31.3856 62.1094 31.387 62.1066C31.3886 62.1036 31.3913 62.1005 31.3941 62.0986L31.956 62.9258ZM25.188 66.2737C26.5143 65.9687 28.0008 65.267 29.241 64.5869C30.4893 63.9023 31.5246 63.2189 31.956 62.9258L31.3941 62.0986C30.9773 62.3817 29.9706 63.0462 28.7602 63.7101C27.5416 64.3784 26.1526 65.0258 24.9639 65.2991L25.188 66.2737ZM24.9674 66.2984C25.0384 66.2984 25.1126 66.291 25.188 66.2737L24.9638 65.2992C24.9681 65.2982 24.9694 65.2984 24.9674 65.2984V66.2984ZM18.2148 66.2984H24.9674V65.2984H18.2148V66.2984ZM17.9949 66.2737C18.0696 66.2909 18.1431 66.2984 18.2148 66.2984V65.2984C18.2135 65.2984 18.2155 65.2983 18.2191 65.2992L17.9949 66.2737ZM11.227 62.9258C11.6584 63.2189 12.6936 63.9023 13.9419 64.5869C15.1821 65.267 16.6686 65.9687 17.995 66.2737L18.2191 65.2991C17.0303 65.0258 15.6414 64.3784 14.4228 63.7101C13.2123 63.0462 12.2056 62.3817 11.7888 62.0986L11.227 62.9258ZM10.7969 62.1079C10.7969 62.4292 10.9501 62.7378 11.227 62.9258L11.7888 62.0986C11.7916 62.1005 11.7943 62.1036 11.7959 62.1066C11.7974 62.1094 11.7969 62.1102 11.7969 62.1079H10.7969ZM10.7969 52.5723V62.1079H11.7969V52.5723H10.7969ZM17.1769 17.1934C16.8287 17.6287 16.5922 18.0847 16.4421 18.4796C16.2959 18.864 16.2188 19.2246 16.2188 19.4734H17.2188C17.2188 19.3909 17.2544 19.157 17.3768 18.835C17.4952 18.5237 17.683 18.1615 17.9577 17.8181L17.1769 17.1934ZM19.866 15.8262C18.7095 15.8262 17.8218 16.3873 17.1769 17.1934L17.9577 17.8181C18.4573 17.1937 19.078 16.8262 19.866 16.8262V15.8262ZM21.366 14.3262C21.366 15.1546 20.6945 15.8262 19.866 15.8262V16.8262C21.2468 16.8262 22.366 15.7069 22.366 14.3262H21.366ZM19.866 12.8262C20.6945 12.8262 21.366 13.4977 21.366 14.3262H22.366C22.366 12.9455 21.2468 11.8262 19.866 11.8262V12.8262ZM14.8343 15.3193C15.9069 13.9786 17.5934 12.8262 19.866 12.8262V11.8262C17.2202 11.8262 15.2678 13.1767 14.0534 14.6946L14.8343 15.3193ZM13.2188 19.4734C13.2188 18.2209 13.8 16.6121 14.8343 15.3193L14.0534 14.6946C12.902 16.1339 12.2188 17.9573 12.2188 19.4734H13.2188ZM14.7188 20.9734C13.8903 20.9734 13.2188 20.3019 13.2188 19.4734H12.2188C12.2188 20.8541 13.338 21.9734 14.7188 21.9734V20.9734ZM16.2188 19.4734C16.2188 20.3019 15.5472 20.9734 14.7188 20.9734V21.9734C16.0995 21.9734 17.2188 20.8541 17.2188 19.4734H16.2188Z" fill="white"/>
</svg> 