<svg width="246" height="193" viewBox="0 0 246 193" fill="none" xmlns="http://www.w3.org/2000/svg">
  <path d="M21.5862 102.728L13.2471 98.6855C20.3739 83.9763 30.5507 74.4751 43.4879 70.4484C66.3162 63.3409 89.1792 76.0734 90.1405 76.6178L85.5772 84.6828C85.3764 84.5708 65.1425 73.3748 46.1865 79.3126C35.8167 82.5594 27.5394 90.4391 21.5862 102.728Z" fill="#2C2B2B"/>
  <path d="M2.12454 101.317C2.03574 102.368 2.71909 103.313 3.78078 103.456C4.34444 103.53 4.91968 103.591 5.49493 103.63C4.40235 103.885 3.29047 104.062 2.17859 104.178C1.17481 104.282 0.352479 105.352 0.522349 106.348C0.703802 107.402 1.59948 108.097 2.67276 107.985C3.65723 107.881 4.63785 107.726 5.60689 107.518C5.10886 107.8 4.6031 108.07 4.10508 108.344C3.22098 108.823 2.58782 109.857 3.04724 110.861C3.4449 111.722 4.6031 112.405 5.54897 111.892C7.09325 111.054 8.66842 110.193 10.1973 109.259C9.99264 109.452 9.77644 109.641 9.56024 109.826C8.60279 110.66 7.599 111.44 6.56048 112.166C5.73429 112.749 5.54125 114.093 6.18599 114.865C6.86933 115.691 7.98507 115.838 8.87303 115.216C11.506 113.363 13.9151 111.174 16.0115 108.718C15.776 110.093 15.637 111.479 15.5791 112.869C15.5405 113.872 16.1427 114.923 17.2392 115.004C18.2005 115.073 19.3471 114.398 19.3857 113.317C19.4552 111.544 19.6637 109.776 20.0266 108.031C20.1115 107.614 20.2119 107.201 20.3084 106.792C20.3084 106.792 20.3084 106.788 20.3084 106.784C20.3084 106.78 20.3084 106.777 20.3123 106.773C20.3277 106.703 20.3432 106.661 20.347 106.638C20.347 106.634 20.347 106.63 20.347 106.63C20.3663 106.576 20.3818 106.514 20.3972 106.46C20.459 106.24 20.5208 106.028 20.5864 105.807C20.8489 104.939 21.15 104.086 21.4821 103.248C21.8566 102.31 21.4126 101.094 20.432 100.75C20.042 100.611 19.6251 100.599 19.239 100.696C19.4938 99.9276 19.3625 99.0513 18.6367 98.5494C18.1928 98.2405 17.5712 98.1054 17.0152 98.2173C16.9149 97.7772 16.6716 97.3757 16.3242 97.1325C15.4092 96.4993 14.3629 96.704 13.6333 97.5108C13.6256 97.5224 13.6024 97.5456 13.5715 97.5726C13.5715 97.5726 13.3785 97.7656 13.363 97.7772C13.197 97.9278 13.0233 98.0668 12.8418 98.2019C12.6604 98.337 12.4789 98.4644 12.2898 98.588C12.2627 98.6034 12.1353 98.6768 12.0697 98.7115C12.0697 98.7115 12.0736 98.7115 12.0813 98.7115C12.0774 98.7115 12.0736 98.7115 12.0697 98.7154C12.062 98.7154 12.0581 98.7192 12.0542 98.7231V98.7308H12.0388C12.0388 98.7308 12.0156 98.7463 12.0118 98.7463C11.5871 98.9663 11.1508 99.1555 10.703 99.3099C10.5833 99.3524 10.4636 99.391 10.344 99.4257C10.3362 99.4257 10.3169 99.4335 10.2976 99.4412H10.2938C10.2938 99.4412 10.2783 99.4489 10.2629 99.4528C10.2513 99.4528 10.2397 99.4605 10.2243 99.4644C10.2243 99.4644 10.2217 99.4644 10.2166 99.4644C10.1934 99.4721 10.1741 99.4759 10.1625 99.4798C10.1664 99.4798 10.1741 99.4759 10.1779 99.4721C10.1123 99.4914 10.039 99.5068 10.0197 99.5107C9.89612 99.5377 9.77644 99.5647 9.65289 99.5879C9.20119 99.6767 8.74563 99.7423 8.29007 99.7809C8.06229 99.8002 7.83451 99.8157 7.60673 99.8273C7.47546 99.835 7.35192 99.835 7.22066 99.8388C7.26312 99.8388 7.28243 99.8427 7.29787 99.8427C7.27085 99.8427 7.20135 99.8427 7.17819 99.8427C7.18591 99.8427 7.19363 99.8427 7.20907 99.835C7.19749 99.835 7.18977 99.835 7.17819 99.835C6.20529 99.8157 5.24012 99.7423 4.27495 99.6149C3.27889 99.4875 2.21333 100.271 2.1284 101.302L2.12454 101.317ZM13.6024 101.924C13.6024 101.924 13.6178 101.908 13.6256 101.897L13.6178 101.904C13.6178 101.904 13.6062 101.916 13.6024 101.92V101.924ZM11.3593 108.155L11.3477 108.17C11.3477 108.17 11.34 108.178 11.3362 108.182C11.3477 108.174 11.3516 108.166 11.3593 108.155ZM12.089 101.055H12.0929C12.0929 101.055 12.1044 101.043 12.1083 101.04C12.1237 101.032 12.143 101.02 12.1585 101.012H12.1662C12.1662 101.012 12.1662 101.02 12.1623 101.012C12.1585 101.012 12.1508 101.016 12.1353 101.028C12.1315 101.036 12.1237 101.04 12.116 101.043C12.1083 101.043 12.1044 101.051 12.1006 101.051C12.1006 101.051 12.0929 101.051 12.089 101.059C12.0607 101.074 12.0542 101.077 12.0697 101.067C12.0697 101.067 12.089 101.055 12.0967 101.051L12.089 101.055ZM13.5213 97.6305L13.5059 97.6537C13.4788 97.6807 13.4595 97.7 13.4518 97.7155C13.4673 97.6923 13.4943 97.6653 13.5252 97.6344L13.5213 97.6305ZM6.32111 103.418C6.34814 103.41 6.36744 103.406 6.38289 103.398C6.40605 103.398 6.42149 103.391 6.45238 103.383C6.56048 103.36 6.41377 103.402 6.34042 103.414C6.34042 103.414 6.33784 103.414 6.3327 103.414C6.3327 103.414 6.30953 103.422 6.30953 103.414C6.30953 103.406 6.30953 103.414 6.31725 103.414L6.32111 103.418Z" fill="#2C2B2B"/>
  <path d="M11.3323 108.183C11.3323 108.183 11.3484 108.166 11.3565 108.154L11.3444 108.17C11.3444 108.17 11.3363 108.179 11.3323 108.183Z" fill="#2C2B2B"/>
  <path d="M11.3483 108.176C11.3483 108.176 11.3402 108.184 11.3362 108.188C11.3483 108.18 11.3523 108.172 11.3604 108.16L11.3483 108.176Z" fill="#2C2B2B"/>
  <path d="M13.6643 101.857C13.6643 101.857 13.641 101.881 13.6216 101.9C13.6255 101.892 13.6332 101.885 13.6449 101.877C13.6565 101.869 13.6604 101.865 13.6643 101.857Z" fill="#2C2B2B"/>
  <path d="M13.6025 101.925C13.6025 101.925 13.6187 101.909 13.6268 101.896L13.6187 101.905C13.6187 101.905 13.6066 101.917 13.6025 101.921V101.925Z" fill="#2C2B2B"/>
  <path d="M13.6643 101.857C13.6643 101.857 13.641 101.881 13.6216 101.9C13.6255 101.892 13.6332 101.885 13.6449 101.877C13.6565 101.869 13.6604 101.865 13.6643 101.857Z" fill="#2C2B2B"/>
  <path d="M13.6187 101.909C13.6187 101.909 13.6066 101.921 13.6025 101.925C13.6106 101.917 13.6187 101.909 13.6268 101.896L13.6187 101.905V101.909Z" fill="#2C2B2B"/>
  <path d="M12.1083 101.051C12.1083 101.051 12.0967 101.058 12.0928 101.058C12.0967 101.051 12.1044 101.047 12.1083 101.047C12.1239 101.039 12.1434 101.027 12.1589 101.02C12.155 101.02 12.1473 101.023 12.1317 101.035C12.1278 101.043 12.12 101.047 12.1122 101.051H12.1083Z" fill="#2C2B2B"/>
  <path d="M12.0848 101.062C12.0568 101.078 12.0504 101.08 12.0657 101.07C12.0657 101.07 12.0848 101.059 12.0925 101.055H12.0963C12.0963 101.055 12.0887 101.055 12.0848 101.062Z" fill="#2C2B2B"/>
  <path d="M6.31318 103.428C6.31318 103.428 6.31318 103.428 6.32089 103.428C6.34787 103.42 6.36715 103.417 6.38257 103.409C6.4057 103.409 6.42112 103.401 6.45196 103.394C6.55989 103.37 6.41341 103.413 6.34016 103.424C6.34016 103.424 6.33759 103.424 6.33246 103.424C6.33246 103.424 6.30933 103.432 6.30933 103.424L6.31318 103.428Z" fill="#2C2B2B"/>
  <path d="M13.6643 101.857C13.6643 101.857 13.641 101.881 13.6216 101.9C13.6255 101.892 13.6332 101.885 13.6449 101.877C13.6565 101.869 13.6604 101.865 13.6643 101.857Z" fill="#2C2B2B"/>
  <path d="M13.6187 101.909C13.6187 101.909 13.6066 101.921 13.6025 101.925C13.6106 101.917 13.6187 101.909 13.6268 101.896L13.6187 101.905V101.909Z" fill="#2C2B2B"/>
  <path d="M12.1083 101.051C12.1083 101.051 12.0967 101.058 12.0928 101.058C12.0967 101.051 12.1044 101.047 12.1083 101.047C12.1239 101.039 12.1434 101.027 12.1589 101.02C12.155 101.02 12.1473 101.023 12.1317 101.035C12.1278 101.043 12.12 101.047 12.1122 101.051H12.1083Z" fill="#2C2B2B"/>
  <path d="M12.0848 101.062C12.0568 101.078 12.0504 101.08 12.0657 101.07C12.0657 101.07 12.0848 101.059 12.0925 101.055H12.0963C12.0963 101.055 12.0887 101.055 12.0848 101.062Z" fill="#2C2B2B"/>
  <path d="M13.5064 97.6601C13.4791 97.6873 13.4597 97.7068 13.4519 97.7224C13.4675 97.699 13.4947 97.6718 13.5259 97.6406L13.5103 97.664L13.5064 97.6601Z" fill="#2C2B2B"/>
  <path d="M12.0793 98.7168C12.0793 98.7168 12.0701 98.7168 12.0654 98.7214C12.0654 98.7214 12.0701 98.7214 12.0793 98.7168Z" fill="#2C2B2B"/>
  <path d="M12.0383 98.7404C12.0383 98.7404 12.0433 98.7404 12.0483 98.7305V98.7404H12.0383Z" fill="#2C2B2B"/>
  <path d="M10.2908 99.4492C10.2908 99.4492 10.2751 99.4571 10.2593 99.4611C10.2593 99.4611 10.2711 99.4571 10.2711 99.4532H10.2869L10.2908 99.4492Z" fill="#2C2B2B"/>
  <path d="M10.2132 99.4727C10.1898 99.4804 10.1704 99.4843 10.1587 99.4882C10.1626 99.4882 10.1704 99.4843 10.1743 99.4805C10.186 99.4766 10.2015 99.4727 10.2132 99.4727Z" fill="#2C2B2B"/>
  <path d="M6.33636 103.426C6.33636 103.426 6.31323 103.434 6.31323 103.426C6.31323 103.419 6.31323 103.426 6.32094 103.426C6.34793 103.419 6.3672 103.415 6.38262 103.407C6.40575 103.407 6.42117 103.399 6.45201 103.392C6.55994 103.368 6.41346 103.411 6.34022 103.422C6.34022 103.422 6.33765 103.422 6.33251 103.422L6.33636 103.426Z" fill="#2C2B2B"/>
  <path d="M7.17065 99.8593C7.17065 99.8593 7.18607 99.8593 7.20149 99.8516C7.20149 99.8516 7.2092 99.8516 7.21691 99.8516C7.25932 99.8516 7.27859 99.8554 7.29401 99.8554C7.26703 99.8554 7.19764 99.8554 7.17451 99.8554L7.17065 99.8593Z" fill="#2C2B2B"/>
  <path d="M225.354 25.8184L143.394 77.6914L148.349 85.5207L230.309 33.6477L225.354 25.8184Z" fill="#2C2B2B"/>
  <path d="M173.674 164.804L165.412 160.611C169.366 152.821 169.852 146.072 166.906 139.98C161.903 129.641 146.95 122.429 134.353 119.873L136.195 110.793C140.449 111.658 148.869 113.816 157.432 118.576C165.976 123.329 171.972 129.17 175.249 135.945C179.481 144.698 178.952 154.403 173.674 164.804Z" fill="#2C2B2B"/>
  <path d="M162.258 179.538L156.591 176.086L166.061 159.389L173.69 164.554C168.706 175.712 178.836 184.086 183.365 189.919C186.986 194.587 171.111 188.888 167.262 183.113C164.413 177.897 164.567 176.248 164.698 175.214L162.258 179.538Z" fill="#2C2B2B"/>
  <path d="M68.6019 178.797C65.2932 178.797 61.7955 178.322 58.1162 177.373L60.4365 168.4C68.8953 170.589 75.5897 169.616 80.9059 165.428C89.9322 158.32 93.7582 142.171 93.5497 129.315L102.815 129.164C102.885 133.507 102.584 142.19 99.777 151.575C96.9741 160.941 92.5536 168.053 86.639 172.709C81.4889 176.763 75.4469 178.797 68.6019 178.797Z" fill="#2C2B2B"/>
  <path d="M41.2719 169.387L43.4223 163.109L61.7644 168.773L58.3554 177.332C46.3873 174.861 40.3839 186.555 35.6623 192.227C31.8826 196.767 34.0369 180.039 38.8512 175.039C43.3335 171.136 44.9781 170.935 46.0167 170.838L41.2719 169.387Z" fill="#2C2B2B"/>
  <path d="M222.508 34.9003C228.276 30.7848 233.755 26.2755 239.546 22.1909C241.009 21.1601 242.491 20.1525 244.024 19.222C245.317 18.4344 245.92 16.589 245.063 15.261C244.205 13.9329 242.488 13.3808 241.102 14.2224C238.221 15.9713 235.488 17.9712 232.786 19.9787C229.809 22.1909 226.871 24.461 223.914 26.7002C222.485 27.7812 221.049 28.8583 219.59 29.9007C218.96 30.3486 218.47 30.862 218.258 31.6303C218.069 32.3252 218.154 33.2479 218.551 33.8618C219.339 35.0818 221.196 35.8423 222.512 34.9003H222.508Z" fill="#2C2B2B"/>
  <path d="M232.381 27.9381C233.767 27.8609 235.153 27.7991 236.535 27.9728L235.766 27.8686C236.458 27.9651 237.129 28.1273 237.782 28.3821L237.091 28.0886C237.593 28.301 238.056 28.5674 238.492 28.8994L237.905 28.4477C238.268 28.7411 238.593 29.0654 238.882 29.436L238.43 28.8492C238.67 29.1735 238.874 29.5132 239.04 29.88L238.747 29.1889C238.917 29.5905 239.029 29.9958 239.094 30.4282L238.99 29.66C239.04 30.0846 239.04 30.5054 238.99 30.9301L239.094 30.1618C239.017 30.7023 238.87 31.2158 238.662 31.7177L238.955 31.0266C238.84 31.2814 238.716 31.5247 238.577 31.764C237.813 33.0728 238.233 34.9954 239.616 35.7251C240.998 36.4548 242.762 36.0841 243.577 34.6866C244.642 32.8566 245.028 30.8182 244.654 28.7334C244.372 27.1582 243.422 25.5869 242.222 24.5407C240.866 23.3632 239.249 22.591 237.469 22.313C235.689 22.0351 234.099 22.0582 232.385 22.1509C230.875 22.2358 229.416 23.4211 229.489 25.0464C229.555 26.5444 230.763 28.0307 232.385 27.9419L232.381 27.9381Z" fill="#2C2B2B"/>
  <path d="M228.326 30.3521C229.712 30.2749 231.098 30.2132 232.48 30.3869L231.712 30.2826C232.403 30.3792 233.075 30.5413 233.727 30.7961L233.036 30.5027C233.538 30.715 234.001 30.9814 234.438 31.3135L233.851 30.8618C234.214 31.1552 234.538 31.4795 234.828 31.8501L234.376 31.2633C234.615 31.5876 234.82 31.9273 234.986 32.2941L234.692 31.603C234.862 32.0045 234.974 32.4099 235.04 32.8423L234.936 32.074C234.986 32.4987 234.986 32.9195 234.936 33.3442L235.04 32.5759C234.963 33.1164 234.816 33.6299 234.608 34.1318L234.901 33.4407C234.785 33.6955 234.662 33.9387 234.523 34.1781C233.758 35.4869 234.179 37.4095 235.561 38.1392C236.943 38.8688 238.708 38.4982 239.522 37.1006C240.588 35.2707 240.974 33.2322 240.599 31.1474C240.318 29.5723 239.368 28.001 238.167 26.9547C236.812 25.7772 235.194 25.0051 233.415 24.7271C231.635 24.4491 230.044 24.4723 228.33 24.565C226.821 24.6499 225.361 25.8351 225.435 27.4605C225.5 28.9584 226.709 30.4448 228.33 30.356L228.326 30.3521Z" fill="#2C2B2B"/>
  <path d="M225.107 33.1279C226.026 33.0854 226.952 33.0275 227.867 33.1472L227.099 33.043C227.91 33.1588 228.709 33.4059 229.466 33.7186L228.775 33.4252C229.223 33.6221 229.643 33.8576 230.033 34.151L229.446 33.6993C229.767 33.9464 230.053 34.2243 230.307 34.5409L229.856 33.9541C230.06 34.2205 230.23 34.5062 230.361 34.815L230.068 34.124C230.168 34.3826 230.238 34.6451 230.28 34.9193L230.176 34.151C230.207 34.4444 230.207 34.7301 230.172 35.0235L230.276 34.2552C230.222 34.5988 230.13 34.9193 229.998 35.2397L230.292 34.5486C230.141 34.8807 229.96 35.1895 229.748 35.4868C229.334 36.0659 229.273 37.0581 229.454 37.7183C229.636 38.3784 230.157 39.1197 230.786 39.4479C231.458 39.803 232.272 39.9806 233.018 39.7413C233.763 39.5019 234.288 39.0541 234.747 38.4093C235.859 36.8573 236.311 34.7378 235.759 32.8885C235.268 31.24 234.153 29.9814 232.767 29.0163C232.083 28.5414 231.292 28.2248 230.512 27.9507C230.022 27.777 229.52 27.6225 229.01 27.5222C227.698 27.2674 226.431 27.2751 225.107 27.3369C224.343 27.3716 223.609 27.638 223.061 28.1862C222.559 28.6881 222.181 29.5143 222.211 30.2324C222.281 31.7419 223.486 33.2013 225.107 33.1279Z" fill="#2C2B2B"/>
  <path d="M161.429 134.41L137.558 133.58L117.757 146.942L98.9321 132.24L75.0576 131.41L68.4712 108.447L49.6465 93.7454L57.8119 71.2993L51.2255 48.3359L71.027 34.9779L79.1924 12.5318L103.067 13.3619L122.865 0L141.693 14.7015L165.564 15.5316L172.15 38.495L190.975 53.1965L182.81 75.6426L189.396 98.606L169.594 111.964L161.429 134.41Z" fill="url(#paint0_linear_3728_21305)"/>
  <path d="M152.472 120.031L134.469 119.405L119.536 129.478L105.34 118.39L87.3378 117.764L82.3691 100.449L68.1733 89.3612L74.3312 72.4359L69.3624 55.1207L84.2956 45.0442L90.4534 28.1151L108.456 28.7405L123.389 18.668L137.585 29.7559L155.587 30.3813L160.556 47.6965L174.752 58.7845L168.594 75.7136L173.563 93.0288L158.629 103.101L152.472 120.031Z" fill="#2C2B2B"/>
  <path d="M122.734 73.4177C122.931 74.9735 122.117 76.541 120.565 77.8189C119.016 79.0968 116.758 80.0542 114.164 80.3824C111.565 80.7105 109.141 80.3399 107.326 79.4905C105.504 78.6373 104.326 77.3247 104.13 75.7688C103.933 74.213 104.747 72.6455 106.299 71.3676C107.847 70.0898 110.106 69.1323 112.7 68.8041C115.299 68.476 117.723 68.8466 119.538 69.696C121.36 70.5492 122.537 71.8657 122.734 73.4177Z" fill="white"/>
  <path d="M115.009 80.4481C114.739 80.4983 114.461 80.5408 114.183 80.5755C111.643 80.896 109.176 80.5756 107.238 79.6683C105.307 78.7649 104.13 77.3905 103.929 75.796C103.728 74.2015 104.524 72.58 106.168 71.2211C107.821 69.8583 110.126 68.9317 112.67 68.6113C115.21 68.2908 117.677 68.6113 119.615 69.5185C121.546 70.4219 122.723 71.8002 122.924 73.3908C123.125 74.9814 122.329 76.6068 120.685 77.9657C119.214 79.178 117.222 80.0466 115.009 80.4481ZM111.921 69.117C109.77 69.5069 107.84 70.3447 106.419 71.5184C104.879 72.7847 104.134 74.2865 104.315 75.7458C104.501 77.2013 105.597 78.4715 107.404 79.317C109.276 80.1933 111.67 80.5061 114.137 80.1933C116.608 79.8806 118.843 78.9849 120.441 77.6723C121.982 76.406 122.727 74.9042 122.545 73.4448C122.36 71.9855 121.264 70.7192 119.457 69.8737C117.584 68.9973 115.195 68.6885 112.724 68.9973C112.454 69.0321 112.187 69.0745 111.921 69.1209V69.117Z" fill="#2C2B2B"/>
  <path d="M116.707 74.1815C117.109 77.3627 114.642 80.3238 111.148 80.764C107.654 81.2041 104.527 78.9494 104.125 75.7682C103.724 72.587 106.191 69.6258 109.685 69.1819C113.179 68.7417 116.306 70.9964 116.707 74.1776V74.1815Z" fill="#606060"/>
  <path d="M151.18 68.2071C151.377 69.7513 150.562 71.3149 149.022 72.5851C147.481 73.8553 145.234 74.8089 142.652 75.137C140.069 75.4652 137.656 75.0946 135.849 74.2491C134.038 73.3997 132.865 72.0909 132.668 70.5467C132.471 68.9985 133.286 67.4388 134.826 66.1686C136.366 64.8985 138.61 63.9449 141.196 63.6167C143.779 63.2885 146.192 63.6592 147.999 64.5047C149.809 65.354 150.983 66.6628 151.18 68.2071Z" fill="white"/>
  <path d="M143.493 75.2028C143.223 75.253 142.949 75.2955 142.675 75.3302C140.146 75.6507 137.691 75.3302 135.764 74.4268C133.842 73.5273 132.672 72.1606 132.475 70.5739C132.274 68.9871 133.066 67.3734 134.703 66.0221C136.347 64.667 138.644 63.7443 141.169 63.4277C143.694 63.1073 146.15 63.4277 148.08 64.3311C150.003 65.2307 151.168 66.6012 151.369 68.1841C151.57 69.7708 150.779 71.3846 149.142 72.7359C147.678 73.9404 145.694 74.8052 143.493 75.2028ZM140.42 63.9296C138.281 64.3157 136.363 65.1535 134.95 66.3155C133.417 67.578 132.676 69.0721 132.857 70.5198C133.039 71.9714 134.131 73.23 135.926 74.0717C137.787 74.9442 140.169 75.253 142.625 74.9442C145.08 74.6315 147.308 73.7435 148.894 72.4347C150.427 71.1723 151.168 69.6782 150.987 68.2304C150.806 66.7827 149.713 65.5202 147.914 64.6786C146.049 63.8061 143.671 63.4972 141.216 63.8099C140.945 63.8447 140.679 63.8833 140.416 63.9335L140.42 63.9296Z" fill="#2C2B2B"/>
  <path d="M145.188 68.9652C145.585 72.1271 143.13 75.0767 139.655 75.5168C136.181 75.9569 133.069 73.71 132.667 70.5481C132.266 67.3862 134.725 64.4366 138.2 63.9965C141.674 63.5564 144.786 65.8033 145.188 68.9652Z" fill="#606060"/>
  <path d="M108.202 66.1111C107.778 66.1884 107.338 66.254 106.882 66.3119L106.789 65.5475C118.387 64.119 119.089 55.6911 119.117 55.3359L119.889 55.3861C119.881 55.4788 119.186 64.1229 108.21 66.115L108.202 66.1111Z" fill="white"/>
  <path d="M146.126 59.2269C135.146 61.2191 131.459 53.3703 131.42 53.2853L132.123 52.9688C132.274 53.2969 135.895 60.9256 147.253 58.2L147.435 58.949C146.987 59.0571 146.55 59.1497 146.126 59.2269Z" fill="white"/>
  <path d="M14.8289 146.763L14.3984 147.404L27.9788 156.523L28.4092 155.882L14.8289 146.763Z" fill="#2C2B2B"/>
  <path d="M27.974 164.912L14.3953 174.033L14.8258 174.674L28.4045 165.553L27.974 164.912Z" fill="#2C2B2B"/>
  <path d="M27.7517 160.053H11.0542V160.825H27.7517V160.053Z" fill="#2C2B2B"/>
  <path d="M91.4725 64.0977L86.747 69.1281C84.6468 71.3635 85.7548 75.035 88.743 75.7377C91.7312 76.4403 94.3565 73.6452 93.4685 70.7072L91.4725 64.0977Z" fill="white"/>
  <defs>
    <linearGradient id="paint0_linear_3728_21305" x1="49.6465" y1="73.4729" x2="190.975" y2="73.4729" gradientUnits="userSpaceOnUse">
      <stop stop-color="#F5FF82"/>
      <stop offset="0.4" stop-color="#B6D8E2"/>
      <stop offset="1" stop-color="#2C5EC1"/>
    </linearGradient>
  </defs>
</svg>